<svg xmlns="http://www.w3.org/2000/svg" xmlns:xlink="http://www.w3.org/1999/xlink" width="109" height="109" viewBox="0 0 109 109">
  <defs>
    <filter id="Path_873828" x="0" y="0" width="109" height="109" filterUnits="userSpaceOnUse">
      <feOffset dy="3" input="SourceAlpha"/>
      <feGaussianBlur stdDeviation="3" result="blur"/>
      <feFlood flood-opacity="0.161"/>
      <feComposite operator="in" in2="blur"/>
    </filter>
    <filter id="Path_873828-2" x="0" y="0" width="109" height="109" filterUnits="userSpaceOnUse">
      <feOffset dy="3" input="SourceAlpha"/>
      <feGaussianBlur stdDeviation="3" result="blur-2"/>
      <feFlood flood-opacity="0.161" result="color"/>
      <feComposite operator="out" in="SourceGraphic" in2="blur-2"/>
      <feComposite operator="in" in="color"/>
      <feComposite operator="in" in2="SourceGraphic"/>
    </filter>
  </defs>
  <g id="Group_1111992" data-name="Group 1111992" transform="translate(9 6)">
    <g data-type="innerShadowGroup">
      <g transform="matrix(1, 0, 0, 1, -9, -6)" filter="url(#Path_873828)">
        <g id="Path_873828-3" data-name="Path 873828" transform="translate(9 6)" fill="#fed6a8">
          <path d="M 45.5 89 C 39.62665176391602 89 33.9300537109375 87.85014343261719 28.56845283508301 85.58237457275391 C 23.38873291015625 83.39154815673828 18.7364673614502 80.2547607421875 14.74085330963135 76.25914764404297 C 10.74524021148682 72.26353454589844 7.608453273773193 67.61126708984375 5.417626857757568 62.43154525756836 C 3.149853229522705 57.0699462890625 2 51.37334823608398 2 45.5 C 2 39.62665176391602 3.149853229522705 33.9300537109375 5.417626857757568 28.56845283508301 C 7.608453273773193 23.38873291015625 10.74524021148682 18.7364673614502 14.74085330963135 14.74085330963135 C 18.7364673614502 10.74524021148682 23.38873291015625 7.608453273773193 28.56845283508301 5.417626857757568 C 33.9300537109375 3.149853229522705 39.62665176391602 2 45.5 2 C 51.37334823608398 2 57.0699462890625 3.149853229522705 62.43154525756836 5.417626857757568 C 67.61126708984375 7.608453273773193 72.26353454589844 10.74524021148682 76.25914764404297 14.74085330963135 C 80.2547607421875 18.7364673614502 83.39154815673828 23.38873291015625 85.58237457275391 28.56845283508301 C 87.85014343261719 33.9300537109375 89 39.62665176391602 89 45.5 C 89 51.37334823608398 87.85014343261719 57.0699462890625 85.58237457275391 62.43154525756836 C 83.39154815673828 67.61126708984375 80.2547607421875 72.26353454589844 76.25914764404297 76.25914764404297 C 72.26353454589844 80.2547607421875 67.61126708984375 83.39154815673828 62.43154525756836 85.58237457275391 C 57.0699462890625 87.85014343261719 51.37334823608398 89 45.5 89 Z" stroke="none"/>
          <path d="M 45.5 4 C 39.89577102661133 4 34.46130752563477 5.096694946289062 29.34755325317383 7.259628295898438 C 24.40624237060547 9.349632263183594 19.96764373779297 12.34249114990234 16.15507507324219 16.15507507324219 C 12.34249114990234 19.96764373779297 9.349632263183594 24.40624237060547 7.259628295898438 29.34755325317383 C 5.096694946289062 34.46130752563477 4 39.89577102661133 4 45.5 C 4 51.10422897338867 5.096694946289062 56.53869247436523 7.259628295898438 61.65244674682617 C 9.349632263183594 66.59375 12.34249114990234 71.03235626220703 16.15507507324219 74.84492492675781 C 19.96764373779297 78.65750885009766 24.40624237060547 81.65036773681641 29.34755325317383 83.74037170410156 C 34.46130752563477 85.90330505371094 39.89577102661133 87 45.5 87 C 51.10422897338867 87 56.53869247436523 85.90330505371094 61.65244674682617 83.74037170410156 C 66.59375 81.65036773681641 71.03235626220703 78.65750885009766 74.84492492675781 74.84492492675781 C 78.65750885009766 71.03235626220703 81.65036773681641 66.59375 83.74037170410156 61.65244674682617 C 85.90330505371094 56.53869247436523 87 51.10422897338867 87 45.5 C 87 39.89577102661133 85.90330505371094 34.46130752563477 83.74037170410156 29.34755325317383 C 81.65036773681641 24.40624237060547 78.65750885009766 19.96764373779297 74.84492492675781 16.15507507324219 C 71.03235626220703 12.34249114990234 66.59375 9.349632263183594 61.65244674682617 7.259628295898438 C 56.53869247436523 5.096694946289062 51.10422897338867 4 45.5 4 M 45.5 0 C 70.62895202636719 0 91 20.37104797363281 91 45.5 C 91 70.62895202636719 70.62895202636719 91 45.5 91 C 20.37104797363281 91 0 70.62895202636719 0 45.5 C 0 20.37104797363281 20.37104797363281 0 45.5 0 Z" stroke="none" fill="#fff"/>
        </g>
      </g>
      <g id="Path_873828-4" data-name="Path 873828" fill="#fed6a8">
        <path d="M 45.5 89 C 39.62665176391602 89 33.9300537109375 87.85014343261719 28.56845283508301 85.58237457275391 C 23.38873291015625 83.39154815673828 18.7364673614502 80.2547607421875 14.74085330963135 76.25914764404297 C 10.74524021148682 72.26353454589844 7.608453273773193 67.61126708984375 5.417626857757568 62.43154525756836 C 3.149853229522705 57.0699462890625 2 51.37334823608398 2 45.5 C 2 39.62665176391602 3.149853229522705 33.9300537109375 5.417626857757568 28.56845283508301 C 7.608453273773193 23.38873291015625 10.74524021148682 18.7364673614502 14.74085330963135 14.74085330963135 C 18.7364673614502 10.74524021148682 23.38873291015625 7.608453273773193 28.56845283508301 5.417626857757568 C 33.9300537109375 3.149853229522705 39.62665176391602 2 45.5 2 C 51.37334823608398 2 57.0699462890625 3.149853229522705 62.43154525756836 5.417626857757568 C 67.61126708984375 7.608453273773193 72.26353454589844 10.74524021148682 76.25914764404297 14.74085330963135 C 80.2547607421875 18.7364673614502 83.39154815673828 23.38873291015625 85.58237457275391 28.56845283508301 C 87.85014343261719 33.9300537109375 89 39.62665176391602 89 45.5 C 89 51.37334823608398 87.85014343261719 57.0699462890625 85.58237457275391 62.43154525756836 C 83.39154815673828 67.61126708984375 80.2547607421875 72.26353454589844 76.25914764404297 76.25914764404297 C 72.26353454589844 80.2547607421875 67.61126708984375 83.39154815673828 62.43154525756836 85.58237457275391 C 57.0699462890625 87.85014343261719 51.37334823608398 89 45.5 89 Z" stroke="none"/>
        <path d="M 45.5 4 C 39.89577102661133 4 34.46130752563477 5.096694946289062 29.34755325317383 7.259628295898438 C 24.40624237060547 9.349632263183594 19.96764373779297 12.34249114990234 16.15507507324219 16.15507507324219 C 12.34249114990234 19.96764373779297 9.349632263183594 24.40624237060547 7.259628295898438 29.34755325317383 C 5.096694946289062 34.46130752563477 4 39.89577102661133 4 45.5 C 4 51.10422897338867 5.096694946289062 56.53869247436523 7.259628295898438 61.65244674682617 C 9.349632263183594 66.59375 12.34249114990234 71.03235626220703 16.15507507324219 74.84492492675781 C 19.96764373779297 78.65750885009766 24.40624237060547 81.65036773681641 29.34755325317383 83.74037170410156 C 34.46130752563477 85.90330505371094 39.89577102661133 87 45.5 87 C 51.10422897338867 87 56.53869247436523 85.90330505371094 61.65244674682617 83.74037170410156 C 66.59375 81.65036773681641 71.03235626220703 78.65750885009766 74.84492492675781 74.84492492675781 C 78.65750885009766 71.03235626220703 81.65036773681641 66.59375 83.74037170410156 61.65244674682617 C 85.90330505371094 56.53869247436523 87 51.10422897338867 87 45.5 C 87 39.89577102661133 85.90330505371094 34.46130752563477 83.74037170410156 29.34755325317383 C 81.65036773681641 24.40624237060547 78.65750885009766 19.96764373779297 74.84492492675781 16.15507507324219 C 71.03235626220703 12.34249114990234 66.59375 9.349632263183594 61.65244674682617 7.259628295898438 C 56.53869247436523 5.096694946289062 51.10422897338867 4 45.5 4 M 45.5 0 C 70.62895202636719 0 91 20.37104797363281 91 45.5 C 91 70.62895202636719 70.62895202636719 91 45.5 91 C 20.37104797363281 91 0 70.62895202636719 0 45.5 C 0 20.37104797363281 20.37104797363281 0 45.5 0 Z" stroke="none"/>
      </g>
      <g transform="matrix(1, 0, 0, 1, -9, -6)" filter="url(#Path_873828-2)">
        <g id="Path_873828-5" data-name="Path 873828" transform="translate(9 6)" fill="#fff">
          <path d="M 45.5 89 C 39.62665176391602 89 33.9300537109375 87.85014343261719 28.56845283508301 85.58237457275391 C 23.38873291015625 83.39154815673828 18.7364673614502 80.2547607421875 14.74085330963135 76.25914764404297 C 10.74524021148682 72.26353454589844 7.608453273773193 67.61126708984375 5.417626857757568 62.43154525756836 C 3.149853229522705 57.0699462890625 2 51.37334823608398 2 45.5 C 2 39.62665176391602 3.149853229522705 33.9300537109375 5.417626857757568 28.56845283508301 C 7.608453273773193 23.38873291015625 10.74524021148682 18.7364673614502 14.74085330963135 14.74085330963135 C 18.7364673614502 10.74524021148682 23.38873291015625 7.608453273773193 28.56845283508301 5.417626857757568 C 33.9300537109375 3.149853229522705 39.62665176391602 2 45.5 2 C 51.37334823608398 2 57.0699462890625 3.149853229522705 62.43154525756836 5.417626857757568 C 67.61126708984375 7.608453273773193 72.26353454589844 10.74524021148682 76.25914764404297 14.74085330963135 C 80.2547607421875 18.7364673614502 83.39154815673828 23.38873291015625 85.58237457275391 28.56845283508301 C 87.85014343261719 33.9300537109375 89 39.62665176391602 89 45.5 C 89 51.37334823608398 87.85014343261719 57.0699462890625 85.58237457275391 62.43154525756836 C 83.39154815673828 67.61126708984375 80.2547607421875 72.26353454589844 76.25914764404297 76.25914764404297 C 72.26353454589844 80.2547607421875 67.61126708984375 83.39154815673828 62.43154525756836 85.58237457275391 C 57.0699462890625 87.85014343261719 51.37334823608398 89 45.5 89 Z" stroke="none"/>
          <path d="M 45.5 4 C 39.89577102661133 4 34.46130752563477 5.096694946289062 29.34755325317383 7.259628295898438 C 24.40624237060547 9.349632263183594 19.96764373779297 12.34249114990234 16.15507507324219 16.15507507324219 C 12.34249114990234 19.96764373779297 9.349632263183594 24.40624237060547 7.259628295898438 29.34755325317383 C 5.096694946289062 34.46130752563477 4 39.89577102661133 4 45.5 C 4 51.10422897338867 5.096694946289062 56.53869247436523 7.259628295898438 61.65244674682617 C 9.349632263183594 66.59375 12.34249114990234 71.03235626220703 16.15507507324219 74.84492492675781 C 19.96764373779297 78.65750885009766 24.40624237060547 81.65036773681641 29.34755325317383 83.74037170410156 C 34.46130752563477 85.90330505371094 39.89577102661133 87 45.5 87 C 51.10422897338867 87 56.53869247436523 85.90330505371094 61.65244674682617 83.74037170410156 C 66.59375 81.65036773681641 71.03235626220703 78.65750885009766 74.84492492675781 74.84492492675781 C 78.65750885009766 71.03235626220703 81.65036773681641 66.59375 83.74037170410156 61.65244674682617 C 85.90330505371094 56.53869247436523 87 51.10422897338867 87 45.5 C 87 39.89577102661133 85.90330505371094 34.46130752563477 83.74037170410156 29.34755325317383 C 81.65036773681641 24.40624237060547 78.65750885009766 19.96764373779297 74.84492492675781 16.15507507324219 C 71.03235626220703 12.34249114990234 66.59375 9.349632263183594 61.65244674682617 7.259628295898438 C 56.53869247436523 5.096694946289062 51.10422897338867 4 45.5 4 M 45.5 0 C 70.62895202636719 0 91 20.37104797363281 91 45.5 C 91 70.62895202636719 70.62895202636719 91 45.5 91 C 20.37104797363281 91 0 70.62895202636719 0 45.5 C 0 20.37104797363281 20.37104797363281 0 45.5 0 Z" stroke="none"/>
        </g>
      </g>
      <g id="Path_873828-6" data-name="Path 873828" fill="none">
        <path d="M 45.5 89 C 39.62665176391602 89 33.9300537109375 87.85014343261719 28.56845283508301 85.58237457275391 C 23.38873291015625 83.39154815673828 18.7364673614502 80.2547607421875 14.74085330963135 76.25914764404297 C 10.74524021148682 72.26353454589844 7.608453273773193 67.61126708984375 5.417626857757568 62.43154525756836 C 3.149853229522705 57.0699462890625 2 51.37334823608398 2 45.5 C 2 39.62665176391602 3.149853229522705 33.9300537109375 5.417626857757568 28.56845283508301 C 7.608453273773193 23.38873291015625 10.74524021148682 18.7364673614502 14.74085330963135 14.74085330963135 C 18.7364673614502 10.74524021148682 23.38873291015625 7.608453273773193 28.56845283508301 5.417626857757568 C 33.9300537109375 3.149853229522705 39.62665176391602 2 45.5 2 C 51.37334823608398 2 57.0699462890625 3.149853229522705 62.43154525756836 5.417626857757568 C 67.61126708984375 7.608453273773193 72.26353454589844 10.74524021148682 76.25914764404297 14.74085330963135 C 80.2547607421875 18.7364673614502 83.39154815673828 23.38873291015625 85.58237457275391 28.56845283508301 C 87.85014343261719 33.9300537109375 89 39.62665176391602 89 45.5 C 89 51.37334823608398 87.85014343261719 57.0699462890625 85.58237457275391 62.43154525756836 C 83.39154815673828 67.61126708984375 80.2547607421875 72.26353454589844 76.25914764404297 76.25914764404297 C 72.26353454589844 80.2547607421875 67.61126708984375 83.39154815673828 62.43154525756836 85.58237457275391 C 57.0699462890625 87.85014343261719 51.37334823608398 89 45.5 89 Z" stroke="none"/>
        <path d="M 45.5 4 C 39.89577102661133 4 34.46130752563477 5.096694946289062 29.34755325317383 7.259628295898438 C 24.40624237060547 9.349632263183594 19.96764373779297 12.34249114990234 16.15507507324219 16.15507507324219 C 12.34249114990234 19.96764373779297 9.349632263183594 24.40624237060547 7.259628295898438 29.34755325317383 C 5.096694946289062 34.46130752563477 4 39.89577102661133 4 45.5 C 4 51.10422897338867 5.096694946289062 56.53869247436523 7.259628295898438 61.65244674682617 C 9.349632263183594 66.59375 12.34249114990234 71.03235626220703 16.15507507324219 74.84492492675781 C 19.96764373779297 78.65750885009766 24.40624237060547 81.65036773681641 29.34755325317383 83.74037170410156 C 34.46130752563477 85.90330505371094 39.89577102661133 87 45.5 87 C 51.10422897338867 87 56.53869247436523 85.90330505371094 61.65244674682617 83.74037170410156 C 66.59375 81.65036773681641 71.03235626220703 78.65750885009766 74.84492492675781 74.84492492675781 C 78.65750885009766 71.03235626220703 81.65036773681641 66.59375 83.74037170410156 61.65244674682617 C 85.90330505371094 56.53869247436523 87 51.10422897338867 87 45.5 C 87 39.89577102661133 85.90330505371094 34.46130752563477 83.74037170410156 29.34755325317383 C 81.65036773681641 24.40624237060547 78.65750885009766 19.96764373779297 74.84492492675781 16.15507507324219 C 71.03235626220703 12.34249114990234 66.59375 9.349632263183594 61.65244674682617 7.259628295898438 C 56.53869247436523 5.096694946289062 51.10422897338867 4 45.5 4 M 45.5 0 C 70.62895202636719 0 91 20.37104797363281 91 45.5 C 91 70.62895202636719 70.62895202636719 91 45.5 91 C 20.37104797363281 91 0 70.62895202636719 0 45.5 C 0 20.37104797363281 20.37104797363281 0 45.5 0 Z" stroke="none" fill="#fff"/>
      </g>
    </g>
    <g id="Group_1111993" data-name="Group 1111993" transform="translate(12.839 13.383)">
      <path id="Path_900657" data-name="Path 900657" d="M304.889,189.949l-4.212,4.212-11.615,8.392-2.053-2.053.042-.053a5.791,5.791,0,1,0-6.361-6.286l-.011.011-3.7-3.7L291.2,176.26Z" transform="translate(-242.761 -154.147)" fill="#03aa6f"/>
      <path id="Path_900658" data-name="Path 900658" d="M66.325,323.161,44.212,342.115H37.894l-20.007-7.371H4.2V323.161H17.887l.737-.316,4.528-1.937L25.258,320H42.106v6.318H29.47l13.689,6.318,7.339-5.3,11.615-8.392Z" transform="translate(-4.198 -278.935)" fill="#f5d0c7"/>
      <path id="Path_900659" data-name="Path 900659" d="M318.018,282.529a5.784,5.784,0,0,1-5.2,5.76l-.042.053-5.813-5.813-.516-.516.011-.011a5.792,5.792,0,0,1,11.562.527Z" transform="translate(-268.526 -241.988)" fill="#79dca0"/>
      <path id="Path_900660" data-name="Path 900660" d="M226.669,331.011l-7.339,5.3L205.64,329.99h12.636v-6.318l.526-.527,5.813,5.813Z" transform="translate(-180.368 -282.605)" fill="#03aa6f"/>
      <path id="Path_900661" data-name="Path 900661" d="M215.117,56.181a3.493,3.493,0,0,0,2.232-.769,2.438,2.438,0,0,0,.927-1.864,1.579,1.579,0,0,0-1.169-1.443l-1.99-.663V46.7a3.493,3.493,0,0,0-2.232.769,2.438,2.438,0,0,0-.927,1.864,1.579,1.579,0,0,0,1.169,1.443l1.99.663Zm0-14.216a9.477,9.477,0,1,1-9.477,9.477A9.476,9.476,0,0,1,215.117,41.965Z" transform="translate(-180.368 -36.7)" fill="#ffdb6f"/>
      <path id="Path_900662" data-name="Path 900662" d="M79.335,187.348l-.527.527h-6.4a6.318,6.318,0,0,0-12.552.906l-4.528,1.938-9.161-9.161,13.689-13.689,15.269,15.269,3.7,3.7Z" transform="translate(-40.9 -146.807)" fill="#03aa6f"/>
      <g id="Group_1111993-2" data-name="Group 1111993" transform="translate(31.59 10.003)">
        <path id="Path_900663" data-name="Path 900663" d="M284.341,119.612a2.438,2.438,0,0,1-.927,1.864,3.492,3.492,0,0,1-2.232.769v-4.738l1.99.663A1.579,1.579,0,0,1,284.341,119.612Z" transform="translate(-278.023 -112.767)" fill="#ffdb6f"/>
        <path id="Path_900664" data-name="Path 900664" d="M259.159,79.734v4.738l-1.99-.663A1.579,1.579,0,0,1,256,82.366a2.438,2.438,0,0,1,.927-1.864A3.5,3.5,0,0,1,259.159,79.734Z" transform="translate(-256 -79.734)" fill="#ffdb6f"/>
      </g>
      <path id="Path_900665" data-name="Path 900665" d="M167.832,290.419H157.386l-2.106.906a6.318,6.318,0,0,1,12.552-.906Z" transform="translate(-136.326 -249.352)" fill="#79dca0"/>
      <g id="Group_1111994" data-name="Group 1111994" transform="translate(20.007 0)">
        <path id="Path_900666" data-name="Path 900666" d="M232.629,4.1a12.81,12.81,0,0,0-13.6,0l-1.139-1.771a14.718,14.718,0,0,1,15.881,0Z" transform="translate(-211.086 0)" fill="#ffdb6f"/>
        <path id="Path_900667" data-name="Path 900667" d="M164.807,123.175a14.715,14.715,0,0,1-1.133-5.669h2.106a12.583,12.583,0,0,0,.973,4.861Z" transform="translate(-163.674 -102.764)" fill="#ffdb6f"/>
        <path id="Path_900668" data-name="Path 900668" d="M281.181,213.55v-2.106a12.583,12.583,0,0,0,4.861-.973l.809,1.946A14.712,14.712,0,0,1,281.181,213.55Z" transform="translate(-266.439 -184.066)" fill="#ffdb6f"/>
        <path id="Path_900669" data-name="Path 900669" d="M376.093,123.175l-1.946-.809a12.585,12.585,0,0,0,.973-4.861h2.106A14.717,14.717,0,0,1,376.093,123.175Z" transform="translate(-347.742 -102.764)" fill="#ffdb6f"/>
      </g>
      <g id="Group_1111995" data-name="Group 1111995" transform="translate(24.219 4.212)">
        <path id="Path_900670" data-name="Path 900670" d="M207.777,54.633a10.53,10.53,0,1,1,10.53-10.53A10.53,10.53,0,0,1,207.777,54.633Zm0-18.954A8.424,8.424,0,1,0,216.2,44.1,8.424,8.424,0,0,0,207.777,35.679Z" transform="translate(-197.247 -33.573)" fill="#ff8030"/>
        <path id="Path_900671" data-name="Path 900671" d="M251.82,82.873a4.535,4.535,0,0,1-2.907-1.013,3.5,3.5,0,0,1-1.3-2.673h2.106a1.385,1.385,0,0,0,.548,1.053,2.671,2.671,0,0,0,3.116,0,1.385,1.385,0,0,0,.549-1.053c0-.147-.153-.346-.444-.442L249.5,77.416a2.632,2.632,0,0,1-1.889-2.441,3.5,3.5,0,0,1,1.306-2.673,4.532,4.532,0,0,1,2.906-1.013,3.979,3.979,0,0,1,4.212,3.686h-2.106c0-.856-.964-1.579-2.106-1.579a2.454,2.454,0,0,0-1.557.527,1.385,1.385,0,0,0-.549,1.053c0,.147.153.346.444.442l3.985,1.329a2.632,2.632,0,0,1,1.889,2.441,3.5,3.5,0,0,1-1.306,2.673A4.531,4.531,0,0,1,251.82,82.873Z" transform="translate(-241.29 -66.551)" fill="#ff8030"/>
        <rect id="Rectangle_404698" data-name="Rectangle 404698" width="2.106" height="12.636" transform="translate(9.477 4.212)" fill="#ff8030"/>
      </g>
      <path id="Path_900672" data-name="Path 900672" d="M219.032,4.1a12.813,12.813,0,0,1,13.6,0l1.137-1.773a14.718,14.718,0,0,0-15.876,0Z" transform="translate(-191.085 -0.003)"/>
      <path id="Path_900673" data-name="Path 900673" d="M163.673,117.505a14.644,14.644,0,0,0,1.135,5.675l1.944-.813a12.552,12.552,0,0,1-.973-4.862h-2.106Z" transform="translate(-143.666 -102.763)"/>
      <path id="Path_900674" data-name="Path 900674" d="M281.18,213.558a14.608,14.608,0,0,0,5.672-1.134l-.815-1.944a12.5,12.5,0,0,1-4.857.972v2.106Z" transform="translate(-246.431 -184.074)"/>
      <path id="Path_900675" data-name="Path 900675" d="M376.1,123.177a14.629,14.629,0,0,0,1.134-5.671h-2.106a12.515,12.515,0,0,1-.972,4.859Z" transform="translate(-327.743 -102.764)"/>
      <path id="Path_900676" data-name="Path 900676" d="M218.308,44.1a10.53,10.53,0,1,0-10.53,10.53A10.53,10.53,0,0,0,218.308,44.1Zm-10.53,8.424A8.424,8.424,0,1,1,216.2,44.1,8.424,8.424,0,0,1,207.778,52.526Z" transform="translate(-173.029 -29.36)"/>
      <path id="Path_900677" data-name="Path 900677" d="M253.926,71.357h2.106a3.812,3.812,0,0,0-3.159-3.555v-.657h-2.106V67.8a3.812,3.812,0,0,0-3.159,3.555,2.646,2.646,0,0,0,1.9,2.442l1.264.421v2.7a1.579,1.579,0,0,1-1.053-1.351h-2.106a3.812,3.812,0,0,0,3.159,3.555v.657h2.106v-.657a3.812,3.812,0,0,0,3.159-3.555,2.646,2.646,0,0,0-1.9-2.442l-1.264-.421V70A1.579,1.579,0,0,1,253.926,71.357Zm-.453,3.767c.266.089.453.273.453.445a1.579,1.579,0,0,1-1.053,1.353v-2ZM250.167,71.8c-.266-.089-.453-.273-.453-.445A1.579,1.579,0,0,1,250.767,70v2Z" transform="translate(-217.071 -58.721)"/>
      <path id="Path_900678" data-name="Path 900678" d="M53.381,160.839a1.054,1.054,0,0,0-1.489,0L38.421,174.31,23.9,159.786a1.054,1.054,0,0,0-1.489,0L8.719,173.475a1.054,1.054,0,0,0,0,1.489l7.68,7.68H4.2v2.106H17.887a1.038,1.038,0,0,0,.415-.085l7.172-3.074H41.053V185.8H29.47a1.053,1.053,0,0,0-.441,2.009l13.689,6.318a1.051,1.051,0,0,0,1.053-.105l18.237-13.16,2.773,2.773L43.823,201.6h-5.74l-19.831-7.306a1.052,1.052,0,0,0-.364-.065H4.2v2.106H17.7l19.831,7.306a1.052,1.052,0,0,0,.364.065h6.318a1.046,1.046,0,0,0,.684-.254L67.01,184.5a1.054,1.054,0,0,0,.115-1.485c-.018-.02-.036-.04-.055-.059L63.6,179.485l3.468-3.468a1.054,1.054,0,0,0,0-1.489Zm-30.229,1.18,17.465,17.465H36.531a7.34,7.34,0,0,0-7.06-5.265,7.417,7.417,0,0,0-7.317,6.5l-3.289,1.409-7.912-7.912Zm25.609,22.631-5.5-5.5a4.727,4.727,0,1,1,5.5,5.5ZM51.7,185.7l-1.094.79-.136-.136a6.806,6.806,0,0,0,1.23-.652v0Zm-26.442-6.219a1.038,1.038,0,0,0-.415.085l-.256.105a5.235,5.235,0,0,1,9.693-.191ZM43.042,191.96l-8.778-4.051h7.842a1.053,1.053,0,0,0,1.053-1.053v-4.829l5.718,5.718Zm18.388-13.28-9.279,6.7a6.844,6.844,0,1,0-10.6-7.941L39.91,175.8l12.727-12.727,12.2,12.2Z" transform="translate(-4.198 -139.471)"/>
    </g>
  </g>
</svg>
