<svg xmlns="http://www.w3.org/2000/svg" width="326" height="309" viewBox="0 0 326 309">
  <g id="Group_1111462" data-name="Group 1111462" transform="translate(6485 6846)">
    <rect id="Rectangle_404586" data-name="Rectangle 404586" width="326" height="309" rx="12" transform="translate(-6485 -6846)" fill="#e6dcfb"/>
    <g id="Finance-pana" transform="translate(-6455 -6815)">
      <g id="freepik--Device--inject-122" transform="translate(-3.981 19.121)">
        <path id="Path_108095" data-name="Path 108095" d="M530.127,134.64H284.078c-4.243,0-7.681,3.172-7.678,7.083V301.917c0,3.909,3.437,7.077,7.678,7.077h94.434s6.01,17.121-12.615,25.985h88.3s-21.01-6.648-15.62-25.985h91.551c4.24,0,7.678-3.169,7.678-7.077V141.723C537.808,137.812,534.37,134.64,530.127,134.64Z" transform="translate(-266.862 -115.714)" fill="#263238"/>
        <path id="Path_108096" data-name="Path 108096" d="M478.809,398.117c3.16,4.515-1.781,9.463-6.3,6.3a1.557,1.557,0,0,1-.384-.39c-3.154-4.515,1.788-9.45,6.3-6.3A1.639,1.639,0,0,1,478.809,398.117Z" transform="translate(-318.394 -221.921)" fill="#455a64"/>
        <path id="Path_108097" data-name="Path 108097" d="M289.248,139.57H530.114a6.108,6.108,0,0,1,6.281,5.918V285.112H283V145.488a6.105,6.105,0,0,1,6.248-5.918Z" transform="translate(-269.435 -108.373)" fill="#fff"/>
        <rect id="Rectangle_26914" data-name="Rectangle 26914" width="7.834" height="87.462" transform="translate(65.912 64.081)" fill="#fd9827"/>
        <rect id="Rectangle_26915" data-name="Rectangle 26915" width="7.834" height="57.757" transform="translate(79.797 91.566)" fill="#fd9827"/>
        <rect id="Rectangle_26916" data-name="Rectangle 26916" width="7.834" height="77.036" transform="translate(93.682 74.013)" fill="#fd9827"/>
        <rect id="Rectangle_26917" data-name="Rectangle 26917" width="7.834" height="84.082" transform="translate(107.572 67.168)" fill="#fd9827"/>
        <rect id="Rectangle_26918" data-name="Rectangle 26918" width="7.834" height="55.976" transform="translate(121.457 93.236)" fill="#fd9827"/>
        <rect id="Rectangle_26919" data-name="Rectangle 26919" width="7.834" height="45" transform="translate(135.342 103.57)" fill="#fd9827"/>
        <rect id="Rectangle_26920" data-name="Rectangle 26920" width="7.834" height="78.482" transform="translate(149.227 72.308)" fill="#fd9827"/>
        <rect id="Rectangle_26921" data-name="Rectangle 26921" width="7.834" height="64.334" transform="translate(163.113 85.419)" fill="#fd9827"/>
        <rect id="Rectangle_26922" data-name="Rectangle 26922" width="7.834" height="75.639" transform="translate(177.003 74.929)" fill="#fd9827"/>
        <rect id="Rectangle_26923" data-name="Rectangle 26923" width="7.834" height="51.534" transform="translate(190.888 97.409)" fill="#fd9827"/>
        <rect id="Rectangle_26924" data-name="Rectangle 26924" width="7.834" height="78.482" transform="translate(211.776 72.308)" fill="#fd9827"/>
        <rect id="Rectangle_26925" data-name="Rectangle 26925" width="7.834" height="26.856" transform="translate(246.741 119.806)" fill="#fd9827"/>
        <rect id="Rectangle_26926" data-name="Rectangle 26926" width="7.834" height="51.534" transform="translate(231.086 97.409)" fill="#fd9827"/>
        <rect id="Rectangle_26927" data-name="Rectangle 26927" width="7.834" height="61.338" transform="translate(204.773 88.215)" fill="#fd9827"/>
        <path id="Path_108098" data-name="Path 108098" d="M518.942,210.543a4.5,4.5,0,0,1-.655-.11l-1.914-.409a28.8,28.8,0,0,0-3.125-.519,37.079,37.079,0,0,0-4.3-.372,47.841,47.841,0,0,0-11.764,1.049,50.646,50.646,0,0,0-14.585,5.759A60.03,60.03,0,0,0,467.819,228.2c-4.6,5.259-8.481,11.756-12.449,18.632s-8.088,14.258-13.994,20.627A36.792,36.792,0,0,1,431.07,275.5a20.843,20.843,0,0,1-6.356,2.026,19.552,19.552,0,0,1-6.736-.238,27.135,27.135,0,0,1-11.734-6.412,56.149,56.149,0,0,1-8.691-9.889c-5.045-7.077-8.627-14.7-12.46-21.652s-7.679-13.489-12.448-18.583a34.111,34.111,0,0,0-7.7-6.308,31.825,31.825,0,0,0-4.161-2.1,32.808,32.808,0,0,0-4.243-1.312,29.66,29.66,0,0,0-15.422.451,34.2,34.2,0,0,0-10.587,5.308,39.153,39.153,0,0,0-5.56,5.2l-1.305,1.507a4.193,4.193,0,0,1-.468.5,3.478,3.478,0,0,1,.4-.555l1.235-1.586a36.818,36.818,0,0,1,5.5-5.35,33.989,33.989,0,0,1,10.652-5.491,29.945,29.945,0,0,1,15.679-.61,32.233,32.233,0,0,1,16.469,9.822c4.8,5.161,8.808,11.708,12.624,18.687s7.456,14.563,12.449,21.548a55.714,55.714,0,0,0,8.568,9.761,26.332,26.332,0,0,0,11.366,6.223,18.807,18.807,0,0,0,6.438.226,20.254,20.254,0,0,0,6.116-1.946,36.061,36.061,0,0,0,10.1-7.864c5.823-6.241,9.9-13.611,13.923-20.438s7.913-13.422,12.595-18.705a60.642,60.642,0,0,1,15-12.312,50.5,50.5,0,0,1,14.784-5.692,46.779,46.779,0,0,1,11.869-.915,34.771,34.771,0,0,1,4.325.458,25.466,25.466,0,0,1,3.125.61l1.9.494A4.038,4.038,0,0,1,518.942,210.543Z" transform="translate(-262.171 -135.364)" fill="#263238"/>
        <path id="Path_108099" data-name="Path 108099" d="M301.793,275.572c-.177,0-.323-24.94-.323-55.7s.146-55.7.323-55.7.323,24.934.323,55.7S301.958,275.572,301.793,275.572Z" transform="translate(-243.636 -116.673)" fill="#263238"/>
        <path id="Path_108100" data-name="Path 108100" d="M534.507,346.563c0,.177-50.253.317-112.253.317S310,346.74,310,346.563s50.253-.323,112.253-.323S534.507,346.386,534.507,346.563Z" transform="translate(-279.963 -194.625)" fill="#263238"/>
        <path id="Path_108101" data-name="Path 108101" d="M326.992,357.843c0,.177-2.6.323-5.808.323s-5.814-.146-5.814-.323,2.6-.323,5.814-.323S326.992,357.666,326.992,357.843Z" transform="translate(-249.951 -199.793)" fill="#263238"/>
        <path id="Path_108102" data-name="Path 108102" d="M357.122,358.417c0,.183-3.111.323-6.943.323s-6.949-.14-6.949-.323,3.111-.317,6.949-.317S357.122,358.24,357.122,358.417Z" transform="translate(-262.278 -200.058)" fill="#263238"/>
        <path id="Path_108103" data-name="Path 108103" d="M384.122,358.417c0,.183-3.112.323-6.943.323s-6.949-.14-6.949-.323,3.111-.317,6.949-.317S384.122,358.24,384.122,358.417Z" transform="translate(-274.178 -200.058)" fill="#263238"/>
        <path id="Path_108104" data-name="Path 108104" d="M411.042,358.417c0,.183-3.111.323-6.943.323s-6.949-.14-6.949-.323,3.111-.317,6.949-.317S411.042,358.24,411.042,358.417Z" transform="translate(-286.043 -200.058)" fill="#263238"/>
        <path id="Path_108105" data-name="Path 108105" d="M437.992,358.417c0,.183-3.105.323-6.943.323s-6.949-.14-6.949-.323,3.111-.317,6.949-.317S437.992,358.24,437.992,358.417Z" transform="translate(-297.921 -200.058)" fill="#263238"/>
        <path id="Path_108106" data-name="Path 108106" d="M464.952,358.417c0,.183-3.112.323-6.949.323s-6.943-.14-6.943-.323,3.105-.317,6.943-.317S464.952,358.24,464.952,358.417Z" transform="translate(-309.803 -200.058)" fill="#263238"/>
        <path id="Path_108107" data-name="Path 108107" d="M491.9,358.417c0,.183-3.111.323-6.949.323s-6.943-.14-6.943-.323,3.105-.317,6.943-.317S491.9,358.24,491.9,358.417Z" transform="translate(-321.681 -200.058)" fill="#263238"/>
        <path id="Path_108108" data-name="Path 108108" d="M518.852,358.417c0,.183-3.111.323-6.949.323s-6.943-.14-6.943-.323,3.111-.317,6.943-.317S518.852,358.24,518.852,358.417Z" transform="translate(-333.559 -200.058)" fill="#263238"/>
        <path id="Path_108109" data-name="Path 108109" d="M545.8,358.417c0,.183-3.111.323-6.943.323s-6.949-.14-6.949-.323,3.112-.317,6.949-.317S545.8,358.24,545.8,358.417Z" transform="translate(-345.437 -200.058)" fill="#263238"/>
        <path id="Path_108110" data-name="Path 108110" d="M572.752,358.417c0,.183-3.111.323-6.943.323s-6.949-.14-6.949-.323,3.111-.317,6.949-.317S572.752,358.24,572.752,358.417Z" transform="translate(-357.315 -200.058)" fill="#263238"/>
        <path id="Path_108111" data-name="Path 108111" d="M597.822,358.427c0,.183-3.111.323-6.949.323s-6.943-.14-6.943-.323,3.111-.317,6.943-.317S597.822,358.25,597.822,358.427Z" transform="translate(-368.365 -200.063)" fill="#263238"/>
        <path id="Path_108112" data-name="Path 108112" d="M622.892,358.437c0,.177-3.111.323-6.949.323s-6.943-.146-6.943-.323,3.105-.317,6.943-.317S622.892,358.26,622.892,358.437Z" transform="translate(-381.91 -200.067)" fill="#263238"/>
        <path id="Path_108113" data-name="Path 108113" d="M647.952,358.443c0,.177-3.111.323-6.943.323s-6.949-.147-6.949-.323,3.111-.323,6.949-.323S647.952,358.266,647.952,358.443Z" transform="translate(-391.682 -200.068)" fill="#263238"/>
        <path id="Path_108114" data-name="Path 108114" d="M431.035,259.932c0-.134.964.2,1.269,1.513a3.221,3.221,0,0,1-.244,2.257,1.952,1.952,0,0,1-1.141.964,2.1,2.1,0,0,1-1.592-.189,2.666,2.666,0,0,1-1.361-2.5,2.794,2.794,0,0,1,1.092-2.019,1.788,1.788,0,0,1,1.495-.366c.366.11.488.287.464.323a1.746,1.746,0,0,0-1.562.519,2.3,2.3,0,0,0-.683,1.574,1.94,1.94,0,0,0,.97,1.7,1.159,1.159,0,0,0,1.623-.415,2.855,2.855,0,0,0,.329-1.739A3.807,3.807,0,0,0,431.035,259.932Z" transform="translate(-299.242 -155.166)" fill="#263238"/>
        <path id="Path_108115" data-name="Path 108115" d="M600.16,212.819c0-.049.25-.128.683,0a2.635,2.635,0,0,1,1.4,1.22,3.471,3.471,0,0,1,.342,2.745,2.886,2.886,0,0,1-2.678,2.141,2.282,2.282,0,0,1-1.7-.885,3.661,3.661,0,0,1-.72-1.525,3.477,3.477,0,0,1,.439-2.727c.964-1.36,2.154-1.293,2.111-1.22.055.128-.94.317-1.58,1.507a3.05,3.05,0,0,0-.189,2.215c.208.805.83,1.727,1.672,1.733a2.153,2.153,0,0,0,1.885-1.519,3,3,0,0,0-.128-2.2A3.16,3.16,0,0,0,600.16,212.819Z" transform="translate(-381.688 -133.618)" fill="#263238"/>
        <rect id="Rectangle_26928" data-name="Rectangle 26928" width="157.165" height="122.316" transform="translate(0.122 0.207)" fill="#fff"/>
        <path id="Path_108116" data-name="Path 108116" d="M355.767,188.994c0-1.22-.055-48.5-.146-122.316l.146.146H198.62l.177-.177V188.963l-.159-.159,157.165.159-157.165.159h-.159V66.47H355.968v.146C355.828,140.492,355.773,187.774,355.767,188.994Z" transform="translate(-198.48 -66.47)" fill="#263238"/>
        <rect id="Rectangle_26929" data-name="Rectangle 26929" width="25.441" height="1.415" transform="translate(7.791 16.277)" fill="#263238"/>
        <rect id="Rectangle_26930" data-name="Rectangle 26930" width="12.574" height="1.415" transform="translate(7.791 19.59)" fill="#263238"/>
        <rect id="Rectangle_26931" data-name="Rectangle 26931" width="4.606" height="1.33" transform="translate(22.293 93.189)" fill="#263238"/>
        <rect id="Rectangle_26932" data-name="Rectangle 26932" width="5.893" height="1.33" transform="translate(32.719 99.495)" fill="#263238"/>
        <rect id="Rectangle_26933" data-name="Rectangle 26933" width="5.893" height="1.33" transform="translate(48.924 99.495)" fill="#263238"/>
        <rect id="Rectangle_26934" data-name="Rectangle 26934" width="5.893" height="1.33" transform="translate(67.779 99.495)" fill="#263238"/>
        <rect id="Rectangle_26935" data-name="Rectangle 26935" width="5.893" height="1.33" transform="translate(86.634 99.495)" fill="#263238"/>
        <rect id="Rectangle_26936" data-name="Rectangle 26936" width="5.893" height="1.33" transform="translate(105.489 99.495)" fill="#263238"/>
        <rect id="Rectangle_26937" data-name="Rectangle 26937" width="5.893" height="1.33" transform="translate(124.345 99.495)" fill="#263238"/>
        <rect id="Rectangle_26938" data-name="Rectangle 26938" width="4.606" height="1.33" transform="translate(22.293 77.441)" fill="#263238"/>
        <rect id="Rectangle_26939" data-name="Rectangle 26939" width="4.606" height="1.33" transform="translate(22.293 47.797)" fill="#263238"/>
        <rect id="Rectangle_26940" data-name="Rectangle 26940" width="4.606" height="1.33" transform="translate(22.293 37.051)" fill="#263238"/>
        <rect id="Rectangle_26941" data-name="Rectangle 26941" width="4.606" height="1.33" transform="translate(22.531 62.619)" fill="#263238"/>
        <path id="Path_108117" data-name="Path 108117" d="M358.144,189.736H356.2l-5.576.03-20.505.055-67.665.043H246.26v-.159c0-22.628.043-42.541.055-56.805,0-7.126.037-12.812.049-16.777v0c0,3.941,0,9.652.049,16.777,0,14.264.03,34.165.055,56.805l-.159-.159h16.143l67.665.049,20.505.049,5.576.031h1.452Z" transform="translate(-217.11 -83.459)" fill="#263238"/>
        <path id="Path_108118" data-name="Path 108118" d="M362.376,183.049c0,.085-24.306.159-54.3.159s-54.3-.073-54.3-.159,24.3-.159,54.3-.159S362.376,182.957,362.376,183.049Z" transform="translate(-220.042 -119.789)" fill="#263238"/>
        <path id="Path_108119" data-name="Path 108119" d="M362.376,155.689c0,.085-24.306.159-54.3.159s-54.3-.073-54.3-.159,24.3-.159,54.3-.159S362.376,155.6,362.376,155.689Z" transform="translate(-220.042 -107.258)" fill="#263238"/>
        <path id="Path_108120" data-name="Path 108120" d="M362.376,128.189c0,.092-24.306.159-54.3.159s-54.3-.067-54.3-.159,24.3-.159,54.3-.159S362.376,128.1,362.376,128.189Z" transform="translate(-220.042 -90.473)" fill="#263238"/>
        <path id="Path_108121" data-name="Path 108121" d="M362.376,210.409c0,.085-24.306.159-54.3.159s-54.3-.073-54.3-.159,24.3-.159,54.3-.159S362.376,210.323,362.376,210.409Z" transform="translate(-220.042 -132.319)" fill="#263238"/>
        <path id="Path_108122" data-name="Path 108122" d="M255.66,186.949V172.143l9.231-14.343,6.266,4.807,12.854-19.968,7.583,5.338,10.548-18.425,8.541,6.985,12.9-24.428,13.849,27.314L348.6,125.758l13.184-3.776v64.968Z" transform="translate(-220.775 -84.266)" fill="#455a64"/>
        <path id="Path_108123" data-name="Path 108123" d="M363.124,119.615a1.7,1.7,0,0,1-.232,0h-3.362l-10.121.043.067-.037-10.847,14.227-.043.049h-27.21l.134-.073-11.415,19c-3.886,6.467-7.651,12.72-11.207,18.626l-.116.2-.134-.189-14.715-20.212h.214l-13.373,20.914-3.728,5.784c-.427.659-.757,1.165-.988,1.513s-.348.512-.348.512.1-.183.317-.531l.952-1.531c.848-1.348,2.086-3.319,3.661-5.826l13.3-20.969.1-.159.116.153L288.895,171.3h-.256l11.171-18.62,11.427-19,.043-.073h.122l27.149.031-.1.049,10.914-14.117v-.037h.043l10.121.043h3.362Z" transform="translate(-220.791 -86.145)" fill="#263238"/>
        <path id="Path_108124" data-name="Path 108124" d="M291.667,178.55a1.043,1.043,0,1,1-1.043-1,1.025,1.025,0,0,1,1.043,1Z" transform="translate(-230.802 -117.397)" fill="#263238"/>
        <path id="Path_108125" data-name="Path 108125" d="M343.027,149.36a1.043,1.043,0,1,1-1.037-1A1.019,1.019,0,0,1,343.027,149.36Z" transform="translate(-260.976 -104.015)" fill="#263238"/>
        <ellipse id="Ellipse_4249" data-name="Ellipse 4249" cx="1.043" cy="1.001" rx="1.043" ry="1.001" transform="translate(102.366 44.606)" fill="#263238"/>
        <path id="Path_108126" data-name="Path 108126" d="M207.89,74.28a1.22,1.22,0,1,1-1.22-1.22A1.22,1.22,0,0,1,207.89,74.28Z" transform="translate(-201.198 -69.04)" fill="#263238"/>
        <path id="Path_108127" data-name="Path 108127" d="M213.65,74.28a1.22,1.22,0,1,1-1.22-1.22A1.22,1.22,0,0,1,213.65,74.28Z" transform="translate(-203.444 -69.04)" fill="#263238"/>
        <path id="Path_108128" data-name="Path 108128" d="M219.44,74.28a1.22,1.22,0,1,1-1.22-1.22A1.22,1.22,0,0,1,219.44,74.28Z" transform="translate(-205.701 -69.04)" fill="#263238"/>
        <path id="Path_108129" data-name="Path 108129" d="M355.841,82.769c0,.085-35.117.159-78.427.159S199,82.848,199,82.769s35.11-.159,78.433-.159S355.841,82.677,355.841,82.769Z" transform="translate(-198.683 -72.763)" fill="#263238"/>
      </g>
      <g id="freepik--Character--inject-122" transform="translate(31.301 42.082)">
        <path id="Path_108144" data-name="Path 108144" d="M245.221,462.37l-1.049,4.417s-7.23,9.389-9.456,8.925c-1.464-.3.336-2.745,3.05-9.877l.61-2.941Z" transform="translate(-233.05 -271.295)" fill="#455a64"/>
        <path id="Path_108145" data-name="Path 108145" d="M234.568,476.5a.891.891,0,0,0,.384.372,1.342,1.342,0,0,0,1.385-.2,41.4,41.4,0,0,0,3.593-3.4c1.336-1.4,2.44-2.758,3.252-3.752l.921-1.19c.091-.116.177-.22.25-.323a.742.742,0,0,1,.1-.11.742.742,0,0,1-.1.11l-.232.342c-.2.293-.506.708-.891,1.22A46.062,46.062,0,0,1,240,473.354a35.619,35.619,0,0,1-3.661,3.4,1.677,1.677,0,0,1-.818.3,1.219,1.219,0,0,1-.641-.14.769.769,0,0,1-.305-.281.408.408,0,0,1-.006-.128Z" transform="translate(-233.196 -273.451)" fill="#263238"/>
        <path id="Path_108146" data-name="Path 108146" d="M236.24,476.948a1.146,1.146,0,0,1,.61-.067,3.1,3.1,0,0,1,1.36.47,2.483,2.483,0,0,1,.988,1.049,1.269,1.269,0,0,1,.159.58,3.291,3.291,0,0,0-.238-.537,2.649,2.649,0,0,0-.976-.976,3.37,3.37,0,0,0-1.306-.494A5.717,5.717,0,0,0,236.24,476.948Z" transform="translate(-233.848 -276.947)" fill="#263238"/>
        <path id="Path_108147" data-name="Path 108147" d="M247.289,470.58a.659.659,0,0,1-.091-.214,4.777,4.777,0,0,1-.14-.61,3.324,3.324,0,0,1,.335-2.013,3.129,3.129,0,0,1,1.464-1.415,2.114,2.114,0,0,1,.61-.183.7.7,0,0,1,.226,0,4.887,4.887,0,0,0-.787.281,3.2,3.2,0,0,0-1.385,1.4,3.459,3.459,0,0,0-.36,1.94C247.21,470.262,247.307,470.573,247.289,470.58Z" transform="translate(-238.052 -272.763)" fill="#263238"/>
        <path id="Path_108148" data-name="Path 108148" d="M251.107,463.6s-.134.61-.268,1.409a4.838,4.838,0,0,1-.378,1.391s.116-.61.25-1.415a4.575,4.575,0,0,1,.4-1.385Z" transform="translate(-239.393 -271.775)" fill="#263238"/>
        <path id="Path_108149" data-name="Path 108149" d="M239.89,469.03a1.733,1.733,0,0,1,.927,0,1.623,1.623,0,0,1,.836.4c0,.037-.378-.159-.866-.268S239.9,469.072,239.89,469.03Z" transform="translate(-235.272 -273.867)" fill="#263238"/>
        <path id="Path_108150" data-name="Path 108150" d="M239.65,470.267a1.165,1.165,0,0,1,.781,0,1.1,1.1,0,0,1,.683.378c0,.03-.311-.159-.714-.25S239.656,470.31,239.65,470.267Z" transform="translate(-235.178 -274.348)" fill="#263238"/>
        <path id="Path_108151" data-name="Path 108151" d="M238.7,471.776a1,1,0,0,1,.811-.1.97.97,0,0,1,.683.445,3.13,3.13,0,0,0-.714-.317,3.186,3.186,0,0,0-.781-.024Z" transform="translate(-234.808 -274.905)" fill="#263238"/>
        <path id="Path_108152" data-name="Path 108152" d="M240.71,467.387a8.535,8.535,0,0,0,.848-.287,6.93,6.93,0,0,0,.872-.421c.152-.092.317-.2.476-.3a.591.591,0,0,0,.3-.439c-.006-.171-.22-.269-.384-.226a1.049,1.049,0,0,0-.445.3c-.268.25-.494.488-.677.7a6.07,6.07,0,0,1-.61.677.885.885,0,0,1,.122-.207c.085-.128.22-.311.4-.531a9.43,9.43,0,0,1,.665-.72,1.135,1.135,0,0,1,.5-.336.421.421,0,0,1,.543.342.726.726,0,0,1-.354.549,4.985,4.985,0,0,1-.5.3,5.474,5.474,0,0,1-.9.4,4.88,4.88,0,0,1-.641.177C240.8,467.394,240.71,467.4,240.71,467.387Z" transform="translate(-235.591 -272.542)" fill="#263238"/>
        <path id="Path_108153" data-name="Path 108153" d="M240.489,466.89a7.933,7.933,0,0,1-.134-.805,3.482,3.482,0,0,0-.244-.836,1.828,1.828,0,0,0-.268-.427c-.11-.122-.281-.232-.415-.152s-.153.281-.134.445a2.094,2.094,0,0,0,.14.482,2.929,2.929,0,0,0,.47.726,6.093,6.093,0,0,0,.61.567c0,.018-.073,0-.189-.11a3.333,3.333,0,0,1-.464-.39,2.791,2.791,0,0,1-.512-.744,2.24,2.24,0,0,1-.159-.519.549.549,0,0,1,.2-.567.476.476,0,0,1,.567.177,1.875,1.875,0,0,1,.287.464,3.232,3.232,0,0,1,.226.872c.031.25.043.458.049.61A.776.776,0,0,1,240.489,466.89Z" transform="translate(-234.993 -272.136)" fill="#263238"/>
        <path id="Path_108154" data-name="Path 108154" d="M301.884,461.878l.031-5.893L290.9,455.85l-.153,8.633.683.055c3.05.207,15.49.83,17.534.238C311.249,464.1,301.884,461.878,301.884,461.878Z" transform="translate(-255.103 -268.753)" fill="#455a64"/>
        <path id="Path_108155" data-name="Path 108155" d="M290.5,469.57h.189l.549.043,2,.11c1.7.085,4.039.165,6.626.2s4.93,0,6.626,0l2.007-.055h-8.627c-2.587,0-4.923-.1-6.619-.159l-2.007-.073H290.7Z" transform="translate(-255.005 -274.103)" fill="#263238"/>
        <path id="Path_108156" data-name="Path 108156" d="M314.865,469.278a4.878,4.878,0,0,1,.384-.952,4.68,4.68,0,0,1,.7-.756,1.451,1.451,0,0,0-.805.683A1.476,1.476,0,0,0,314.865,469.278Z" transform="translate(-264.502 -273.323)" fill="#263238"/>
        <path id="Path_108157" data-name="Path 108157" d="M309.565,467.014a1.424,1.424,0,0,0,.348-.421c.159-.25.275-.47.244-.494s-.189.171-.354.421S309.529,466.989,309.565,467.014Z" transform="translate(-262.436 -272.748)" fill="#263238"/>
        <path id="Path_108158" data-name="Path 108158" d="M308.108,466.407c0,.03.2-.085.391-.25s.329-.33.305-.36-.2.091-.391.256S308.084,466.383,308.108,466.407Z" transform="translate(-261.87 -272.63)" fill="#263238"/>
        <path id="Path_108159" data-name="Path 108159" d="M307.21,465.041a1.317,1.317,0,0,0,.573.086,1.35,1.35,0,0,0,.61-.055,1.306,1.306,0,0,0-.61-.079A1.346,1.346,0,0,0,307.21,465.041Z" transform="translate(-261.521 -272.313)" fill="#263238"/>
        <path id="Path_108160" data-name="Path 108160" d="M306.9,463.88a1.221,1.221,0,0,0,.641.2,1.1,1.1,0,0,0,.665-.085,3.766,3.766,0,0,0-.634-.037A3.459,3.459,0,0,0,306.9,463.88Z" transform="translate(-261.4 -271.884)" fill="#263238"/>
        <path id="Path_108161" data-name="Path 108161" d="M310.2,465.38a2.155,2.155,0,0,0,.708,0,3.654,3.654,0,0,0,.756-.152,1.96,1.96,0,0,0,.433-.177.378.378,0,0,0,.183-.214.281.281,0,0,0-.1-.287,1.306,1.306,0,0,0-1.617.36,1.255,1.255,0,0,0-.238.47.38.38,0,0,0,0,.189,1.983,1.983,0,0,1,.329-.61,1.281,1.281,0,0,1,.61-.384,1.08,1.08,0,0,1,.848.067c.11.085.067.214-.061.287a1.823,1.823,0,0,1-.4.165,4.736,4.736,0,0,1-.732.183A3.5,3.5,0,0,1,310.2,465.38Z" transform="translate(-262.686 -272.09)" fill="#263238"/>
        <path id="Path_108162" data-name="Path 108162" d="M309.9,465.2a.689.689,0,0,0,.085-.494,1.134,1.134,0,0,0-.183-.519.72.72,0,0,0-.61-.372.293.293,0,0,0-.226.329.819.819,0,0,0,.116.317,2.175,2.175,0,0,0,.329.433,1.062,1.062,0,0,0,.4.293,3.691,3.691,0,0,1-.329-.36,2.255,2.255,0,0,1-.293-.427c-.1-.152-.159-.421,0-.451s.36.165.464.3a1.183,1.183,0,0,1,.2.464A2.985,2.985,0,0,1,309.9,465.2Z" transform="translate(-262.205 -271.861)" fill="#263238"/>
        <path id="Path_108163" data-name="Path 108163" d="M290.94,464.568s.311,0,.811.037a3.459,3.459,0,0,1,2.861,2.343c.165.476.177.793.2.793a.711.711,0,0,0,0-.226,2.615,2.615,0,0,0-.11-.61,3.349,3.349,0,0,0-2.941-2.4,3.234,3.234,0,0,0-.61,0A.607.607,0,0,0,290.94,464.568Z" transform="translate(-255.177 -272.12)" fill="#263238"/>
        <path id="Path_108164" data-name="Path 108164" d="M292.807,457.12a18.411,18.411,0,0,0-.128,2.263,19.3,19.3,0,0,0,0,2.27,19.425,19.425,0,0,0,.122-2.27A20.094,20.094,0,0,0,292.807,457.12Z" transform="translate(-255.842 -269.248)" fill="#263238"/>
        <path id="Path_108165" data-name="Path 108165" d="M299.61,468.184a6.569,6.569,0,0,0,1.611.177,5.964,5.964,0,0,0,1.617-.11c0-.037-.726,0-1.611,0S299.616,468.141,299.61,468.184Z" transform="translate(-258.557 -273.558)" fill="#263238"/>
        <path id="Path_108166" data-name="Path 108166" d="M296.066,468.136c-.03,0,.055.153.128.317s.11.311.146.311.061-.171,0-.366S296.09,468.106,296.066,468.136Z" transform="translate(-257.173 -273.541)" fill="#263238"/>
        <path id="Path_108167" data-name="Path 108167" d="M294.75,466.456a.689.689,0,0,0,.159.256c.116.116.226.189.25.165s-.043-.14-.153-.256S294.78,466.425,294.75,466.456Z" transform="translate(-256.662 -272.886)" fill="#263238"/>
        <path id="Path_108168" data-name="Path 108168" d="M292.85,465.63c0,.037.152.037.317.1s.275.146.305.122-.061-.177-.262-.25S292.837,465.6,292.85,465.63Z" transform="translate(-255.921 -272.542)" fill="#263238"/>
        <path id="Path_108169" data-name="Path 108169" d="M291.49,465.282c0,.03.049.091.14.128s.177.037.189,0-.049-.092-.134-.128S291.508,465.246,291.49,465.282Z" transform="translate(-255.391 -272.42)" fill="#263238"/>
        <path id="Path_108170" data-name="Path 108170" d="M286.563,280.76l-4.234,110.615-17.192.36,2.855-95.839-19.327,96.571H232.32l21.054-111.481Z" transform="translate(-232.32 -200.483)" fill="#263238"/>
        <path id="Path_108171" data-name="Path 108171" d="M294.566,287.36a10.856,10.856,0,0,1-.2,1.83c-.159,1.116-.4,2.666-.689,4.362a18.778,18.778,0,0,1-.488,2.4,3.428,3.428,0,0,1-1.123,1.69,2.636,2.636,0,0,1-1.251.555,1.006,1.006,0,0,1-.5,0,3.277,3.277,0,0,0,1.611-.714,3.331,3.331,0,0,0,.995-1.611,21.5,21.5,0,0,0,.457-2.367c.287-1.7.561-3.24.775-4.35a11.591,11.591,0,0,1,.409-1.8Z" transform="translate(-254.935 -203.056)" fill="#455a64"/>
        <path id="Path_108172" data-name="Path 108172" d="M291.28,288.038a1,1,0,0,0,0,.494.61.61,0,0,0,.287.372.519.519,0,0,0,.677-.61.568.568,0,0,0-.329-.329c-.281-.122-.476,0-.494-.043s.159-.25.561-.165a.775.775,0,0,1,.525.439.783.783,0,0,1-1.074.946.769.769,0,0,1-.366-.58C291.024,288.16,291.268,288,291.28,288.038Z" transform="translate(-255.224 -203.203)" fill="#455a64"/>
        <path id="Path_108173" data-name="Path 108173" d="M276.138,288.87a3.239,3.239,0,0,1,.329-3.05c.079.037-.171.689-.25,1.525A13.59,13.59,0,0,1,276.138,288.87Z" transform="translate(-249.312 -202.456)" fill="#455a64"/>
        <path id="Path_108174" data-name="Path 108174" d="M279.5,288.553a2.666,2.666,0,0,1-.25-1.623,2.733,2.733,0,0,1,.476-1.58c.079,0-.116.726-.171,1.6A15.236,15.236,0,0,1,279.5,288.553Z" transform="translate(-250.605 -202.273)" fill="#455a64"/>
        <path id="Path_108175" data-name="Path 108175" d="M308.8,289.215a9.412,9.412,0,0,1,.1-1.659,10.251,10.251,0,0,1,.073-1.666,3.1,3.1,0,0,1,.226,1.678A3.154,3.154,0,0,1,308.8,289.215Z" transform="translate(-262.138 -202.483)" fill="#455a64"/>
        <path id="Path_108176" data-name="Path 108176" d="M312.469,288.972c-.085-.037.183-.763.244-1.69s-.1-1.678,0-1.7a3.588,3.588,0,0,1-.232,3.392Z" transform="translate(-263.565 -202.362)" fill="#455a64"/>
        <path id="Path_108177" data-name="Path 108177" d="M280.889,187.569l10.616-.848c.067-1.22,0-6.028,0-6.028s4.417-.689,4.472-5.1-.714-14.551-.714-14.551h0a15.344,15.344,0,0,0-15.46,1.922l-.653.506Z" transform="translate(-250.58 -153.31)" fill="#ffbe9d"/>
        <path id="Path_108178" data-name="Path 108178" d="M295.663,192.955a10.213,10.213,0,0,1-5.753-1.635s1.36,3.179,5.765,2.782Z" transform="translate(-254.775 -165.609)" fill="#eb996e"/>
        <path id="Path_108179" data-name="Path 108179" d="M301.863,172.826a.61.61,0,1,1-.209-.419.61.61,0,0,1,.209.419Z" transform="translate(-258.943 -158.177)" fill="#263238"/>
        <path id="Path_108180" data-name="Path 108180" d="M302.527,171.575c-.079.079-.555-.275-1.22-.275s-1.177.342-1.251.262.043-.189.262-.348a1.769,1.769,0,0,1,1-.305,1.659,1.659,0,0,1,.982.317C302.5,171.4,302.563,171.575,302.527,171.575Z" transform="translate(-258.723 -157.651)" fill="#263238"/>
        <path id="Path_108181" data-name="Path 108181" d="M290.633,173.086a.61.61,0,1,1-.209-.419.61.61,0,0,1,.209.419Z" transform="translate(-254.565 -158.278)" fill="#263238"/>
        <path id="Path_108182" data-name="Path 108182" d="M291.6,171.809c-.079.085-.555-.268-1.22-.268s-1.177.342-1.251.256.043-.183.262-.342a1.678,1.678,0,0,1,1-.305,1.659,1.659,0,0,1,.982.317C291.566,171.626,291.64,171.772,291.6,171.809Z" transform="translate(-254.461 -157.745)" fill="#263238"/>
        <path id="Path_108183" data-name="Path 108183" d="M297.031,176.869a4.669,4.669,0,0,1,1.1-.2c.177,0,.342-.049.366-.171a.861.861,0,0,0-.116-.513q-.238-.61-.513-1.318a22.63,22.63,0,0,1-1.147-3.447,23.013,23.013,0,0,1,1.428,3.349c.171.458.329.9.488,1.324a1.006,1.006,0,0,1,.085.683.439.439,0,0,1-.287.256,1.092,1.092,0,0,1-.293.043,4.476,4.476,0,0,1-1.11-.006Z" transform="translate(-257.43 -157.772)" fill="#263238"/>
        <path id="Path_108184" data-name="Path 108184" d="M293.909,181.25c.11,0,.11.726.738,1.251s1.415.445,1.422.543-.177.146-.506.153a1.83,1.83,0,0,1-1.184-.409,1.641,1.641,0,0,1-.61-1.055C293.75,181.427,293.829,181.244,293.909,181.25Z" transform="translate(-256.278 -161.683)" fill="#263238"/>
        <path id="Path_108185" data-name="Path 108185" d="M291.5,167.553c-.067.183-.744.091-1.537.189s-1.44.317-1.55.146c-.043-.079.067-.25.323-.427a2.7,2.7,0,0,1,2.355-.262C291.385,167.315,291.532,167.462,291.5,167.553Z" transform="translate(-254.188 -156.143)" fill="#263238"/>
        <path id="Path_108186" data-name="Path 108186" d="M302.217,168.368c-.116.153-.61,0-1.147,0s-1.037.1-1.147-.061,0-.232.238-.378a1.562,1.562,0,0,1,.933-.25,1.629,1.629,0,0,1,.915.305C302.2,168.13,302.272,168.289,302.217,168.368Z" transform="translate(-258.663 -156.39)" fill="#263238"/>
        <path id="Path_108187" data-name="Path 108187" d="M278.122,173.252c-.073-.03-3.05-.9-2.935,2.123a2.275,2.275,0,0,0,3.112,2.215C278.306,177.5,278.122,173.252,278.122,173.252Z" transform="translate(-249.033 -158.511)" fill="#ffbe9d"/>
        <path id="Path_108188" data-name="Path 108188" d="M277.882,177.089a.963.963,0,0,1-.134.079.524.524,0,0,1-.4,0,1.3,1.3,0,0,1-.61-1.147,1.72,1.72,0,0,1,.122-.763.61.61,0,0,1,.378-.415.275.275,0,0,1,.317.134c.043.085,0,.146.043.153s.061-.055.037-.177a.36.36,0,0,0-.128-.189.421.421,0,0,0-.293-.067.732.732,0,0,0-.531.488,1.743,1.743,0,0,0-.159.848,1.354,1.354,0,0,0,.811,1.275.561.561,0,0,0,.476-.092C277.882,177.162,277.894,177.1,277.882,177.089Z" transform="translate(-249.556 -159.126)" fill="#eb996e"/>
        <path id="Path_108189" data-name="Path 108189" d="M294.732,153.1a4.667,4.667,0,0,0-7.248-1.4,4.57,4.57,0,0,0-7.51-.976c-.848.964-1.287,2.263-2.276,3.05-.86.7-2.019.933-2.886,1.623A3.331,3.331,0,0,0,276,161.2a3.581,3.581,0,0,0,1.763,4.881l.439-.183a6.284,6.284,0,0,0,.915-6.931,1.369,1.369,0,0,0,.159,0,3.514,3.514,0,0,0,4.588-1.049,3.911,3.911,0,0,0,4.21.177,1.61,1.61,0,0,1,.61-.287,1.5,1.5,0,0,1,.787.238,3.709,3.709,0,0,0,2.141.427,2.05,2.05,0,0,0,1.6-1.147h.055a2.367,2.367,0,0,0,1.763-1.708,3.508,3.508,0,0,0-.3-2.526Z" transform="translate(-248.402 -149.177)" fill="#263238"/>
        <path id="Path_108190" data-name="Path 108190" d="M291.408,223.849l.39-19.889c-3.532-3.471-5.418-4.509-10.335-5.088l-1.336-.153-.421-3.276-12.055-.683.61,3.892h0a29.217,29.217,0,0,0-4.679.9c-4.685.9-8.059,4.307-8.993,7.461-.775,2.593-5.723,21.817-5.723,21.817l-1.007,5.8,11.067-4.014v19.529h33.555C292.6,246.483,291.408,223.849,291.408,223.849Z" transform="translate(-238.379 -166.951)" fill="#fd9827"/>
        <g id="Group_59710" data-name="Group 59710" transform="translate(9.481 27.809)" opacity="0.2">
          <path id="Path_108191" data-name="Path 108191" d="M291.408,223.849l.39-19.889c-3.532-3.471-5.418-4.509-10.335-5.088l-1.336-.153-.421-3.276-12.055-.683.61,3.892h0a29.217,29.217,0,0,0-4.679.9c-4.685.9-8.059,4.307-8.993,7.461-.775,2.593-5.723,21.817-5.723,21.817l-1.007,5.8,11.067-4.014v19.529h33.555C292.6,246.483,291.408,223.849,291.408,223.849Z" transform="translate(-247.86 -194.76)"/>
        </g>
        <path id="Path_108192" data-name="Path 108192" d="M252.884,249.549l16.552-2.349,3.148,5.637L257.2,259.774a6.711,6.711,0,0,1-2.733.61h0a6.644,6.644,0,0,1-6.144-4.155l-.5-1.22Z" transform="translate(-238.364 -187.398)" fill="#fd9827"/>
        <g id="Group_59711" data-name="Group 59711" transform="translate(9.456 59.802)" opacity="0.2">
          <path id="Path_108193" data-name="Path 108193" d="M252.884,249.549l16.552-2.349,3.148,5.637L257.2,259.774a6.711,6.711,0,0,1-2.733.61h0a6.644,6.644,0,0,1-6.144-4.155l-.5-1.22Z" transform="translate(-247.82 -247.2)"/>
        </g>
        <path id="Path_108194" data-name="Path 108194" d="M309.934,203.49a12.2,12.2,0,0,1,6.644,6.1c1.281,2.941,3.166,17.082,3.166,17.082l2.373,4.582a7.694,7.694,0,0,1,.866,3.557v.7a7.718,7.718,0,0,1-1.733,4.881h0a7.718,7.718,0,0,1-5.308,2.819c-2.373.214-5.241.305-5.851-.39a29.03,29.03,0,0,1-2.7-4.557L314.3,234.6l-2.977-5.491Z" transform="translate(-261.591 -170.355)" fill="#fd9827"/>
        <g id="Group_59712" data-name="Group 59712" transform="translate(45.799 33.135)" opacity="0.2">
          <path id="Path_108195" data-name="Path 108195" d="M309.934,203.49a12.2,12.2,0,0,1,6.644,6.1c1.281,2.941,3.166,17.082,3.166,17.082l2.373,4.582a7.694,7.694,0,0,1,.866,3.557v.7a7.718,7.718,0,0,1-1.733,4.881h0a7.718,7.718,0,0,1-5.308,2.819c-2.373.214-5.241.305-5.851-.39a29.03,29.03,0,0,1-2.7-4.557L314.3,234.6l-2.977-5.491Z" transform="translate(-307.39 -203.49)"/>
        </g>
        <path id="Path_108196" data-name="Path 108196" d="M261.274,259.2a2.218,2.218,0,0,1,.269-.152l.793-.384,2.971-1.391,10.14-4.631-.067.214-1.94-3.478-1.22-2.16.146.073-12.129,1.19-3.6.323-.976.073a1.117,1.117,0,0,1-.342,0,1.947,1.947,0,0,1,.336-.061l.97-.122,3.593-.415L272.348,247h.1l.049.085,1.22,2.16,1.934,3.478.079.14-.146.067L265.4,257.463l-3.008,1.306-.818.342A1.667,1.667,0,0,1,261.274,259.2Z" transform="translate(-241.288 -187.32)" fill="#263238"/>
        <path id="Path_108197" data-name="Path 108197" d="M269.8,239.924c-.085,0-.152-2.959-.152-6.607s.067-6.607.152-6.607.153,2.959.153,6.607S269.864,239.924,269.8,239.924Z" transform="translate(-246.875 -179.408)" fill="#263238"/>
        <path id="Path_108198" data-name="Path 108198" d="M314.023,255.556a2.5,2.5,0,0,1,.5-.079,4.686,4.686,0,0,1,1.4.079,1.648,1.648,0,0,1,.872.5,2.215,2.215,0,0,1,.458,1.049,2.441,2.441,0,0,1-.11,1.263,2.355,2.355,0,0,1-.836,1.074,6.224,6.224,0,0,1-2.4.854,11.046,11.046,0,0,1-2.056.2,3.71,3.71,0,0,1-1.861-.323,9.952,9.952,0,0,0,1.861.11,12.2,12.2,0,0,0,2-.262,6.187,6.187,0,0,0,2.276-.824,2.093,2.093,0,0,0,.848-2.044,2.063,2.063,0,0,0-.372-.94,1.5,1.5,0,0,0-.738-.452,5.712,5.712,0,0,0-1.342-.171A2.176,2.176,0,0,1,314.023,255.556Z" transform="translate(-262.605 -190.617)" fill="#263238"/>
        <path id="Path_108199" data-name="Path 108199" d="M316.749,266.679a3.448,3.448,0,0,1-1.22.14,7.5,7.5,0,0,1-2.861-.47,6.161,6.161,0,0,1-1.421-.763,3.333,3.333,0,0,1-.879-.988,2.618,2.618,0,0,1-.427-1.129c.049,0,.207.415.61,1.013a3.571,3.571,0,0,0,.866.885,6.5,6.5,0,0,0,1.367.7,8.711,8.711,0,0,0,2.752.543A8.544,8.544,0,0,1,316.749,266.679Z" transform="translate(-262.585 -193.742)" fill="#263238"/>
        <path id="Path_108200" data-name="Path 108200" d="M322.629,245.23a6.244,6.244,0,0,1-.818.982c-.531.58-1.281,1.373-2.123,2.233s-1.611,1.635-2.184,2.178a5.429,5.429,0,0,1-.964.842,5.288,5.288,0,0,1,.811-.988c.531-.61,1.281-1.379,2.117-2.239a28.438,28.438,0,0,1,3.16-3.008Z" transform="translate(-265.159 -186.63)" fill="#263238"/>
        <path id="Path_108201" data-name="Path 108201" d="M314.05,235.339a46.912,46.912,0,0,1,0-7.559,46.9,46.9,0,0,1,0,7.559Z" transform="translate(-264.121 -179.826)" fill="#263238"/>
        <path id="Path_108202" data-name="Path 108202" d="M296.934,207.589c0,.085-7.449.159-16.637.159s-16.637-.073-16.637-.159,7.449-.159,16.637-.159S296.934,207.5,296.934,207.589Z" transform="translate(-244.54 -171.891)" fill="#fafafa"/>
        <path id="Path_108203" data-name="Path 108203" d="M292.876,201.3a52.331,52.331,0,0,1-5.741.128,50.35,50.35,0,0,1-5.735-.2,105.9,105.9,0,0,1,11.476.067Z" transform="translate(-251.457 -169.416)" fill="#263238"/>
        <path id="Path_108204" data-name="Path 108204" d="M298.306,218.6c0,.085-9.042.159-20.2.159S257.9,218.69,257.9,218.6s9.048-.165,20.206-.165S298.306,218.513,298.306,218.6Z" transform="translate(-242.294 -176.184)" fill="#fafafa"/>
        <path id="Path_108205" data-name="Path 108205" d="M298.27,229.9c0,.092-9.761.159-21.835.159S254.6,229.99,254.6,229.9s9.761-.159,21.835-.159S298.27,229.832,298.27,229.9Z" transform="translate(-241.007 -180.59)" fill="#fafafa"/>
        <path id="Path_108206" data-name="Path 108206" d="M298.006,240.949c0,.085-10.317.159-23.043.159s-23.043-.073-23.043-.159,10.317-.159,23.043-.159S298.006,240.857,298.006,240.949Z" transform="translate(-239.962 -184.898)" fill="#fafafa"/>
        <path id="Path_108207" data-name="Path 108207" d="M299.817,258.9c0,.085-11.464.159-25.624.159s-25.624-.073-25.624-.159,11.464-.159,25.624-.159S299.817,258.8,299.817,258.9Z" transform="translate(-238.656 -191.897)" fill="#fafafa"/>
        <path id="Path_108208" data-name="Path 108208" d="M298.927,271.469c0,.085-7.565.159-16.893.159s-16.893-.073-16.893-.159,7.559-.159,16.893-.159S298.927,271.377,298.927,271.469Z" transform="translate(-245.117 -196.798)" fill="#fafafa"/>
        <path id="Path_108209" data-name="Path 108209" d="M298.253,241.531l-.36-.268a8.261,8.261,0,0,0-6.516-1.507h0a11.342,11.342,0,0,0-5.07,2.379l-2.837,2.337,3.014,5.405L288.54,247s1.916,2.6,2.257,2.324a4.4,4.4,0,0,0,.75-1.092l-1.367-1.916,3.282.683,4.789-2.19-2.056-2.6,2.056.683Z" transform="translate(-252.264 -184.437)" fill="#ffbe9d"/>
        <path id="Path_108210" data-name="Path 108210" d="M292.676,240.39,282.14,253.147l.811.872,17.095-2.605,8.48-12.757-.787-.708Z" transform="translate(-251.745 -183.791)" fill="#263238"/>
        <path id="Path_108211" data-name="Path 108211" d="M307.289,247.47h0a1.623,1.623,0,0,0-1.519,1.037,3.557,3.557,0,0,1-1.037,1.653,3.686,3.686,0,0,1-2.764.409c-.689-.336-3.453-2.825-3.935-2.55s-.9.9-.415,1.452,3.05,2.209,2.556,2.764-5.875-1.879-6.711-1.665-1.312.72-.83,1.055,4.142,1.714,4.35,2.2c0,0-5.527-1.452-5.735-1.1s-.549.9,0,1.1,5.32,1.452,5.735,1.659a10.046,10.046,0,0,0,2.129.61,22.856,22.856,0,0,1,2.227.7,4.832,4.832,0,0,0,3.435-.092l.561-.226a2.2,2.2,0,0,0,1.361-2.166l-.11-1.879.61-1.556Z" transform="translate(-255.182 -187.503)" fill="#ffbe9d"/>
        <path id="Path_108212" data-name="Path 108212" d="M309.11,239.3a1.328,1.328,0,0,1-.317.079l-.915.159-3.368.543-5,.763-2.953.445a5.674,5.674,0,0,0-2.861,1.159,18.777,18.777,0,0,0-2.08,2.4c-.653.805-1.275,1.586-1.873,2.331l-3.179,3.935-2.166,2.648-.61.708a1.418,1.418,0,0,1-.226.232,2,2,0,0,1,.177-.268l.555-.744,2.087-2.7,3.13-3.984,1.83-2.343a19,19,0,0,1,2.123-2.44,5.96,5.96,0,0,1,3.008-1.22l2.959-.427,5.015-.7,3.386-.445.921-.1A1.086,1.086,0,0,1,309.11,239.3Z" transform="translate(-252.299 -184.314)" fill="#455a64"/>
        <path id="Path_108213" data-name="Path 108213" d="M311.967,243.88a1.536,1.536,0,0,0-.476.384.494.494,0,0,0,0,.573.537.537,0,0,0,.708,0,.671.671,0,0,0,.268-.409.488.488,0,0,0-.14-.458.378.378,0,0,0-.464,0" transform="translate(-263.154 -186.103)" fill="#fafafa"/>
      </g>
      <g id="freepik--speech-bubble--inject-122" transform="translate(0 64.716)">
        <path id="Path_108214" data-name="Path 108214" d="M211.223,179.086l-3.1-5.491a14.642,14.642,0,1,0-3.5,3.9h0Z" transform="translate(-181.014 -151.275)" fill="#fd9827"/>
        <path id="Path_108215" data-name="Path 108215" d="M196.73,171.084a1.929,1.929,0,1,1,1.922,2.16A1.934,1.934,0,0,1,196.73,171.084Zm2.727,0c0-.836-.323-1.22-.805-1.22s-.805.415-.805,1.22.329,1.22.805,1.22S199.457,171.926,199.457,171.084Zm3.795-2.068h1.312l-5.271,7.827h-1.312Zm-1.269,5.759a1.927,1.927,0,1,1,1.91,2.16A1.937,1.937,0,0,1,201.983,174.775Zm2.715,0c0-.83-.323-1.22-.805-1.22s-.805.4-.805,1.22.329,1.22.805,1.22S204.7,175.6,204.7,174.775Z" transform="translate(-187.142 -158.159)" fill="#fff"/>
      </g>
      <g id="freepik--background-complete--inject-122" transform="translate(-17.421 -18)">
        <path id="Path_108074" data-name="Path 108074" d="M586.755,86.69a14.642,14.642,0,1,1-16.582-12.348A14.642,14.642,0,0,1,586.755,86.69Z" transform="translate(-286.76 -47.442)" fill="#f5f5f5"/>
        <path id="Path_108075" data-name="Path 108075" d="M585.543,89.411A11.158,11.158,0,1,1,572.9,80,11.159,11.159,0,0,1,585.543,89.411Z" transform="translate(-288.99 -49.662)" fill="#ebebeb"/>
        <path id="Path_108076" data-name="Path 108076" d="M585.368,88.792a6.7,6.7,0,0,1-.488-1.281,11.445,11.445,0,0,0-3.514-5,11.062,11.062,0,0,0-2.44-1.5,10.039,10.039,0,0,0-1.452-.543,10.983,10.983,0,0,0-1.58-.336,11.523,11.523,0,0,0-1.666-.1,12.644,12.644,0,0,0-1.714.171,11.5,11.5,0,0,0-1.666.433,10.166,10.166,0,0,0-1.537.665,10.366,10.366,0,0,0-1.367.86,9.9,9.9,0,0,0-1.178,1A11.094,11.094,0,0,0,565,85.424a11.5,11.5,0,0,0-1.031,2.288,11.952,11.952,0,0,0-.555,3.606,6.539,6.539,0,0,1,0,1.373,3.26,3.26,0,0,1-.317-1.354,10.371,10.371,0,0,1,.3-3.795,11.319,11.319,0,0,1,2.819-4.929,10.983,10.983,0,0,1,1.22-1.1,11.2,11.2,0,0,1,3.111-1.678,13.346,13.346,0,0,1,1.794-.47,12.807,12.807,0,0,1,1.83-.177,10.924,10.924,0,0,1,1.8.122,10.308,10.308,0,0,1,1.7.384,10.477,10.477,0,0,1,1.549.61,11.28,11.28,0,0,1,2.562,1.678,11.462,11.462,0,0,1,1.818,1.971,10.372,10.372,0,0,1,1.6,3.459A3.3,3.3,0,0,1,585.368,88.792Z" transform="translate(-288.87 -49.391)" fill="#e0e0e0"/>
        <path id="Path_108077" data-name="Path 108077" d="M580.671,99.543l.305,1.922-1.714.275-.3-1.867a8.267,8.267,0,0,1-4.484-.708l.61-2.239a7.01,7.01,0,0,0,3.514.683l-.458-2.861c-1.977-.159-4.2-.451-4.594-2.9-.287-1.83.781-3.581,3.435-4.326l-.3-1.9,1.708-.275.3,1.873a7.809,7.809,0,0,1,3.661.488l-.519,2.239a7.241,7.241,0,0,0-2.763-.47l.463,2.916c1.977.14,4.167.439,4.551,2.855C584.362,97.041,583.306,98.792,580.671,99.543Zm-2.928-7.321-.39-2.44c-.872.348-1.153.9-1.062,1.47s.659.879,1.452.994Zm3.606,3.661c-.092-.61-.641-.848-1.421-.988l.378,2.367c.824-.305,1.135-.805,1.043-1.354Z" transform="translate(-293.302 -52.148)" fill="#e0e0e0"/>
        <path id="Path_108078" data-name="Path 108078" d="M498.3,85.059a25.41,25.41,0,1,1-28.79-21.432A25.41,25.41,0,0,1,498.3,85.059Z" transform="translate(-253.157 -43.217)" fill="#f5f5f5"/>
        <path id="Path_108079" data-name="Path 108079" d="M496.179,89.779a19.34,19.34,0,1,1-7.6-12.719A19.364,19.364,0,0,1,496.179,89.779Z" transform="translate(-257.67 -47.071)" fill="#ebebeb"/>
        <path id="Path_108080" data-name="Path 108080" d="M495.9,88.728a12.318,12.318,0,0,1-.842-2.233A20.632,20.632,0,0,0,492,80.943a19.921,19.921,0,0,0-3.05-3.111,19.592,19.592,0,0,0-4.228-2.617,18.25,18.25,0,0,0-2.526-.933,18.021,18.021,0,0,0-2.739-.61,18.966,18.966,0,0,0-2.9-.171,18.724,18.724,0,0,0-5.869,1.043,18.227,18.227,0,0,0-2.648,1.184,18.578,18.578,0,0,0-2.373,1.489,19.152,19.152,0,0,0-2.05,1.745,19.4,19.4,0,0,0-3.05,3.917,20.129,20.129,0,0,0-1.788,3.972,20.74,20.74,0,0,0-.964,6.266,15.063,15.063,0,0,1,0,2.379,5.465,5.465,0,0,1-.555-2.349,17.933,17.933,0,0,1,.531-6.6,19.425,19.425,0,0,1,4.881-8.541,17.794,17.794,0,0,1,2.166-1.916,19.523,19.523,0,0,1,2.5-1.623,18.912,18.912,0,0,1,2.867-1.269,21.657,21.657,0,0,1,3.118-.824,21.287,21.287,0,0,1,3.209-.3,19.523,19.523,0,0,1,3.124.2,19.164,19.164,0,0,1,2.947.665,19.4,19.4,0,0,1,2.69,1.049,19.8,19.8,0,0,1,4.454,2.916,19.571,19.571,0,0,1,3.087,3.429,17.883,17.883,0,0,1,2.776,6A5.567,5.567,0,0,1,495.9,88.728Z" transform="translate(-257.531 -46.618)" fill="#e0e0e0"/>
        <path id="Path_108081" data-name="Path 108081" d="M487.716,107.4l.531,3.331-2.971.47-.518-3.24a14.018,14.018,0,0,1-7.785-1.22l1.049-3.892a12.2,12.2,0,0,0,6.1,1.22l-.8-4.966c-3.429-.275-7.291-.787-7.974-5.039-.5-3.154,1.354-6.223,5.967-7.51l-.531-3.3,2.977-.476.519,3.24a13.629,13.629,0,0,1,6.326.848l-.86,3.9a12.361,12.361,0,0,0-4.8-.824L485.757,95c3.429.244,7.23.763,7.9,4.954C494.122,103.047,492.291,106.1,487.716,107.4Zm-5.082-12.672-.671-4.222c-1.519.61-2.007,1.574-1.83,2.556s1.129,1.44,2.5,1.666Zm6.266,6.351c-.165-1.043-1.122-1.47-2.471-1.714l.659,4.106C488.527,102.913,489.052,102.034,488.9,101.083Z" transform="translate(-265.146 -52.558)" fill="#e0e0e0"/>
        <path id="Path_108082" data-name="Path 108082" d="M143.754,232.774a14.642,14.642,0,1,1-16.588-12.342A14.642,14.642,0,0,1,143.754,232.774Z" transform="translate(-104.047 10.831)" fill="#f5f5f5"/>
        <path id="Path_108083" data-name="Path 108083" d="M142.533,235.492a11.158,11.158,0,1,1-12.641-9.408A11.158,11.158,0,0,1,142.533,235.492Z" transform="translate(-106.273 8.613)" fill="#ebebeb"/>
        <path id="Path_108084" data-name="Path 108084" d="M142.358,234.889a6.472,6.472,0,0,1-.482-1.287,11.849,11.849,0,0,0-1.769-3.2,11.471,11.471,0,0,0-1.751-1.794,11.077,11.077,0,0,0-2.44-1.507,9.756,9.756,0,0,0-1.452-.537,10.074,10.074,0,0,0-1.58-.336,10.715,10.715,0,0,0-1.666-.1,11.721,11.721,0,0,0-1.714.165,10.836,10.836,0,0,0-4.57,1.958,10.53,10.53,0,0,0-1.177,1.007,11.065,11.065,0,0,0-1.769,2.251,11.668,11.668,0,0,0-1.031,2.288,11.963,11.963,0,0,0-.555,3.612,6.1,6.1,0,0,1,0,1.373,3.3,3.3,0,0,1-.317-1.354,10.372,10.372,0,0,1,.305-3.8,11.28,11.28,0,0,1,.994-2.44,11.591,11.591,0,0,1,1.83-2.44,10.367,10.367,0,0,1,1.22-1.1,11.639,11.639,0,0,1,3.111-1.672,12.365,12.365,0,0,1,1.8-.476,12.618,12.618,0,0,1,1.83-.171,11.694,11.694,0,0,1,1.83.116,10.883,10.883,0,0,1,1.7.384,11.391,11.391,0,0,1,5.893,4.271,10.371,10.371,0,0,1,1.6,3.459,3.332,3.332,0,0,1,.165,1.33Z" transform="translate(-106.153 8.862)" fill="#e0e0e0"/>
        <path id="Path_108085" data-name="Path 108085" d="M137.664,245.645l.305,1.916-1.714.275-.3-1.867a8.212,8.212,0,0,1-4.484-.683l.61-2.245a6.954,6.954,0,0,0,3.52.683l-.464-2.861c-1.971-.153-4.2-.445-4.588-2.9-.293-1.83.775-3.587,3.435-4.326l-.305-1.9,1.714-.275.3,1.867a7.791,7.791,0,0,1,3.661.488l-.519,2.245a7,7,0,0,0-2.764-.47l.464,2.91c1.977.14,4.167.439,4.551,2.855C141.355,243.137,140.3,244.888,137.664,245.645Zm-2.928-7.321-.39-2.44c-.872.354-1.153.9-1.062,1.47s.659.872,1.452.995Zm3.612,3.661c-.1-.61-.647-.842-1.428-.982l.378,2.361c.83-.3,1.135-.811,1.049-1.36Z" transform="translate(-110.237 6.471)" fill="#e0e0e0"/>
        <path id="Path_108086" data-name="Path 108086" d="M111.912,176.713a9.523,9.523,0,1,1,2.953-13.123A9.523,9.523,0,0,1,111.912,176.713Z" transform="translate(-97.286 24.707)" fill="#f5f5f5"/>
        <path id="Path_108087" data-name="Path 108087" d="M112.147,176.239a7.26,7.26,0,1,1,2.257-10.005A7.26,7.26,0,0,1,112.147,176.239Z" transform="translate(-98.735 23.021)" fill="#ebebeb"/>
        <path id="Path_108088" data-name="Path 108088" d="M114.377,175.96a6.594,6.594,0,0,1,.61-.61,7.614,7.614,0,0,0,1.434-1.9,7.137,7.137,0,0,0,.854-3.362,6.278,6.278,0,0,0-.061-1.007,6.832,6.832,0,0,0-.22-1.025,7.11,7.11,0,0,0-.384-1.019,6.956,6.956,0,0,0-1.251-1.83,6.464,6.464,0,0,0-.8-.732,6.61,6.61,0,0,0-.872-.61,6.222,6.222,0,0,0-.891-.476,7.323,7.323,0,0,0-1.83-.458,8.087,8.087,0,0,0-1.629,0,7.6,7.6,0,0,0-2.294.61,4.57,4.57,0,0,1-.824.354,3.186,3.186,0,0,1,.726-.549,6.675,6.675,0,0,1,2.337-.818,7.229,7.229,0,0,1,1.727-.067,7.322,7.322,0,0,1,1.946.439,6.792,6.792,0,0,1,.988.451,6.963,6.963,0,0,1,.946.61,7.517,7.517,0,0,1,1.623,1.733,7.865,7.865,0,0,1,.61,1.055,7.728,7.728,0,0,1,.409,1.1,7.323,7.323,0,0,1,.22,1.11,6.533,6.533,0,0,1,.049,1.086,7.4,7.4,0,0,1-.317,1.964,7.266,7.266,0,0,1-.708,1.58,6.71,6.71,0,0,1-1.635,1.867,2.215,2.215,0,0,1-.763.5Z" transform="translate(-100.769 22.974)" fill="#e0e0e0"/>
        <path id="Path_108089" data-name="Path 108089" d="M106.582,175.424l-1.062.689-.61-.946,1.031-.671a5.283,5.283,0,0,1-.775-2.849l1.489-.232a4.563,4.563,0,0,0,.525,2.276l1.58-1.031c-.427-1.22-.842-2.617.512-3.5,1-.653,2.337-.488,3.477.9l1.049-.683.61.946-1.031.671a5.125,5.125,0,0,1,.677,2.294l-1.476.287a4.607,4.607,0,0,0-.445-1.769l-1.611,1.049c.439,1.22.842,2.593-.494,3.459C109.046,176.955,107.723,176.791,106.582,175.424Zm3.563-3.661,1.342-.878c-.439-.427-.842-.445-1.153-.244s-.329.61-.189,1.116Zm-1.22,3.111c.329-.22.329-.61.207-1.11l-1.306.854c.415.4.8.445,1.1.25Z" transform="translate(-100.258 20.425)" fill="#e0e0e0"/>
        <path id="Path_108090" data-name="Path 108090" d="M530.652,47.913a9.505,9.505,0,1,1,4.2-5.949A9.524,9.524,0,0,1,530.652,47.913Z" transform="translate(-270.539 -30.347)" fill="#f5f5f5"/>
        <path id="Path_108091" data-name="Path 108091" d="M530.873,47.443a7.26,7.26,0,1,1,2.251-10A7.26,7.26,0,0,1,530.873,47.443Z" transform="translate(-271.98 -31.792)" fill="#ebebeb"/>
        <path id="Path_108092" data-name="Path 108092" d="M533.106,47.181a6.585,6.585,0,0,1,.61-.61,7.616,7.616,0,0,0,1.434-1.9,6.987,6.987,0,0,0,.61-1.513,7.386,7.386,0,0,0,.256-1.83,7.083,7.083,0,0,0-.043-1.043,6.832,6.832,0,0,0-.22-1.025,6.712,6.712,0,0,0-.384-1.019,7.38,7.38,0,0,0-.549-.976,7.531,7.531,0,0,0-.677-.872,6.52,6.52,0,0,0-.805-.738,6.228,6.228,0,0,0-.872-.61,6.915,6.915,0,0,0-.909-.439,7.06,7.06,0,0,0-1.83-.451,7.279,7.279,0,0,0-1.629,0,7.62,7.62,0,0,0-2.294.61,4.07,4.07,0,0,1-.824.354,3.185,3.185,0,0,1,.726-.549,6.675,6.675,0,0,1,2.337-.787,6.944,6.944,0,0,1,1.727-.061,7.286,7.286,0,0,1,1.946.433,6.781,6.781,0,0,1,.988.451,7.407,7.407,0,0,1,2.568,2.324,7.914,7.914,0,0,1,.61,1.055,7.7,7.7,0,0,1,.4,1.1,6.63,6.63,0,0,1,.22,1.11,6.543,6.543,0,0,1,.049,1.086,7.4,7.4,0,0,1-.317,1.964,7.273,7.273,0,0,1-.72,1.617,6.712,6.712,0,0,1-1.629,1.83,2.263,2.263,0,0,1-.781.488Z" transform="translate(-274.031 -31.652)" fill="#e0e0e0"/>
        <path id="Path_108093" data-name="Path 108093" d="M525.292,46.624l-1.062.7-.61-.946,1.031-.671a5.338,5.338,0,0,1-.8-2.855l1.489-.232a4.624,4.624,0,0,0,.524,2.276l1.58-1.031c-.427-1.22-.842-2.617.513-3.5,1-.653,2.337-.488,3.477.9l1.074-.653.61.946-1.031.671a5.136,5.136,0,0,1,.671,2.3l-1.47.281a4.657,4.657,0,0,0-.452-1.763l-1.611,1.043c.439,1.22.842,2.593-.494,3.459C527.756,48.155,526.439,47.991,525.292,46.624Zm3.563-3.661,1.342-.872c-.439-.433-.842-.451-1.153-.25s-.311.6-.189,1.116Zm-1.22,3.111c.329-.22.329-.61.208-1.1l-1.306.848a.908.908,0,0,0,1.1.281Z" transform="translate(-273.5 -34.109)" fill="#e0e0e0"/>
      </g>
    </g>
  </g>
</svg>
