<svg xmlns="http://www.w3.org/2000/svg" width="326" height="196" viewBox="0 0 326 196">
  <g id="Group_1111457" data-name="Group 1111457" transform="translate(-966.359 -4763.309)">
    <rect id="Rectangle_404586" data-name="Rectangle 404586" width="326" height="196" rx="12" transform="translate(966.359 4763.309)" fill="#e6dcfb"/>
    <g id="Vault-pana" transform="translate(997.359 4775.309)">
      <g id="freepik--background-complete--inject-201" transform="translate(88.371)">
        <path id="Path_107518" data-name="Path 107518" d="M601.44,375.868a8.843,8.843,0,0,1,6.94,5.8c1.326,3.336,4.8,9.4,7.471,8.778l6.062-5.111a21.619,21.619,0,0,1-5.081-7.866c-1.556-4.511-7.93-8.393-7.93-8.393Z" transform="translate(-478.386 -218.195)" fill="#f5f5f5"/>
        <path id="Path_107519" data-name="Path 107519" d="M623.12,383.874a3.789,3.789,0,0,1-2.1,5.33c-1.887.58-4.155-1.341-4.735-3.228a3.579,3.579,0,0,1,2.365-4.472C620.535,380.924,622.218,382.114,623.12,383.874Z" transform="translate(-485.909 -224.484)" fill="#e0e0e0"/>
        <path id="Path_107520" data-name="Path 107520" d="M622.333,388.935a1.132,1.132,0,0,0,.093-.356,1.234,1.234,0,0,0,0-.356,1.749,1.749,0,0,0-.19-.517c.449-.371.849-.717,1.161-1,.151.18.283.356.375.488.151.2.249.322.3.3s.063-.176,0-.439a3.327,3.327,0,0,0-.307-.717c.21-.215.317-.361.293-.395s-.18.039-.419.185c-.029-.044-.039-.078-.073-.127a2.11,2.11,0,0,0-.18-.18c.258-.258.4-.434.376-.488s-.249.083-.58.3a1.742,1.742,0,0,0-.307-.2,1.463,1.463,0,0,0-1.117-.078,1.361,1.361,0,0,0-.858.975,1.315,1.315,0,0,0-.029.366,1.2,1.2,0,0,0,.175.585c-.371.312-.7.6-.975.853-.093-.127-.176-.249-.249-.341-.146-.21-.254-.322-.307-.3s-.054.176,0,.434a2.989,2.989,0,0,0,.151.488.547.547,0,0,1,.044.073c-.292.283-.458.488-.424.517s.244-.078.561-.288a1.942,1.942,0,0,0,.166.283l.078.078c-.078.093-.117.161-.1.18s.093,0,.215-.063a1.6,1.6,0,0,0,.522.351,1.243,1.243,0,0,0,.556.1,1.258,1.258,0,0,0,.6-.19A1.229,1.229,0,0,0,622.333,388.935Zm.785-2.521a.043.043,0,0,0,.034.039c-.327.234-.722.536-1.141.878l-.093-.156-.024-.044c.371-.307.712-.595.975-.853A2.59,2.59,0,0,1,623.118,386.414Zm-1.083-.312a.736.736,0,0,1,.512,0c-.254.185-.527.4-.819.634a.488.488,0,0,1,0-.215.6.6,0,0,1,.307-.4Zm-1.59,2.482c-.063-.059-.107-.122-.166-.185.283-.2.6-.449.946-.722l.122.2c-.322.278-.6.532-.829.746-.024-.02-.054-.024-.073-.039Zm.512.293a.893.893,0,0,1-.146-.088c.215-.151.458-.332.727-.541a.923.923,0,0,1,.054.132.6.6,0,0,1,0,.127.355.355,0,0,1,0,.107.4.4,0,0,1-.141.185.531.531,0,0,1-.492.078Z" transform="translate(-487.527 -226.497)" fill="#f5f5f5"/>
        <path id="Path_107521" data-name="Path 107521" d="M614.083,389.112a28.142,28.142,0,0,1-3.975-7.232c-.229-.551-.449-1.068-.649-1.507a6.373,6.373,0,0,0-5.013-3.487l-.146-.2,5.891-5.091.073.034a14.791,14.791,0,0,1,7.866,8.944c.79,2.707,4.048,5.784,4.082,5.813l.1.1-5.53,4.628-.073-.029A6.874,6.874,0,0,1,614.083,389.112ZM608.8,378.9a5.8,5.8,0,0,1,.888,1.375c.2.444.419.975.653,1.512,1.322,3.106,3.311,7.8,6.393,9.046l5.2-4.345c-.575-.561-3.306-3.3-4.048-5.828a14.528,14.528,0,0,0-7.652-8.778l-5.5,4.789a4.663,4.663,0,0,1,.707.151A7.315,7.315,0,0,1,608.8,378.9Z" transform="translate(-479.852 -219.481)" fill="#e0e0e0"/>
        <path id="Path_107522" data-name="Path 107522" d="M381.07,387.372a8.837,8.837,0,0,1-8.837-1.951c-2.716-2.341-8.6-6.12-10.68-4.331l-3.014,7.315a21.66,21.66,0,0,1,8.129,4.609c3.462,3.282,10.909,3.779,10.909,3.779Z" transform="translate(-353.941 -224.11)" fill="#f5f5f5"/>
        <path id="Path_107523" data-name="Path 107523" d="M375.635,397.912a3.789,3.789,0,0,1-.6-5.715c1.409-1.385,4.306-.727,5.691.678a3.575,3.575,0,0,1-.034,5.057C379.288,399.336,377.244,399.058,375.635,397.912Z" transform="translate(-361.863 -229.646)" fill="#e0e0e0"/>
        <path id="Path_107524" data-name="Path 107524" d="M377.912,395.351a1.175,1.175,0,0,0,.083.361,1.358,1.358,0,0,0,.176.307,1.87,1.87,0,0,0,.41.366c-.229.536-.419,1.029-.561,1.434-.219-.093-.419-.185-.566-.258-.224-.117-.366-.176-.4-.132s.024.185.2.39a2.962,2.962,0,0,0,.6.488c-.083.288-.117.488-.073.488s.141-.117.283-.361c.049,0,.073.054.127.078a1.8,1.8,0,0,0,.244.078c-.112.351-.161.575-.117.595s.185-.19.376-.536a1.74,1.74,0,0,0,.361.034,1.463,1.463,0,0,0,1.029-.449,1.356,1.356,0,0,0,.312-1.253,1.152,1.152,0,0,0-.141-.341,1.715,1.715,0,0,0-.215-.273,2.01,2.01,0,0,0-.21-.161c.185-.449.346-.858.488-1.209l.376.185c.234.117.375.166.415.122s-.034-.18-.21-.38a2.624,2.624,0,0,0-.351-.341s-.049-.029-.068-.044c.127-.385.18-.639.137-.658s-.18.18-.366.517a1.558,1.558,0,0,0-.283-.176l-.1-.034c0-.122.029-.2,0-.2s-.083.044-.161.156a1.7,1.7,0,0,0-.624-.073,1.331,1.331,0,0,0-.541.166,1.273,1.273,0,0,0-.449.449A1.214,1.214,0,0,0,377.912,395.351Zm.488,2.6h-.054c.185-.361.395-.81.61-1.307l.156.1.034.024c-.185.444-.351.858-.488,1.219a2.308,2.308,0,0,1-.273-.034Zm1.1-.224a.776.776,0,0,1-.454.244c.137-.283.283-.6.434-.946a.622.622,0,0,1,.122.18.6.6,0,0,1-.117.522Zm.263-2.926c.083.024.151.058.229.088-.151.312-.322.673-.488,1.078l-.2-.122c.161-.4.3-.751.4-1.044Zm-.59-.024a1.035,1.035,0,0,1,.171,0c-.122.234-.254.488-.395.814a.692.692,0,0,1-.107-.088.7.7,0,0,1-.073-.107.293.293,0,0,1-.029-.107.341.341,0,0,1,.039-.224.517.517,0,0,1,.38-.3Z" transform="translate(-363.418 -230.899)" fill="#f5f5f5"/>
        <path id="Path_107525" data-name="Path 107525" d="M366.661,382.684a27.753,27.753,0,0,1,6.866,4.579c.458.38.892.736,1.273,1.034a6.432,6.432,0,0,0,6.057.78l.224.112-2.872,7.237h-.078a14.771,14.771,0,0,1-11.119-4.316c-1.951-2.034-6.262-3.258-6.306-3.267l-.137-.039,2.77-6.657h.078A6.829,6.829,0,0,1,366.661,382.684Zm9.407,6.623a5.931,5.931,0,0,1-1.424-.81c-.38-.3-.814-.658-1.273-1.039-2.609-2.146-6.54-5.389-9.856-5.072l-2.6,6.262c.771.224,4.462,1.395,6.286,3.3a14.518,14.518,0,0,0,10.836,4.262l2.682-6.754a4.791,4.791,0,0,1-.7.19A7.315,7.315,0,0,1,376.068,389.306Z" transform="translate(-354.981 -224.879)" fill="#e0e0e0"/>
        <path id="Path_107526" data-name="Path 107526" d="M667.718,120.2a8.012,8.012,0,0,1-8.012-1.765c-2.438-2.126-7.8-5.55-9.69-3.9l-2.736,6.652a19.634,19.634,0,0,1,7.374,4.179c3.146,2.98,9.9,3.414,9.9,3.414Z" transform="translate(-501.872 -87.561)" fill="#f5f5f5"/>
        <path id="Path_107527" data-name="Path 107527" d="M662.789,129.748a3.414,3.414,0,0,1-.546-5.169c1.278-1.258,3.9-.663,5.164.614a3.248,3.248,0,0,1-.029,4.589C666.1,131.04,664.247,130.767,662.789,129.748Z" transform="translate(-509.056 -92.573)" fill="#e0e0e0"/>
        <path id="Path_107528" data-name="Path 107528" d="M664.871,127.41a1.126,1.126,0,0,0,.073.332,1.425,1.425,0,0,0,.161.278,1.571,1.571,0,0,0,.376.332c-.21.488-.385.936-.517,1.3a3.565,3.565,0,0,1-.488-.234c-.2-.1-.332-.156-.371-.117s0,.166.181.356a2.927,2.927,0,0,0,.551.449c-.078.258-.107.424-.068.439s.127-.107.254-.327c.044.024.068.049.117.073a1.468,1.468,0,0,0,.22.068c-.1.317-.146.522-.1.536s.166-.166.336-.488a1.466,1.466,0,0,0,.332.029,1.292,1.292,0,0,0,.932-.4,1.239,1.239,0,0,0,.283-1.141,1.094,1.094,0,0,0-.127-.3,1.516,1.516,0,0,0-.2-.254,1.669,1.669,0,0,0-.2-.146c.171-.4.317-.78.434-1.1.127.063.244.127.341.171.21.107.341.151.371.107s-.029-.161-.185-.341a2.776,2.776,0,0,0-.317-.312l-.068-.039c.117-.351.166-.575.127-.595s-.166.161-.332.488a1.412,1.412,0,0,0-.254-.161l-.1-.029c.024-.112.029-.176,0-.19s-.073.044-.141.146a1.517,1.517,0,0,0-.57-.068,1.243,1.243,0,0,0-.488.151,1.189,1.189,0,0,0-.4.4A1.145,1.145,0,0,0,664.871,127.41Zm.424,2.36h-.044c.166-.327.356-.732.551-1.18l.141.083h.034c-.166.4-.317.78-.439,1.107A1.987,1.987,0,0,1,665.3,129.77Zm1-.2a.688.688,0,0,1-.41.224c.122-.258.253-.546.395-.858a.533.533,0,0,1,.107.166.541.541,0,0,1-.093.468Zm.239-2.658a1.54,1.54,0,0,1,.21.078c-.141.278-.3.61-.458.975l-.185-.112c.146-.356.268-.678.361-.946Zm-.536,0a.866.866,0,0,1,.156,0c-.112.21-.229.458-.361.736a.85.85,0,0,1-.1-.078.578.578,0,0,1-.063-.1.288.288,0,0,1-.029-.093.389.389,0,0,1,.034-.2.487.487,0,0,1,.356-.283Z" transform="translate(-510.485 -93.697)" fill="#f5f5f5"/>
        <path id="Path_107529" data-name="Path 107529" d="M654.655,115.924a25.558,25.558,0,0,1,6.227,4.155c.419.346.81.668,1.156.936a5.758,5.758,0,0,0,5.5.707l.2.107-2.6,6.554h-.073a13.415,13.415,0,0,1-10.085-3.9c-1.77-1.843-5.681-2.955-5.72-2.965l-.122-.034,2.511-6.042h.068A6.34,6.34,0,0,1,654.655,115.924Zm8.554,6.008a5.1,5.1,0,0,1-1.292-.736c-.346-.268-.741-.595-1.161-.941-2.365-1.951-5.93-4.877-8.934-4.6l-2.365,5.676c.7.2,4.043,1.268,5.7,2.994a13.167,13.167,0,0,0,9.831,3.843l2.438-6.125a4.583,4.583,0,0,1-.629.171,6.584,6.584,0,0,1-3.589-.283Z" transform="translate(-502.819 -88.239)" fill="#e0e0e0"/>
        <path id="Path_107530" data-name="Path 107530" d="M673.381,353.9a7.5,7.5,0,0,1-7.549,1.278c-2.872-.975-8.685-2.073-9.753,0l-.039,6.71a18.292,18.292,0,0,1,7.837,1.034c3.76,1.463,9.753-.488,9.753-.488Z" transform="translate(-506.36 -210.418)" fill="#f5f5f5"/>
        <path id="Path_107531" data-name="Path 107531" d="M670.75,364.465a3.2,3.2,0,0,1-2.277-4.282c.663-1.531,3.146-1.951,4.677-1.273a3.024,3.024,0,0,1,1.575,3.979C674.066,364.426,672.374,364.85,670.75,364.465Z" transform="translate(-512.618 -212.824)" fill="#e0e0e0"/>
        <path id="Path_107532" data-name="Path 107532" d="M671.95,361.894a.975.975,0,0,0,.176.258,1.2,1.2,0,0,0,.239.185,1.554,1.554,0,0,0,.439.161v1.3a5.1,5.1,0,0,1-.522-.024c-.214,0-.341,0-.361.029s.078.137.278.244a2.654,2.654,0,0,0,.634.2c0,.254.054.4.093.4s.073-.136.107-.371a1.016,1.016,0,0,0,.122,0h.219c0,.307.054.488.1.488s.083-.2.122-.537a1.879,1.879,0,0,0,.3-.093,1.239,1.239,0,0,0,.663-.678,1.151,1.151,0,0,0-.151-1.083,1.036,1.036,0,0,0-.219-.219,1.524,1.524,0,0,0-.258-.146,1.2,1.2,0,0,0-.215-.063v-1.1l.356.029c.219,0,.351,0,.361-.039s-.083-.127-.283-.234a2.529,2.529,0,0,0-.38-.156h-.073c-.024-.341-.058-.556-.1-.556s-.088.2-.122.517a1.576,1.576,0,0,0-.278-.049H673.1c0-.1-.039-.161-.063-.161s-.049.063-.073.176a1.434,1.434,0,0,0-.517.137,1.2,1.2,0,0,0-.371.307,1.067,1.067,0,0,0-.21.488A1.029,1.029,0,0,0,671.95,361.894Zm1.19,1.892H673.1c.029-.341.054-.756.063-1.214h.19v1.107a1.857,1.857,0,0,1-.21.117Zm.795-.527a.61.61,0,0,1-.278.337q.029-.4.044-.878a.433.433,0,0,1,.151.1.488.488,0,0,1,.083.449Zm-.722-2.385a1.492,1.492,0,0,1,.21,0c-.024.293-.044.629-.054,1l-.2-.029V360.9Zm-.488.171a.608.608,0,0,1,.142-.049c-.024.219-.039.488-.054.766-.034,0-.088,0-.112-.034a.646.646,0,0,1-.093-.068.147.147,0,0,1-.054-.068.318.318,0,0,1-.044-.19.438.438,0,0,1,.229-.346Z" transform="translate(-514.462 -213.487)" fill="#f5f5f5"/>
        <path id="Path_107533" data-name="Path 107533" d="M660.208,355.167a23.433,23.433,0,0,1,6.827,1.414c.488.151.931.293,1.321.4a5.362,5.362,0,0,0,5-1.312l.215.024.039,6.584-.063.029a12.514,12.514,0,0,1-10.085.141c-2.175-.975-5.945-.571-5.984-.566h-.117l.063-6.106.054-.029A5.8,5.8,0,0,1,660.208,355.167Zm9.48,2.209a4.779,4.779,0,0,1-1.375-.185c-.4-.112-.849-.254-1.326-.41-2.731-.858-6.827-2.151-9.339-.853l-.059,5.735c.678-.068,3.94-.317,5.974.6a12.289,12.289,0,0,0,9.846-.112L673.37,356a4.193,4.193,0,0,1-.488.371,6.193,6.193,0,0,1-3.194,1.009Z" transform="translate(-507.036 -211.065)" fill="#e0e0e0"/>
        <path id="Path_107534" data-name="Path 107534" d="M431.354,59.68a8.841,8.841,0,0,1-5.876,6.876c-3.345,1.292-9.451,4.7-8.851,7.378l5.038,6.115a21.638,21.638,0,0,1,7.905-5c4.526-1.512,8.476-7.837,8.476-7.837Z" transform="translate(-383.68 -59.68)" fill="#f5f5f5"/>
        <path id="Path_107535" data-name="Path 107535" d="M437.318,81.309a3.784,3.784,0,0,1-5.311-2.16c-.561-1.892,1.385-4.14,3.277-4.7a3.579,3.579,0,0,1,4.448,2.438C440.3,78.758,439.093,80.426,437.318,81.309Z" transform="translate(-391.53 -67.171)" fill="#e0e0e0"/>
        <path id="Path_107536" data-name="Path 107536" d="M436.046,80.462a1.137,1.137,0,0,0,.356.1,1.272,1.272,0,0,0,.361,0,1.77,1.77,0,0,0,.512-.19c.366.458.707.858.975,1.175-.18.151-.356.278-.488.371-.21.146-.322.244-.3.3s.171.068.434,0a3.146,3.146,0,0,0,.722-.3c.215.21.356.322.4.293s-.039-.18-.185-.415c.044-.034.083-.044.127-.078s.122-.117.185-.176c.254.258.429.41.488.38s-.078-.254-.3-.58a1.663,1.663,0,0,0,.2-.307,1.463,1.463,0,0,0,.093-1.117,1.356,1.356,0,0,0-.975-.868,1.312,1.312,0,0,0-.366-.034,1.921,1.921,0,0,0-.341.059,1.6,1.6,0,0,0-.244.112c-.307-.376-.595-.712-.844-.975l.346-.244c.21-.146.322-.254.3-.307s-.176-.054-.434,0a3.071,3.071,0,0,0-.488.146l-.068.044c-.283-.293-.488-.488-.517-.429s.073.244.283.561a2.019,2.019,0,0,0-.288.171l-.078.073c-.093-.078-.156-.117-.18-.1s0,.1.063.215a1.7,1.7,0,0,0-.356.517,1.356,1.356,0,0,0-.112.561,1.322,1.322,0,0,0,.185.6A1.2,1.2,0,0,0,436.046,80.462Zm2.531.81a.293.293,0,0,1-.039.039c-.229-.332-.527-.727-.863-1.156l.161-.088h.039c.3.371.59.712.844,1A1.75,1.75,0,0,1,438.577,81.272Zm.327-1.078a.765.765,0,0,1,0,.488c-.185-.254-.395-.532-.624-.829a.532.532,0,0,1,.21,0,.6.6,0,0,1,.395.341Zm-2.463-1.614a1.9,1.9,0,0,1,.185-.161c.2.278.439.6.712.975l-.2.122c-.273-.327-.522-.614-.736-.839a.131.131,0,0,1,.024-.1Zm-.3.488a1.2,1.2,0,0,1,.088-.151c.151.219.332.488.536.736-.044,0-.093.044-.132.054H436.4a.41.41,0,0,1-.185-.146.522.522,0,0,1-.073-.468Z" transform="translate(-393.278 -68.763)" fill="#f5f5f5"/>
        <path id="Path_107537" data-name="Path 107537" d="M419.938,72.2a28.128,28.128,0,0,1,7.271-3.9c.551-.224,1.073-.439,1.512-.634a6.4,6.4,0,0,0,3.541-4.974l.21-.141,5.028,5.94-.034.073a14.791,14.791,0,0,1-9.041,7.773c-2.716.761-5.852,3.989-5.852,4.018l-.1.1L417.9,74.878l.029-.068A6.828,6.828,0,0,1,419.938,72.2Zm10.27-5.174a5.851,5.851,0,0,1-1.385.873c-.444.2-.975.41-1.517.634-3.121,1.287-7.832,3.228-9.115,6.3l4.292,5.247c.561-.575,3.331-3.277,5.852-3.989a14.523,14.523,0,0,0,8.851-7.559l-4.7-5.55a5.058,5.058,0,0,1-.161.7,7.315,7.315,0,0,1-2.121,3.341Z" transform="translate(-384.353 -61.15)" fill="#e0e0e0"/>
        <path id="Path_107538" data-name="Path 107538" d="M702.986,287.87,702.367,289l-1.127.614,1.127.619.619,1.131.619-1.131,1.126-.619L703.605,289Z" transform="translate(-529.517 -176.589)" fill="#e0e0e0"/>
        <path id="Path_107539" data-name="Path 107539" d="M629.9,67.5l-.619,1.131-1.131.619,1.131.614L629.9,71l.614-1.131,1.131-.614-1.131-.619Z" transform="translate(-492.071 -63.686)" fill="#e0e0e0"/>
        <path id="Path_107540" data-name="Path 107540" d="M412.661,356.54l-.619,1.131-1.131.615,1.131.619.619,1.127.614-1.127,1.131-.619-1.131-.615Z" transform="translate(-380.772 -211.77)" fill="#e0e0e0"/>
        <path id="Path_107541" data-name="Path 107541" d="M352.582,340.04l-1.229,2.243-2.243,1.229,2.243,1.229,1.229,2.243,1.229-2.243,2.243-1.229-2.243-1.229Z" transform="translate(-349.11 -203.317)" fill="#e0e0e0"/>
        <path id="Path_107542" data-name="Path 107542" d="M653.342,74.79l-1.229,2.243-2.243,1.229,2.243,1.229,1.229,2.243,1.229-2.243,2.243-1.229-2.243-1.229Z" transform="translate(-503.198 -67.421)" fill="#e0e0e0"/>
      </g>
      <g id="freepik--Vault--inject-201" transform="translate(0 11.129)">
        <rect id="Rectangle_26828" data-name="Rectangle 26828" width="5.213" height="51.82" transform="translate(110.028 50.225)" fill="#263238"/>
        <ellipse id="Ellipse_4215" data-name="Ellipse 4215" cx="47.211" cy="58.042" rx="47.211" ry="58.042" transform="translate(0 17.848)" fill="#263238"/>
        <rect id="Rectangle_26829" data-name="Rectangle 26829" width="10.426" height="35.717" transform="translate(104.831 57.91)" fill="#455a64"/>
        <rect id="Rectangle_26830" data-name="Rectangle 26830" width="8.934" height="6.11" transform="translate(108.094 44.109)" fill="#263238"/>
        <rect id="Rectangle_26831" data-name="Rectangle 26831" width="8.934" height="6.11" transform="translate(108.487 101.898)" fill="#263238"/>
        <ellipse id="Ellipse_4216" data-name="Ellipse 4216" cx="47.211" cy="58.042" rx="47.211" ry="58.042" transform="translate(14.245 17.848)" fill="#455a64"/>
        <ellipse id="Ellipse_4217" data-name="Ellipse 4217" cx="36.39" cy="44.909" rx="36.39" ry="44.909" transform="translate(28.363 30.859)" fill="#455a64"/>
        <path id="Path_107544" data-name="Path 107544" d="M279.629,190.591s0-.219-.029-.658,0-1.088-.063-1.951a57.421,57.421,0,0,0-.873-7.4c-.078-.4-.156-.8-.234-1.224l-.3-1.283c-.185-.878-.488-1.78-.717-2.731a54.934,54.934,0,0,0-2.19-6.018,45.08,45.08,0,0,0-8.554-12.962,36,36,0,0,0-7-5.7,31.812,31.812,0,0,0-8.973-3.9,30.036,30.036,0,0,0-10.436-.785,28.216,28.216,0,0,0-5.389,1.053,30.188,30.188,0,0,0-5.252,2.068,33.769,33.769,0,0,0-4.93,3.024,40.385,40.385,0,0,0-4.477,3.9,45.42,45.42,0,0,0-3.9,4.623,47.652,47.652,0,0,0-3.282,5.228,53.727,53.727,0,0,0,0,49.518,47.3,47.3,0,0,0,3.287,5.233,44.632,44.632,0,0,0,3.9,4.618,39.993,39.993,0,0,0,4.477,3.9,33.781,33.781,0,0,0,4.93,3.023,30.349,30.349,0,0,0,5.252,2.068,28.2,28.2,0,0,0,5.394,1.053,29.888,29.888,0,0,0,10.431-.79,31.829,31.829,0,0,0,8.978-3.9,35.988,35.988,0,0,0,6.993-5.808,45.094,45.094,0,0,0,8.549-12.962,54.867,54.867,0,0,0,2.19-6.013c.254-.951.532-1.853.717-2.736.1-.434.2-.863.3-1.278s.156-.829.234-1.224a57.369,57.369,0,0,0,.853-7.388c.049-.849.049-1.5.063-1.951s.029-.663.029-.663,0,.9-.039,2.6a55.911,55.911,0,0,1-.829,7.413c-.073.4-.151.81-.229,1.229s-.19.849-.293,1.287c-.18.878-.454,1.785-.707,2.736a54.981,54.981,0,0,1-2.175,6.042,45.169,45.169,0,0,1-8.554,13.031,36.2,36.2,0,0,1-7.022,5.774,32.09,32.09,0,0,1-9.017,3.955,30.094,30.094,0,0,1-10.509.8A28.655,28.655,0,0,1,234.8,234.4a30.238,30.238,0,0,1-5.291-2.077,33.6,33.6,0,0,1-4.969-3.043,39.539,39.539,0,0,1-4.506-3.9,44.732,44.732,0,0,1-3.94-4.647,47.7,47.7,0,0,1-3.306-5.252,53.961,53.961,0,0,1,0-49.742,47.858,47.858,0,0,1,3.331-5.277,45.869,45.869,0,0,1,3.94-4.647,40.423,40.423,0,0,1,4.506-3.9,33.6,33.6,0,0,1,4.969-3.043,30.237,30.237,0,0,1,5.291-2.077,28.577,28.577,0,0,1,5.433-1.053,30.235,30.235,0,0,1,10.485.8,32.015,32.015,0,0,1,9.027,3.945,36.169,36.169,0,0,1,7.022,5.774,45.082,45.082,0,0,1,8.549,13.031,54.029,54.029,0,0,1,2.18,6.037c.254.975.522,1.858.707,2.741.1.439.2.868.293,1.283s.151.834.229,1.229a56.058,56.058,0,0,1,.829,7.417C279.639,189.679,279.629,190.591,279.629,190.591Z" transform="translate(-178.487 -114.823)" fill="#263238"/>
        <ellipse id="Ellipse_4218" data-name="Ellipse 4218" cx="21.34" cy="20.838" rx="21.34" ry="20.838" transform="translate(52.794 53.931)" fill="#263238"/>
        <path id="Path_107545" data-name="Path 107545" d="M270.205,202.232h0a3.336,3.336,0,0,1-4.711.219l-2.638-2.4a3.336,3.336,0,0,1-.219-4.711h0a3.336,3.336,0,0,1,4.711-.219l2.638,2.4A3.336,3.336,0,0,1,270.205,202.232Z" transform="translate(-206.982 -139.752)" fill="#263238"/>
        <path id="Path_107546" data-name="Path 107546" d="M298.5,187.306h0a3.331,3.331,0,0,1-3.336-3.331v-3.57a3.336,3.336,0,0,1,3.336-3.336h0a3.331,3.331,0,0,1,3.331,3.336v3.57A3.331,3.331,0,0,1,298.5,187.306Z" transform="translate(-224.173 -130.951)" fill="#263238"/>
        <path id="Path_107547" data-name="Path 107547" d="M327.73,200.352h0a3.331,3.331,0,0,1-.678-4.667l2.131-2.863a3.336,3.336,0,0,1,4.667-.678h0a3.331,3.331,0,0,1,.678,4.667l-2.131,2.858A3.336,3.336,0,0,1,327.73,200.352Z" transform="translate(-240.255 -138.335)" fill="#263238"/>
        <path id="Path_107548" data-name="Path 107548" d="M259.646,234.371h0a3.331,3.331,0,0,1-3.331,3.336h-3.57a3.336,3.336,0,0,1-3.336-3.336h0a3.331,3.331,0,0,1,3.336-3.331h3.57a3.331,3.331,0,0,1,3.331,3.331Z" transform="translate(-200.62 -158.602)" fill="#263238"/>
        <path id="Path_107549" data-name="Path 107549" d="M349.686,232.256h0a3.331,3.331,0,0,1-3.336,3.331h-3.57a3.331,3.331,0,0,1-3.331-3.331h0a3.331,3.331,0,0,1,3.331-3.336h3.57A3.336,3.336,0,0,1,349.686,232.256Z" transform="translate(-246.984 -157.516)" fill="#263238"/>
        <path id="Path_107550" data-name="Path 107550" d="M271.724,263.16h0a3.336,3.336,0,0,1-.21,4.711l-2.633,2.4a3.331,3.331,0,0,1-4.711-.21h0a3.331,3.331,0,0,1,.21-4.711l2.633-2.4a3.331,3.331,0,0,1,4.711.21Z" transform="translate(-207.769 -174.502)" fill="#263238"/>
        <path id="Path_107551" data-name="Path 107551" d="M305.721,269.766h0a3.331,3.331,0,0,1,3.487,3.17l.166,3.565a3.326,3.326,0,0,1-3.17,3.487h0a3.331,3.331,0,0,1-3.492-3.17l-.166-3.565a3.336,3.336,0,0,1,3.175-3.487Z" transform="translate(-227.974 -178.44)" fill="#263238"/>
        <path id="Path_107552" data-name="Path 107552" d="M330.777,259.516h0a3.336,3.336,0,0,1,4.711-.219l2.638,2.4a3.331,3.331,0,0,1,.215,4.711h0a3.326,3.326,0,0,1-4.706.215l-2.638-2.4A3.331,3.331,0,0,1,330.777,259.516Z" transform="translate(-242.069 -172.634)" fill="#263238"/>
        <ellipse id="Ellipse_4219" data-name="Ellipse 4219" cx="17.278" cy="19.414" rx="17.278" ry="19.414" transform="translate(60.742 55.457)" fill="#455a64"/>
        <circle id="Ellipse_4220" data-name="Ellipse 4220" cx="54.902" cy="54.902" r="54.902" transform="translate(108.299 77.643) rotate(-45)" fill="#ebebeb"/>
        <path id="Path_107553" data-name="Path 107553" d="M491.55,221.136V199.771h19.409V189.076H534.45V167.131h22.389v15.547h7.7V156.1l4.555,7.071s9.753,18-5.125,38.911S520.942,235.078,491.55,221.136Z" transform="translate(-325.767 -120.208)" fill="#e0e0e0"/>
        <path id="Path_107554" data-name="Path 107554" d="M430.106,206.18h21.56l3.072,6.613h13.377L472.6,218.3v18.356l5.1-.463,4.516,4.511v16.527H441.084S420.806,239.907,430.106,206.18Z" transform="translate(-292.559 -145.865)" fill="#fd9827"/>
        <path id="Path_107555" data-name="Path 107555" d="M430.106,206.18h21.56l3.072,6.613h13.377L472.6,218.3v18.356l5.1-.463,4.516,4.511v16.527H441.084S420.806,239.907,430.106,206.18Z" transform="translate(-292.559 -145.865)" opacity="0.4"/>
        <path id="Path_107556" data-name="Path 107556" d="M468.138,312.97V298.76h-12.8v-7.7h-6.827v-2.8H438.59S447.568,307.069,468.138,312.97Z" transform="translate(-298.094 -187.918)" fill="#fd9827"/>
        <path id="Path_107557" data-name="Path 107557" d="M468.138,312.97V298.76h-12.8v-7.7h-6.827v-2.8H438.59S447.568,307.069,468.138,312.97Z" transform="translate(-298.094 -187.918)" opacity="0.3"/>
        <path id="Path_107558" data-name="Path 107558" d="M487.83,278.019V259.693h16.664V250.52h20.141V231.676h19.2v13.333h6.6V222.23H556.5s6.194,21.506-6.554,39.443S513.042,289.982,487.83,278.019Z" transform="translate(-323.861 -154.088)" fill="#fd9827"/>
        <path id="Path_107559" data-name="Path 107559" d="M541.68,327.925V307.136h18.731V295.846h10v-4.1H584.9S571.789,319.294,541.68,327.925Z" transform="translate(-351.45 -189.706)" fill="#fd9827"/>
        <path id="Path_107560" data-name="Path 107560" d="M541.68,329.055V308.266h18.731v-11.29h10v-4.1H584.9S571.789,320.424,541.68,329.055Z" transform="translate(-351.45 -190.284)" fill="#fff" opacity="0.3"/>
        <path id="Path_107561" data-name="Path 107561" d="M462.666,98.35a68.176,68.176,0,1,0,68.176,68.176A68.176,68.176,0,0,0,462.666,98.35Zm-2.151,119.557a49.645,49.645,0,1,1,49.65-49.646,49.644,49.644,0,0,1-49.65,49.646Z" transform="translate(-276.04 -90.621)" fill="#455a64"/>
        <path id="Path_107562" data-name="Path 107562" d="M479.7,131.75a51.962,51.962,0,0,0-51.966,51.966,52.781,52.781,0,0,0,.4,6.486c-.151-1.585-.234-3.2-.234-4.828a49.6,49.6,0,1,1,32.674,46.67A51.966,51.966,0,1,0,479.691,131.75Z" transform="translate(-293.07 -107.733)" fill="#263238"/>
        <circle id="Ellipse_4221" data-name="Ellipse 4221" cx="3.765" cy="3.765" r="3.765" transform="translate(209.593 24.61) rotate(-74.07)" fill="#455a64"/>
        <path id="Path_107563" data-name="Path 107563" d="M590.1,123.594a7.1,7.1,0,0,0-.166-.907,3.7,3.7,0,0,0-1.375-2.009,3.58,3.58,0,0,0-1.546-.673,3.677,3.677,0,0,0-1.917.166,3.653,3.653,0,0,0,0,6.852,3.7,3.7,0,0,0,4.838-2.521c.156-.571.136-.907.166-.907a.785.785,0,0,1,0,.244,2.784,2.784,0,0,1-.083.688,3.745,3.745,0,0,1-1.36,2.131,3.82,3.82,0,0,1-1.619.741,3.9,3.9,0,0,1-2.034-.156,3.868,3.868,0,1,1,3.653-6.71,3.77,3.77,0,0,1,1.361,2.136,2.763,2.763,0,0,1,.083.688A.762.762,0,0,1,590.1,123.594Z" transform="translate(-372.087 -101.572)" fill="#263238"/>
        <path id="Path_107564" data-name="Path 107564" d="M589.459,127.364a2.055,2.055,0,0,1-.449-.653,3.5,3.5,0,0,1-.258-1.907,3.414,3.414,0,0,1,.8-1.741c.332-.376.6-.522.619-.488s-.2.224-.488.61a3.682,3.682,0,0,0-.517,3.467A4.776,4.776,0,0,1,589.459,127.364Z" transform="translate(-375.548 -103.03)" fill="#263238"/>
        <path id="Path_107565" data-name="Path 107565" d="M589.955,127.748a6.764,6.764,0,0,0-5.325-.692,1.848,1.848,0,0,1,.766-.327,5.13,5.13,0,0,1,2-.127,5.228,5.228,0,0,1,1.9.634A1.877,1.877,0,0,1,589.955,127.748Z" transform="translate(-373.455 -105.072)" fill="#263238"/>
        <circle id="Ellipse_4222" data-name="Ellipse 4222" cx="3.765" cy="3.765" r="3.765" transform="translate(165.345 16.673) rotate(-22.39)" fill="#455a64"/>
        <path id="Path_107566" data-name="Path 107566" d="M499.433,116.838a6.913,6.913,0,0,0-.166-.907,3.77,3.77,0,0,0-1.375-2.014,3.726,3.726,0,0,0-1.546-.673,3.677,3.677,0,0,0-1.917.171,3.574,3.574,0,0,0-1.687,1.273,3.623,3.623,0,0,0,0,4.3,3.574,3.574,0,0,0,1.687,1.273,3.653,3.653,0,0,0,3.463-.488,3.771,3.771,0,0,0,1.375-2.014c.151-.571.137-.907.166-.907a.785.785,0,0,1,0,.244,3.073,3.073,0,0,1-.083.688,3.8,3.8,0,0,1-2.98,2.868,3.869,3.869,0,0,1-3.848-6.1,3.828,3.828,0,0,1,6.827,1.365,3.084,3.084,0,0,1,.083.692.759.759,0,0,1,0,.224Z" transform="translate(-325.404 -98.112)" fill="#263238"/>
        <path id="Path_107567" data-name="Path 107567" d="M498.794,120.6a1.621,1.621,0,0,1-.449-.658,3.414,3.414,0,0,1,.546-3.648c.332-.371.6-.517.619-.488s-.2.224-.488.6a3.716,3.716,0,0,0-.522,3.472A6.672,6.672,0,0,1,498.794,120.6Z" transform="translate(-328.617 -99.562)" fill="#263238"/>
        <path id="Path_107568" data-name="Path 107568" d="M499.3,120.986a8.73,8.73,0,0,0-2.589-.9,8.931,8.931,0,0,0-2.736.2,2.014,2.014,0,0,1,.766-.327,5.316,5.316,0,0,1,2-.127,5.224,5.224,0,0,1,1.9.639C499.086,120.737,499.315,120.962,499.3,120.986Z" transform="translate(-326.532 -101.606)" fill="#263238"/>
        <circle id="Ellipse_4223" data-name="Ellipse 4223" cx="3.765" cy="3.765" r="3.765" transform="translate(236.137 49.237) rotate(-45)" fill="#455a64"/>
        <path id="Path_107569" data-name="Path 107569" d="M646.4,179.42a6.908,6.908,0,0,0-.166-.907,3.769,3.769,0,0,0-1.375-2.014,3.667,3.667,0,0,0-3.467-.488,3.648,3.648,0,0,0,0,6.847,3.682,3.682,0,0,0,1.917.171,3.726,3.726,0,0,0,2.926-2.687c.151-.571.137-.907.166-.907a1.3,1.3,0,0,1,0,.239,2.817,2.817,0,0,1-.083.693,3.72,3.72,0,0,1-1.361,2.131,3.869,3.869,0,1,1,0-6.125,3.72,3.72,0,0,1,1.361,2.131,2.808,2.808,0,0,1,.083.688A1.331,1.331,0,0,1,646.4,179.42Z" transform="translate(-401.171 -130.18)" fill="#263238"/>
        <path id="Path_107570" data-name="Path 107570" d="M645.747,183.169a1.556,1.556,0,0,1-.444-.658,3.414,3.414,0,0,1,.541-3.648c.332-.371.6-.522.624-.488s-.2.229-.488.61a3.726,3.726,0,0,0-.517,3.472A7.216,7.216,0,0,1,645.747,183.169Z" transform="translate(-404.385 -131.618)" fill="#263238"/>
        <path id="Path_107571" data-name="Path 107571" d="M646.25,183.547a6.827,6.827,0,0,0-5.33-.7,2.013,2.013,0,0,1,.766-.327,5.218,5.218,0,0,1,3.9.488A1.867,1.867,0,0,1,646.25,183.547Z" transform="translate(-402.294 -133.654)" fill="#263238"/>
        <circle id="Ellipse_4224" data-name="Ellipse 4224" cx="3.765" cy="3.765" r="3.765" transform="matrix(0.231, -0.973, 0.973, 0.231, 128.481, 50.147)" fill="#455a64"/>
        <path id="Path_107572" data-name="Path 107572" d="M422.652,175.532a6.917,6.917,0,0,0-.166-.907,3.77,3.77,0,0,0-1.375-2.014,3.726,3.726,0,0,0-1.546-.673,3.653,3.653,0,0,0-3.584,5.75,3.609,3.609,0,0,0,1.692,1.273,3.653,3.653,0,0,0,3.462-.488,3.77,3.77,0,0,0,1.375-2.014c.151-.571.137-.907.166-.907a.782.782,0,0,1,0,.244,3.354,3.354,0,0,1-.083.688,3.814,3.814,0,0,1-2.98,2.867,3.872,3.872,0,1,1,1.614-6.861,3.76,3.76,0,0,1,1.366,2.131,3.418,3.418,0,0,1,.083.692.764.764,0,0,1-.024.219Z" transform="translate(-285.884 -128.19)" fill="#263238"/>
        <path id="Path_107573" data-name="Path 107573" d="M421.984,179.28a1.959,1.959,0,0,1-.449-.658,3.414,3.414,0,0,1,.546-3.648c.327-.371.6-.517.619-.488s-.2.224-.488.6a3.9,3.9,0,0,0-.7,1.673,3.814,3.814,0,0,0,.176,1.8,6.674,6.674,0,0,1,.293.717Z" transform="translate(-289.073 -129.626)" fill="#263238"/>
        <path id="Path_107574" data-name="Path 107574" d="M422.485,179.661a8.729,8.729,0,0,0-2.59-.9,8.93,8.93,0,0,0-2.736.2,1.873,1.873,0,0,1,.761-.322,5.2,5.2,0,0,1,3.9.488C422.276,179.412,422.5,179.636,422.485,179.661Z" transform="translate(-286.985 -131.665)" fill="#263238"/>
        <circle id="Ellipse_4225" data-name="Ellipse 4225" cx="3.765" cy="3.765" r="3.765" transform="translate(237.376 97.218) rotate(-45)" fill="#455a64"/>
        <path id="Path_107575" data-name="Path 107575" d="M648.942,277.807a6.936,6.936,0,0,0-.166-.9,3.75,3.75,0,0,0-1.375-2.014,3.654,3.654,0,1,0-3.467,6.345,3.677,3.677,0,0,0,3.467-.488,3.751,3.751,0,0,0,1.375-2.014c.151-.571.137-.907.166-.907a.782.782,0,0,1,0,.244,3.348,3.348,0,0,1-.083.688,3.731,3.731,0,0,1-1.366,2.131,3.793,3.793,0,0,1-1.614.741,3.927,3.927,0,0,1-2.039-.156,3.873,3.873,0,0,1,0-7.291,3.926,3.926,0,0,1,2.039-.156,3.847,3.847,0,0,1,1.614.736,3.755,3.755,0,0,1,1.365,2.136,3.323,3.323,0,0,1,.083.688A.737.737,0,0,1,648.942,277.807Z" transform="translate(-402.474 -180.591)" fill="#263238"/>
        <path id="Path_107576" data-name="Path 107576" d="M648.294,281.554a1.576,1.576,0,0,1-.449-.653,3.414,3.414,0,0,1,.546-3.648c.327-.376.6-.522.619-.488s-.2.224-.488.61a3.721,3.721,0,0,0-.517,3.467A6.451,6.451,0,0,1,648.294,281.554Z" transform="translate(-405.688 -182.026)" fill="#263238"/>
        <path id="Path_107577" data-name="Path 107577" d="M648.8,281.938a6.764,6.764,0,0,0-5.325-.693,1.761,1.761,0,0,1,.761-.327,5.14,5.14,0,0,1,2-.127,5.256,5.256,0,0,1,1.907.634A1.949,1.949,0,0,1,648.8,281.938Z" transform="translate(-403.6 -184.068)" fill="#263238"/>
        <circle id="Ellipse_4226" data-name="Ellipse 4226" cx="3.765" cy="3.765" r="3.765" transform="matrix(0.231, -0.973, 0.973, 0.231, 126.574, 100.023)" fill="#455a64"/>
        <path id="Path_107578" data-name="Path 107578" d="M418.7,277.792a6.953,6.953,0,0,0-.166-.9,3.75,3.75,0,0,0-1.375-2.014,3.6,3.6,0,0,0-1.546-.673,3.646,3.646,0,1,0,1.546,6.515,3.75,3.75,0,0,0,1.375-2.014c.151-.571.137-.907.166-.907a.788.788,0,0,1,0,.244,3.037,3.037,0,0,1-.083.688,3.73,3.73,0,0,1-1.365,2.131,3.793,3.793,0,0,1-1.614.741,3.925,3.925,0,0,1-2.038-.156,3.872,3.872,0,0,1,0-7.291,3.925,3.925,0,0,1,2.038-.156,3.847,3.847,0,0,1,1.614.736,3.756,3.756,0,0,1,1.365,2.136,3.017,3.017,0,0,1,.083.688A.738.738,0,0,1,418.7,277.792Z" transform="translate(-283.835 -180.576)" fill="#263238"/>
        <path id="Path_107579" data-name="Path 107579" d="M418.054,281.554a1.9,1.9,0,0,1-.449-.653,3.414,3.414,0,0,1,.546-3.648c.327-.376.6-.522.619-.488s-.2.224-.488.61a3.858,3.858,0,0,0-.7,1.668,3.8,3.8,0,0,0,.176,1.8A5.138,5.138,0,0,1,418.054,281.554Z" transform="translate(-287.049 -182.026)" fill="#263238"/>
        <path id="Path_107580" data-name="Path 107580" d="M418.555,281.938a6.764,6.764,0,0,0-5.325-.693,1.8,1.8,0,0,1,.766-.327,5.107,5.107,0,0,1,2-.127,5.223,5.223,0,0,1,1.907.634A1.95,1.95,0,0,1,418.555,281.938Z" transform="translate(-284.961 -184.068)" fill="#263238"/>
        <circle id="Ellipse_4227" data-name="Ellipse 4227" cx="3.765" cy="3.765" r="3.765" transform="translate(208.708 130.536) rotate(-45)" fill="#455a64"/>
        <path id="Path_107581" data-name="Path 107581" d="M589.666,346.133a6.929,6.929,0,0,0-.166-.907,3.769,3.769,0,0,0-1.375-2.014,3.653,3.653,0,0,0-3.462-.488A3.584,3.584,0,0,0,582.97,344a3.642,3.642,0,0,0,0,4.3,3.584,3.584,0,0,0,1.692,1.273,3.653,3.653,0,0,0,3.462-.488,3.769,3.769,0,0,0,1.375-2.014c.151-.571.137-.907.166-.907a.769.769,0,0,1,0,.239,3.426,3.426,0,0,1-.083.692,3.813,3.813,0,0,1-2.98,2.868,3.872,3.872,0,1,1,1.614-6.862,3.759,3.759,0,0,1,1.365,2.131,3.4,3.4,0,0,1,.083.688A.789.789,0,0,1,589.666,346.133Z" transform="translate(-371.865 -215.599)" fill="#263238"/>
        <path id="Path_107582" data-name="Path 107582" d="M589.024,349.869a1.487,1.487,0,0,1-.449-.658,3.414,3.414,0,0,1,.546-3.648c.327-.371.6-.522.619-.488s-.2.229-.488.61a3.9,3.9,0,0,0-.693,1.673,3.813,3.813,0,0,0,.175,1.8,6.672,6.672,0,0,1,.288.712Z" transform="translate(-375.322 -217.023)" fill="#263238"/>
        <path id="Path_107583" data-name="Path 107583" d="M589.525,350.256a8.569,8.569,0,0,0-2.589-.9,8.779,8.779,0,0,0-2.736.2,1.916,1.916,0,0,1,.761-.327,5.334,5.334,0,0,1,2-.127,5.253,5.253,0,0,1,1.907.639C589.315,350.008,589.545,350.232,589.525,350.256Z" transform="translate(-373.234 -219.069)" fill="#263238"/>
        <circle id="Ellipse_4228" data-name="Ellipse 4228" cx="3.765" cy="3.765" r="3.765" transform="matrix(0.231, -0.973, 0.973, 0.231, 155.95, 133.812)" fill="#455a64"/>
        <path id="Path_107584" data-name="Path 107584" d="M479.266,347.072a6.912,6.912,0,0,0-.166-.907,3.77,3.77,0,0,0-1.375-2.014,3.658,3.658,0,0,0-3.467-.488,3.6,3.6,0,0,0-1.687,1.273,3.643,3.643,0,0,0,0,4.3,3.6,3.6,0,0,0,1.687,1.273,3.658,3.658,0,0,0,3.467-.488,3.77,3.77,0,0,0,1.39-2.043c.151-.571.137-.907.166-.907a.782.782,0,0,1,0,.244,3.409,3.409,0,0,1-.083.688,3.814,3.814,0,0,1-2.98,2.867,3.872,3.872,0,1,1,1.614-6.862,3.76,3.76,0,0,1,1.365,2.131,3.412,3.412,0,0,1,.083.692A.757.757,0,0,1,479.266,347.072Z" transform="translate(-315.027 -216.065)" fill="#263238"/>
        <path id="Path_107585" data-name="Path 107585" d="M478.614,350.844a1.959,1.959,0,0,1-.449-.658,3.413,3.413,0,0,1,.546-3.648,1.522,1.522,0,0,1,.619-.488c.024.034-.2.229-.488.61a3.731,3.731,0,0,0-.517,3.472C478.482,350.566,478.643,350.819,478.614,350.844Z" transform="translate(-318.228 -217.525)" fill="#263238"/>
        <path id="Path_107586" data-name="Path 107586" d="M479.115,351.226a8.567,8.567,0,0,0-2.594-.9,8.733,8.733,0,0,0-2.731.2,1.915,1.915,0,0,1,.761-.327,5.333,5.333,0,0,1,2-.127,5.251,5.251,0,0,1,1.907.639C478.906,350.992,479.135,351.2,479.115,351.226Z" transform="translate(-316.142 -219.566)" fill="#263238"/>
        <path id="Path_107587" data-name="Path 107587" d="M497.351,175.64l-.619,1.127-1.131.619,1.131.619.619,1.127.614-1.127,1.131-.619-1.131-.619Z" transform="translate(-327.365 -130.219)" fill="#fd9827"/>
        <path id="Path_107588" data-name="Path 107588" d="M535.483,156.1l-.312.566-.561.307.561.312.312.561.307-.561.566-.312-.566-.307Z" transform="translate(-347.443 -120.208)" fill="#fd9827"/>
        <path id="Path_107589" data-name="Path 107589" d="M547.013,251.12l-.307.566-.566.307.566.307.307.566.312-.566.566-.307-.566-.307Z" transform="translate(-353.379 -168.89)" fill="#fd9827"/>
        <path id="Path_107590" data-name="Path 107590" d="M522,194.558a5.891,5.891,0,0,1,6.023-.322c2.16,1.024,6.608,2.4,7.627.888l.634-5.247a14.377,14.377,0,0,1-6.037-1.517c-2.809-1.492-7.681-.488-7.681-.488Z" transform="translate(-340.997 -136.316)" fill="#fd9827"/>
        <path id="Path_107591" data-name="Path 107591" d="M534.007,190.242a2.521,2.521,0,0,1,1.4,3.555c-.658,1.141-2.638,1.234-3.779.575a2.385,2.385,0,0,1-.873-3.258A2.557,2.557,0,0,1,534.007,190.242Z" transform="translate(-345.306 -137.584)" fill="#fd9827"/>
        <g id="Group_59688" data-name="Group 59688" transform="translate(185.128 52.431)" opacity="0.4">
          <path id="Path_107592" data-name="Path 107592" d="M534.007,190.242a2.521,2.521,0,0,1,1.4,3.555c-.658,1.141-2.638,1.234-3.779.575a2.385,2.385,0,0,1-.873-3.258A2.557,2.557,0,0,1,534.007,190.242Z" transform="translate(-530.434 -190.015)"/>
        </g>
        <path id="Path_107593" data-name="Path 107593" d="M536.036,193.249a.732.732,0,0,0-.117-.219.917.917,0,0,0-.171-.166,1.149,1.149,0,0,0-.327-.166c.054-.38.088-.732.112-1.014a2.08,2.08,0,0,1,.4.063c.107.02.268.049.283,0s-.049-.112-.2-.215a2.051,2.051,0,0,0-.488-.21c0-.2,0-.322-.034-.322s-.073.1-.122.278l-.093-.029h-.171c0-.244,0-.4-.029-.4s-.088.151-.146.41a.852.852,0,0,0-.239.044.936.936,0,0,0-.58.488.907.907,0,0,0,0,.863.816.816,0,0,0,.151.19,1.249,1.249,0,0,0,.185.141,1.422,1.422,0,0,0,.166.063c-.039.322-.068.614-.088.863a1.879,1.879,0,0,1-.278-.054c-.166-.034-.268-.044-.283,0s.054.107.2.2a2.009,2.009,0,0,0,.283.161h.058a1.369,1.369,0,0,0,.025.444c.024,0,.083-.146.141-.395a.972.972,0,0,0,.214.063h.073c0,.078,0,.127.034.132s.044-.044.073-.132a.975.975,0,0,0,.415-.063.83.83,0,0,0,.317-.2.873.873,0,0,0,.21-.371A.806.806,0,0,0,536.036,193.249Zm-.761-1.585h.034c-.054.263-.107.59-.161.946l-.117-.034H535c.044-.317.078-.614.1-.868A1.119,1.119,0,0,1,535.275,191.664Zm-.668.336a.487.487,0,0,1,.244-.234c-.039.2-.073.434-.112.683a.351.351,0,0,1-.107-.1A.385.385,0,0,1,534.607,192Zm.346,1.951h-.161c.044-.224.088-.488.132-.78l.151.044c-.034.278-.054.532-.068.736a.168.168,0,0,1-.044-.02Zm.385-.088a.752.752,0,0,1-.112,0c.039-.171.073-.371.112-.595a.185.185,0,0,1,.083.039.246.246,0,0,1,.063.059.113.113,0,0,1,.039.058.274.274,0,0,1,0,.156.351.351,0,0,1-.185.268Z" transform="translate(-347.118 -138.011)" fill="#fd9827"/>
        <g id="Group_59689" data-name="Group 59689" transform="translate(181.472 51.747)" opacity="0.4">
          <path id="Path_107594" data-name="Path 107594" d="M533.376,195.867a18.528,18.528,0,0,1-5.223-1.721l-1-.439a4.243,4.243,0,0,0-4.028.575l-.166-.034.561-5.155h.054a9.856,9.856,0,0,1,7.905.8,11.1,11.1,0,0,0,4.628.975h.1l-.6,4.76h-.044A4.614,4.614,0,0,1,533.376,195.867Zm-7.217-2.58a3.6,3.6,0,0,1,1.058.268c.3.122.644.273,1,.439,2.058.917,5.159,2.3,7.227,1.507l.566-4.482a10.885,10.885,0,0,1-4.623-1,9.661,9.661,0,0,0-7.715-.8l-.522,4.813a3.6,3.6,0,0,1,.414-.249A4.834,4.834,0,0,1,526.159,193.287Z" transform="translate(-522.96 -188.611)"/>
        </g>
        <path id="Path_107595" data-name="Path 107595" d="M625.04,325.336a5.886,5.886,0,0,1-5.774-1.736c-1.687-1.692-5.413-4.5-6.881-3.414L610,324.916a14.38,14.38,0,0,1,5.174,3.462c2.141,2.355,7.062,3.058,7.062,3.058Z" transform="translate(-386.452 -204.15)" fill="#fd9827"/>
        <path id="Path_107596" data-name="Path 107596" d="M621.153,332a2.526,2.526,0,0,1-.112-3.818c1-.849,2.9-.268,3.745.736a2.38,2.38,0,0,1-.283,3.355A2.545,2.545,0,0,1,621.153,332Z" transform="translate(-391.69 -208.16)" fill="#fd9827"/>
        <g id="Group_59690" data-name="Group 59690" transform="translate(228.533 119.61)" opacity="0.4">
          <path id="Path_107597" data-name="Path 107597" d="M621.153,332a2.526,2.526,0,0,1-.112-3.818c1-.849,2.9-.268,3.745.736a2.38,2.38,0,0,1-.283,3.355A2.545,2.545,0,0,1,621.153,332Z" transform="translate(-620.223 -327.77)"/>
        </g>
        <path id="Path_107598" data-name="Path 107598" d="M622.789,330.438a.7.7,0,0,0,.034.244.867.867,0,0,0,.1.215,1.188,1.188,0,0,0,.254.263c-.18.346-.332.663-.449.922-.137-.068-.263-.141-.356-.2s-.239-.132-.263-.107,0,.122.112.268a1.79,1.79,0,0,0,.376.361c-.073.185-.1.3-.073.317s.1-.068.2-.224c.029,0,.044.039.078.059a1.577,1.577,0,0,0,.161.063c-.093.229-.137.376-.107.39s.132-.117.273-.337a1.292,1.292,0,0,0,.239.039.975.975,0,0,0,.707-.244.921.921,0,0,0,.273-.819.946.946,0,0,0-.078-.234,1.379,1.379,0,0,0-.132-.2,1.415,1.415,0,0,0-.132-.117c.146-.288.273-.551.376-.78l.239.146c.151.088.244.127.268.1s0-.117-.117-.263a2.639,2.639,0,0,0-.215-.244l-.049-.034c.1-.249.156-.41.127-.424s-.132.107-.268.322a1.077,1.077,0,0,0-.18-.132l-.063-.024v-.137s-.058,0-.112.093a1.185,1.185,0,0,0-.415-.078.862.862,0,0,0-.366.083.839.839,0,0,0-.322.278A.79.79,0,0,0,622.789,330.438Zm.18,1.751h-.034c.141-.234.3-.517.488-.839l.1.073h0c-.146.283-.278.551-.385.78A1.041,1.041,0,0,1,622.969,332.188Zm.741-.1a.488.488,0,0,1-.307.141l.336-.6a.4.4,0,0,1,.068.127A.39.39,0,0,1,623.711,332.091Zm.322-1.951a.71.71,0,0,1,.151.068c-.117.2-.249.429-.39.688l-.127-.088c.127-.254.234-.488.312-.678.024.024.024.02.054.029Zm-.39-.049a.958.958,0,0,1,.117,0c-.092.151-.195.327-.307.522a.881.881,0,0,1-.068-.063.384.384,0,0,1-.039-.078.169.169,0,0,1,0-.068.288.288,0,0,1,.034-.151.356.356,0,0,1,.263-.141Z" transform="translate(-392.653 -209.096)" fill="#fd9827"/>
        <g id="Group_59691" data-name="Group 59691" transform="translate(224.245 116.279)" opacity="0.4">
          <path id="Path_107599" data-name="Path 107599" d="M615.78,321.457a18.577,18.577,0,0,1,4.335,3.384c.288.273.556.532.795.751a4.233,4.233,0,0,0,3.984.814l.141.093-2.268,4.662h-.054a9.846,9.846,0,0,1-7.169-3.414,11.222,11.222,0,0,0-4.028-2.487l-.088-.034,2.17-4.287h.049A4.476,4.476,0,0,1,615.78,321.457Zm5.92,4.877a3.821,3.821,0,0,1-.9-.61c-.239-.219-.488-.488-.8-.751-1.624-1.561-4.077-3.9-6.291-3.862l-2.043,4.028a11.133,11.133,0,0,1,4.009,2.507A9.69,9.69,0,0,0,622.666,331l2.116-4.355a3.617,3.617,0,0,1-.488.093,4.849,4.849,0,0,1-2.595-.4Z" transform="translate(-611.43 -320.94)"/>
        </g>
        <path id="Path_107600" data-name="Path 107600" d="M459.68,255.174a5.882,5.882,0,0,1,4.877-3.531c2.37-.312,6.862-1.565,6.891-3.414l-2.312-4.75a14.449,14.449,0,0,1-5.9,2c-3.17.268-6.72,3.745-6.72,3.745Z" transform="translate(-307.28 -164.975)" fill="#fd9827"/>
        <path id="Path_107601" data-name="Path 107601" d="M467.7,249.218a2.526,2.526,0,0,1,3.1,2.229c.063,1.317-1.546,2.468-2.863,2.531a2.385,2.385,0,0,1-2.5-2.258A2.565,2.565,0,0,1,467.7,249.218Z" transform="translate(-311.84 -167.88)" fill="#fd9827"/>
        <g id="Group_59692" data-name="Group 59692" transform="translate(153.595 81.269)" opacity="0.4">
          <path id="Path_107602" data-name="Path 107602" d="M467.7,249.218a2.526,2.526,0,0,1,3.1,2.229c.063,1.317-1.546,2.468-2.863,2.531a2.385,2.385,0,0,1-2.5-2.258A2.565,2.565,0,0,1,467.7,249.218Z" transform="translate(-465.434 -249.149)"/>
        </g>
        <path id="Path_107603" data-name="Path 107603" d="M470.817,251.819a.663.663,0,0,0-.215-.122.978.978,0,0,0-.234-.049,1.078,1.078,0,0,0-.361.044c-.166-.351-.327-.668-.463-.917.141-.068.278-.127.38-.166s.249-.1.244-.141-.1-.073-.283-.078a1.951,1.951,0,0,0-.488.083c-.107-.171-.18-.263-.21-.254s0,.122.054.3a.652.652,0,0,0-.093,0l-.146.088c-.127-.21-.215-.332-.244-.317s0,.171.1.419a1.388,1.388,0,0,0-.176.166.975.975,0,0,0-.234.712.912.912,0,0,0,.488.712.828.828,0,0,0,.234.078.945.945,0,0,0,.234,0,.66.66,0,0,0,.171-.034c.141.293.273.556.39.775l-.258.1c-.161.063-.249.112-.244.151s.107.063.283.068a2.145,2.145,0,0,0,.327-.024.172.172,0,0,1,.054,0c.137.234.234.371.263.356s0-.166-.093-.41a1.383,1.383,0,0,0,.21-.059l.063-.039c.049.068.083.1.1.093s0-.059,0-.146a1.113,1.113,0,0,0,.317-.278.908.908,0,0,0,.156-.346.88.88,0,0,0,0-.419A.819.819,0,0,0,470.817,251.819Zm-1.5-.922h.029c.1.249.229.551.38.883l-.117.034h-.029c-.137-.288-.273-.556-.39-.78a1.56,1.56,0,0,1,.127-.137Zm-.38.649a.487.487,0,0,1,.078-.332c.083.2.176.4.278.634a.312.312,0,0,1-.141,0A.4.4,0,0,1,468.94,251.546Zm1.341,1.434-.146.078c-.083-.215-.19-.488-.307-.732l.146-.044c.127.254.244.488.346.658C470.305,252.95,470.3,252.97,470.281,252.979Zm.273-.283c0,.029-.054.054-.078.083-.063-.166-.141-.356-.229-.561h.093a.229.229,0,0,1,.083,0,.146.146,0,0,1,.068.029.278.278,0,0,1,.1.122A.346.346,0,0,1,470.554,252.7Z" transform="translate(-313.381 -168.428)" fill="#fd9827"/>
        <g id="Group_59693" data-name="Group 59693" transform="translate(150.025 79.217)" opacity="0.4">
          <path id="Path_107604" data-name="Path 107604" d="M470.088,250.66a18.737,18.737,0,0,1-5.325,1.385c-.39.059-.761.117-1.078.176a4.238,4.238,0,0,0-3.072,2.668l-.156.059-2.326-4.613.034-.039a9.841,9.841,0,0,1,7.076-3.618,11.423,11.423,0,0,0,4.423-1.687l.078-.049,2.082,4.331v.039A4.6,4.6,0,0,1,470.088,250.66Zm-7.466,1.741a3.74,3.74,0,0,1,1.034-.346c.317-.059.693-.117,1.083-.176,2.224-.346,5.579-.863,6.891-2.648l-1.951-4.072a11.082,11.082,0,0,1-4.428,1.663,9.67,9.67,0,0,0-6.92,3.511l2.17,4.331a3.079,3.079,0,0,1,.215-.429,4.876,4.876,0,0,1,1.907-1.834Z" transform="translate(-458.13 -244.94)"/>
        </g>
      </g>
    </g>
  </g>
</svg>
