<svg xmlns="http://www.w3.org/2000/svg" xmlns:xlink="http://www.w3.org/1999/xlink" width="400" height="243" viewBox="0 0 400 243">
  <defs>
    <clipPath id="clip-path">
      <rect id="Rectangle_404599" data-name="Rectangle 404599" width="400" height="243" rx="8" transform="translate(810.051 8793.012)" fill="#f3f0ea"/>
    </clipPath>
    <clipPath id="clip-path-2">
      <rect id="Rectangle_404861" data-name="Rectangle 404861" width="486" height="486" transform="translate(-0.012 -0.012)" fill="none"/>
    </clipPath>
  </defs>
  <g id="Mask_Group_1098737" data-name="Mask Group 1098737" transform="translate(-810.051 -8793.012)" clip-path="url(#clip-path)">
    <g id="Group_1112135" data-name="Group 1112135" transform="translate(755.063 8778.012)">
      <rect id="Rectangle_404860" data-name="Rectangle 404860" width="486" height="486" transform="translate(-0.012 -0.012)" fill="#c1c9fc"/>
      <g id="Group_1112134" data-name="Group 1112134">
        <g id="Group_1112133" data-name="Group 1112133" clip-path="url(#clip-path-2)">
          <path id="Path_901609" data-name="Path 901609" d="M428.831,177.536a159.459,159.459,0,0,1,2.5,68.9c-4.16,22.345-13.471,43.787-27.856,61.447a130.644,130.644,0,0,1-50.755,37.887,116.857,116.857,0,0,1-63.342,7.591c-22.86-3.6-44.37-12.645-65.966-20.557-21.364-7.815-43.7-14.978-66.744-13.918-11.945.554-23.531,3.742-35.35,5.346-10.74,1.468-22.2,1.545-31.822-4.15C71.725,309.556,69.2,286.074,69.247,267.432c.01-6.891.369-13.763,1.03-20.615.058-20.042,4.111-40,10.954-58.823,8.543-23.531,21.2-45.39,35.544-65.84,12.888-18.35,27.487-35.729,44.661-50.24,16.893-14.278,36.439-25.65,57.977-31.151,22.637-5.773,46.547-4.879,69.116.729a191.191,191.191,0,0,1,63.692,29.615,207.541,207.541,0,0,1,47.441,46.187,176.677,176.677,0,0,1,29.168,60.242" transform="translate(-1.942 -1.033)" fill="#dce2fd"/>
          <path id="Path_901610" data-name="Path 901610" d="M440.321,58.06c0,16.355-16.131,29.624-36.034,29.624q-1.575,0-3.111-.112a9.577,9.577,0,0,0-5.91,1.611c-7.471,4.885-17.055,5.535-17.055,5.535.075-.05.138-.1.213-.15a9.767,9.767,0,0,0,.363-15.593c-6.51-5.349-10.533-12.745-10.533-20.916,0-16.368,16.131-29.624,36.034-29.624s36.034,13.256,36.034,29.624" transform="translate(-10.328 -0.798)" fill="#a0a8fb"/>
          <path id="Path_901611" data-name="Path 901611" d="M417.379,51.147a21.838,21.838,0,1,1-27.223-14.581,21.842,21.842,0,0,1,27.223,14.581" transform="translate(-10.507 -0.999)" fill="#e8a03f"/>
          <path id="Path_901612" data-name="Path 901612" d="M414,52.307a18.195,18.195,0,1,1-22.682-12.149A18.211,18.211,0,0,1,414,52.307" transform="translate(-10.612 -1.104)" fill="#ecb45e"/>
          <path id="Path_901613" data-name="Path 901613" d="M403.114,68.719l1.115,3.686-4.683,1.416L398.482,70.3a20.412,20.412,0,0,1-9.238.257l.8-6.475a16.653,16.653,0,0,0,8.314-.194c2.226-.673,2.881-1.379,2.64-2.176-.883-2.924-13.022,3.321-15.643-5.346-1.135-3.754.633-7.733,5.849-10.142l-1.1-3.621,4.682-1.416,1.075,3.553a18.122,18.122,0,0,1,7.325-.111l-.642,6.392a14.97,14.97,0,0,0-7,.23c-2.292.693-2.821,1.579-2.58,2.376.843,2.789,12.992-3.421,15.582,5.146,1.085,3.586-.561,7.493-5.437,9.947" transform="translate(-10.799 -1.155)" fill="#e8a03f"/>
          <path id="Path_901614" data-name="Path 901614" d="M415.2,80.156,402.71,67.668l5.8-5.8L415.2,68.56l17.542-17.541,5.8,5.8Z" transform="translate(-11.295 -1.431)" fill="#6455e7"/>
          <path id="Path_901615" data-name="Path 901615" d="M64.384,62.858c0,14.407,14.209,26.1,31.743,26.1q1.386,0,2.74-.1a8.431,8.431,0,0,1,5.207,1.42c6.581,4.3,15.023,4.876,15.023,4.876-.066-.045-.121-.088-.188-.132a8.6,8.6,0,0,1-.319-13.737c5.735-4.71,9.278-11.226,9.278-18.424,0-14.419-14.209-26.1-31.742-26.1s-31.743,11.677-31.743,26.1" transform="translate(-1.806 -1.031)" fill="#a0a8fb"/>
          <path id="Path_901616" data-name="Path 901616" d="M135.009,32.5l-4.8,17.922-4.284-4.284-18.055,18.04-7.782-7.8L87.366,69.1l-6.315-6.315-8.686,8.672-4.2-4.195L81.051,54.392l6.315,6.315L100.085,48l7.782,7.782,13.86-13.845-4.64-4.64Z" transform="translate(-1.912 -0.911)" fill="#6455e7"/>
          <path id="Path_901617" data-name="Path 901617" d="M373.518,145.065c-.35,4.121-.953,9.146-1.613,14.152-.068.554-.136,1.118-.224,1.672-1.419,10.682-3.033,20.7-3.033,20.7s-.894.2-2.43.437a58.891,58.891,0,0,1-11.615.7l.35,1.137,11.265,35.525a111.066,111.066,0,0,1-16.358,10.04h-.019c-.914.457-1.808.884-2.751,1.293-5.841,2.6-12.062,4.384-17.106,3.587a65.677,65.677,0,0,1-8.388-2.031c-.914-.292-1.837-.593-2.76-.9a183.446,183.446,0,0,1-18.642-7.659c-.729-.34-1.4-.661-1.992-.972-1.905-.914-3.033-1.487-3.033-1.487l.146-1.963.855-11.323.165-2.206v-.01l1.186-15.853s-5.414-16.533-5.5-19.449a14.43,14.43,0,0,1,1.069-4.413c.194-.564.4-1.118.622-1.662,1-2.527,2.08-4.743,2.08-4.743l-8.864-9.02s3.45-6.6,7.086-12.665c.292-.476.583-.943.884-1.419,2.323-3.791,4.636-7.144,6.055-8.194a12.905,12.905,0,0,1,1.954-1.118c6.026-3.032,20.275-7.62,20.275-7.62l-.35,2.9s-3.081,5.909,0,9.545c.573.68,1.691.544,3.159-.136a15.272,15.272,0,0,0,2.031-1.1c6.794-4.247,17.34-15.085,17.34-15.085l-.224-3.616s8.009,2.5,10.429,8c0,0,.243.136.68.4a.655.655,0,0,1,.117.058l.087.058q.306.19.729.437c.194.117.408.253.641.389.185.117.379.243.583.369.457.292.962.612,1.5.962.311.2.622.418.953.632,1.468.991,3.11,2.148,4.7,3.4,3.995,3.13,7.766,6.891,8.194,10.069a46.426,46.426,0,0,1-.233,8.184" transform="translate(-8.047 -3.144)" fill="#e8a03f"/>
          <path id="Path_901618" data-name="Path 901618" d="M383.52,432.294l6.772,18.181-48.077,17.876s-4.977-4.6-5.637-6.6c-.66-2.014,12.612-7.872,25.426-22.48A47.6,47.6,0,0,0,382.47,432.9Z" transform="translate(-9.439 -12.124)" fill="#222a40"/>
          <path id="Path_901619" data-name="Path 901619" d="M295.041,441.374c-.085-.017-.187-.051-.271-.068l-1.676-.473s-1.575-111.2-1.575-121.867,3.775-94.613,3.775-94.613S316.3,235.2,330.117,237.4c13.8,2.184,36.227-14.914,36.227-14.914,15.845,13.492-2.353,108.121-2.353,108.121,20.672,17.415,18.52,95.663,18.52,95.663l-.254.135-1.05.609a47.56,47.56,0,0,1-20.466,6.365c-.575.051-1.168.085-1.76.1l-28.372-114.1-7.077,23.734c7.289,18.552-4.874,98.557-4.874,98.557l-1.321.287a47.944,47.944,0,0,1-22.295-.592" transform="translate(-8.176 -6.24)" fill="#7f85fa"/>
          <path id="Path_901620" data-name="Path 901620" d="M324.628,112.158a5.6,5.6,0,0,1-3.081-1.084c-1.981-1.676-9.378-11.122-10.106-16.5a37.35,37.35,0,0,1-.119-5.418c.153-4.875.711-11.207,1.084-14.964a.106.106,0,0,1,.017-.068c.525-5.417,7.111-10.7,7.111-10.7s9.124-.728,13.407,6.432c4.266,7.161,16.589,8.769,16.589,8.769a5.326,5.326,0,0,1,2.252.135,6.2,6.2,0,0,1,3.724,3.284,7.088,7.088,0,0,1,.694,2.489,8.743,8.743,0,0,1-.1,2.488,10.18,10.18,0,0,1-3.759,6.229,9.731,9.731,0,0,1-5.654,2.049,19.982,19.982,0,0,1-1.541,4.588c-3.978,8.329-12.544,11.207-14.439,11.647a20.879,20.879,0,0,1-6.078.626" transform="translate(-8.731 -1.778)" fill="#e48c59"/>
          <path id="Path_901621" data-name="Path 901621" d="M346.136,111.789l.22,3.622S326.9,135.387,323.824,131.73c-3.081-3.64,0-9.548,0-9.548l.355-2.894c16.082,2.319,21.279-18.35,21.279-18.35Z" transform="translate(-9.044 -2.831)" fill="#e48c59"/>
          <path id="Path_901622" data-name="Path 901622" d="M331.069,112.585c1.9-.44,10.462-3.318,14.44-11.647,0,0-5.2,20.67-21.279,18.35l.761-6.078a20.843,20.843,0,0,0,6.078-.626" transform="translate(-9.094 -2.831)" fill="#222a40"/>
          <path id="Path_901623" data-name="Path 901623" d="M317.874,448v19.552H266.581s-3.047-6.043-2.98-8.16c.086-2.064,14.018-2.945,30.657-11.7a47.957,47.957,0,0,0,22.295.593Z" transform="translate(-7.393 -12.556)" fill="#222a40"/>
          <path id="Path_901624" data-name="Path 901624" d="M328.23,131.348c-.186.711-.357,1.438-.541,2.15-1.152,4.35-2.438,9.294-5.588,12.663-3.166,3.419-8.007,4.1-12.375,2.979-6.3-1.642-10.647-6.568-15.506-10.648.289-.474.576-.948.88-1.422,1.152.931,2.253,1.913,3.352,2.894,3.419,3.047,7.042,6.264,11.562,7.5,4.385,1.168,9.024.254,11.765-3.555a22.106,22.106,0,0,0,2.811-5.958c.61-1.812,1.151-3.657,1.608-5.5a15.434,15.434,0,0,0,2.032-1.1" transform="translate(-8.252 -3.684)" fill="#ecb45e"/>
          <path id="Path_901625" data-name="Path 901625" d="M373.606,159.458c-.068.559-.135,1.118-.22,1.676-2.523-.372-5.045-.728-7.568-1.083-4.723-.677-9.666-1.389-13.56-4.368a11.543,11.543,0,0,1-4.418-11.444c.83-5.044,3.64-9.785,5.824-14.338,1.456-3.047,2.912-6.06,4.4-9.091.373.221.863.525,1.456.881-1.608,3.268-3.182,6.534-4.757,9.819-2.065,4.3-4.807,8.854-5.366,13.678-.559,4.672,1.963,8.4,6.026,10.5,4.232,2.218,9.311,2.522,13.966,3.182,1.405.2,2.81.407,4.215.593" transform="translate(-9.751 -3.388)" fill="#ecb45e"/>
          <path id="Path_901626" data-name="Path 901626" d="M353.952,185.823c-5.9-7.249-13.019-15.552-23.137-15.949a15.031,15.031,0,0,0-11.375,4.24c-3.307,3.438-4.479,8.422-5.922,12.82l-5.908,18.009c-.341,1.037,1.294,1.482,1.632.45l4.858-14.808c.808-2.461,1.6-4.926,2.424-7.382a27.625,27.625,0,0,1,2.5-5.779,12.657,12.657,0,0,1,10.344-5.85,19.915,19.915,0,0,1,12.185,3.988c4.414,3.068,7.84,7.325,11.2,11.458.688.845,1.88-.36,1.2-1.2" transform="translate(-8.626 -4.764)" fill="#ecb45e"/>
          <path id="Path_901627" data-name="Path 901627" d="M350.865,232.209c-.914.457-1.812.881-2.759,1.287a17.3,17.3,0,0,1-8.515-4.334c-5.383-5.1-7.871-14.3-15.709-16.387a.85.85,0,0,1,.439-1.642c3.86,1.032,6.755,3.86,9.091,6.975,2.337,3.1,4.147,6.585,6.874,9.361a16.252,16.252,0,0,0,10.105,4.706,4.58,4.58,0,0,0,.474.034" transform="translate(-9.067 -5.921)" fill="#ecb45e"/>
          <path id="Path_901628" data-name="Path 901628" d="M300.084,201.977c-.762,2.438-1.591,4.791-2.4,7.059a.913.913,0,0,1-1.337.44.7.7,0,0,1-.305-.9c.153-.44.322-.864.474-1.3v-.017c1.151-3.2,2.269-6.416,3.166-9.7,1.727-6.45,2.506-13.407.507-19.891a20.244,20.244,0,0,0-6.923-10.123c.2-.559.406-1.117.626-1.659a20.318,20.318,0,0,1,4.266,4.165c7.178,9.412,5.265,21.261,1.93,31.927" transform="translate(-8.225 -4.653)" fill="#ecb45e"/>
          <path id="Path_901629" data-name="Path 901629" d="M321.917,235.428c-.914-.288-1.828-.593-2.759-.9a23.469,23.469,0,0,0-7.685-6.653,13.952,13.952,0,0,0-10.953-1.016c-.728-.338-1.4-.66-2-.965a15.12,15.12,0,0,1,12.882.068c4.435,2,7.77,5.535,10.513,9.463" transform="translate(-8.373 -6.296)" fill="#ecb45e"/>
          <path id="Path_901630" data-name="Path 901630" d="M323.068,82.971a14.993,14.993,0,0,1,1.334,6.068c-.015,3.351-2.252,5.508-3.525,5.354s-3.626-1.587-3.436-3.326a7.243,7.243,0,0,1,1.468-2.134,67.767,67.767,0,0,0,4.16-5.961" transform="translate(-8.903 -2.327)" fill="#e07045"/>
          <path id="Path_901631" data-name="Path 901631" d="M322.385,95.368a.47.47,0,0,1-.126-.017,10.863,10.863,0,0,1-4.718-2.631,2.088,2.088,0,0,1-.036-2.947,45.974,45.974,0,0,0,5.735-8.158.486.486,0,0,1,.852.468,46.962,46.962,0,0,1-5.856,8.331,1.13,1.13,0,0,0-.019,1.608,9.88,9.88,0,0,0,4.3,2.391.486.486,0,0,1-.126.955" transform="translate(-8.888 -2.282)" fill="#222a40"/>
          <path id="Path_901632" data-name="Path 901632" d="M330.983,81.871a2.528,2.528,0,1,0,2.643-2.752,2.71,2.71,0,0,0-2.643,2.752" transform="translate(-9.283 -2.219)" fill="#222a40"/>
          <path id="Path_901633" data-name="Path 901633" d="M314.792,81.074a2.528,2.528,0,1,0,2.643-2.752,2.71,2.71,0,0,0-2.643,2.752" transform="translate(-8.829 -2.197)" fill="#222a40"/>
          <path id="Path_901634" data-name="Path 901634" d="M333.346,73.335a14.359,14.359,0,0,1,4.875,1.565,1.33,1.33,0,0,1,.568.818,1.35,1.35,0,0,1-.184,1.009,1.329,1.329,0,0,1-.817.567,1.487,1.487,0,0,1-1.009-.183c-.083-.044-.167-.085-.251-.126a12.664,12.664,0,0,0-2.941-.955c-.123-.019-.247-.041-.371-.057a1.414,1.414,0,0,1-.913-.433,1.32,1.32,0,0,1,1.043-2.2" transform="translate(-9.31 -2.057)" fill="#222a40"/>
          <path id="Path_901635" data-name="Path 901635" d="M319.827,72.675a14.382,14.382,0,0,0-5.006,1.078,1.328,1.328,0,0,0-.644.758,1.321,1.321,0,0,0,.841,1.668,1.493,1.493,0,0,0,1.022-.084c.087-.035.174-.067.261-.1a12.609,12.609,0,0,1,3.021-.661c.124-.008.25-.018.374-.021a1.418,1.418,0,0,0,.952-.34,1.32,1.32,0,0,0-.821-2.3" transform="translate(-8.81 -2.038)" fill="#222a40"/>
          <path id="Path_901636" data-name="Path 901636" d="M318.46,100.659a7.116,7.116,0,0,0,7.535,4.319c4.17-.471,5.38-4.245,5.708-6.211a.89.89,0,0,0-1.006-1.041l-11.548,1.694a.877.877,0,0,0-.689,1.238" transform="translate(-8.929 -2.741)" fill="#fff"/>
          <path id="Path_901637" data-name="Path 901637" d="M348.712,93.647a.4.4,0,0,1-.068,0,.486.486,0,0,1-.414-.549,13.478,13.478,0,0,1,5.522-9.005.486.486,0,0,1,.558.8,12.487,12.487,0,0,0-5.117,8.345.486.486,0,0,1-.48.418" transform="translate(-9.767 -2.356)" fill="#222a40"/>
          <path id="Path_901638" data-name="Path 901638" d="M337,87.333c-5.447,0-5.456,8.464,0,8.464s5.456-8.464,0-8.464" transform="translate(-9.337 -2.449)" fill="#e07045"/>
          <path id="Path_901639" data-name="Path 901639" d="M330.857,320.589a.485.485,0,0,1-.47-.363l-15.825-60.867-13.981-10.5a.485.485,0,0,1,.582-.777l14.119,10.6a.482.482,0,0,1,.179.265l15.867,61.031a.486.486,0,0,1-.47.608" transform="translate(-8.425 -6.955)" fill="#222a40"/>
          <path id="Path_901640" data-name="Path 901640" d="M379.492,429.483a.486.486,0,0,1-.485-.458c-.04-.695-4.07-69.666-8.534-80.29a63.347,63.347,0,0,0-10.885-17.422.484.484,0,0,1-.13-.389c.074-.66,7.381-66.19,8.306-79.979a49.065,49.065,0,0,0-5.067-24.556.486.486,0,0,1,.849-.473,50.072,50.072,0,0,1,5.188,25.094c-.9,13.409-7.815,75.582-8.286,79.8a65.159,65.159,0,0,1,10.921,17.548c4.529,10.776,8.443,77.764,8.608,80.61a.485.485,0,0,1-.457.513h-.028" transform="translate(-10.082 -6.329)" fill="#222a40"/>
          <path id="Path_901641" data-name="Path 901641" d="M292.149,171.945a.484.484,0,0,1-.474-.387c-.878-4.223,8.89-22.6,9.306-23.384a.486.486,0,1,1,.858.458c-2.789,5.23-9.883,19.508-9.214,22.728a.485.485,0,0,1-.377.575.491.491,0,0,1-.1.01" transform="translate(-8.179 -4.149)" fill="#222a40"/>
          <path id="Path_901642" data-name="Path 901642" d="M382.882,130.239a26.079,26.079,0,0,1-6.25,10.934,18.741,18.741,0,0,1-2.566,2.158,46.426,46.426,0,0,0,.233-8.184c-.428-3.178-4.2-6.94-8.194-10.069-1.594-1.254-3.237-2.41-4.7-3.4-.321-.214-.642-.428-.953-.632-.535-.35-1.04-.671-1.5-.962-.2-.126-.4-.253-.583-.369-.233-.136-.447-.272-.641-.389q-.423-.248-.729-.437l-.087-.058a.655.655,0,0,0-.117-.058c-.437-.262-.68-.4-.68-.4-2.42-5.5-10.429-8-10.429-8l-.671-10.857a20.672,20.672,0,0,0,1.536-4.588,9.737,9.737,0,0,0,5.657-2.051,10.131,10.131,0,0,0,3.752-6.23,8.518,8.518,0,0,0,.107-2.488,7.066,7.066,0,0,0-.7-2.488,6.143,6.143,0,0,0-3.723-3.275,5.166,5.166,0,0,0-2.245-.136s-12.324-1.613-16.591-8.777c-4.286-7.154-13.413-6.425-13.413-6.425s-6.58,5.278-7.1,10.691a.1.1,0,0,0-.019.068c-.3,3.023-.719,7.708-.943,11.965-1.118-3.373-2.236-6.221-2.236-6.221-.428-3.47-3.256-7.824-2.478-14.813s16.125-13.423,16.125-13.423a52.671,52.671,0,0,1,7.863-.982c6.065-.311,14.191.321,18.8,4.986,6.308,6.376,7.989,18.71,9.146,27.176a44.749,44.749,0,0,0,10.808,17.4c4.277,4.131,9.622,7.377,12.509,12.577,2.964,5.326,2.809,11.936,1.021,17.758" transform="translate(-8.596 -1.41)" fill="#222a40"/>
          <path id="Path_901643" data-name="Path 901643" d="M309.82,77.5a.486.486,0,0,1-.356-.155,26.435,26.435,0,0,1-5.085-6.812,9.232,9.232,0,0,1,.035-8.51c1.367-2.287,3.886-3.561,5.911-4.586q6.155-3.11,12.336-6.174a.485.485,0,1,1,.431.87q-6.174,3.062-12.327,6.172c-1.914.967-4.294,2.17-5.518,4.216a8.271,8.271,0,0,0,.018,7.608,25.61,25.61,0,0,0,4.911,6.553.486.486,0,0,1-.356.817" transform="translate(-8.508 -1.436)" fill="#222a40"/>
          <path id="Path_901644" data-name="Path 901644" d="M380.876,134.36a.486.486,0,0,1-.33-.843c4.062-3.756,7.768-7.525,8.508-12.336.616-4-1.027-8.6-4.509-12.617a56.063,56.063,0,0,0-7.365-6.686c-1.077-.869-2.192-1.766-3.259-2.683a68.156,68.156,0,0,1-21.985-36.564.486.486,0,0,1,.949-.213,67.192,67.192,0,0,0,21.668,36.039c1.057.907,2.166,1.8,3.238,2.663a56.957,56.957,0,0,1,7.489,6.806c3.67,4.235,5.4,9.119,4.735,13.4-.787,5.12-4.617,9.024-8.808,12.9a.488.488,0,0,1-.33.129" transform="translate(-9.87 -1.74)" fill="#222a40"/>
          <path id="Path_901645" data-name="Path 901645" d="M324.909,133.068a1.828,1.828,0,0,1-1.467-.623c-3.254-3.839-.191-9.829-.059-10.083a.486.486,0,1,1,.861.449c-.029.056-2.891,5.666-.059,9.006.467.556,1.663.163,2.583-.262a14.788,14.788,0,0,0,1.977-1.069c6.668-4.168,17.144-14.9,17.249-15.012a.486.486,0,0,1,.7.677c-.106.109-10.664,10.929-17.43,15.158a15.641,15.641,0,0,1-2.1,1.132,5.743,5.743,0,0,1-2.256.627" transform="translate(-9.03 -3.235)" fill="#222a40"/>
          <path id="Path_901646" data-name="Path 901646" d="M219.8,127.09l-2.962,3.657-1.4,1.727-12.8,15.794.288,5.214,1.321,23.869v.017l.135,2.218,2.269,41.017.221,3.91h-.017c-.745.2-24.58,6.636-47.281,7.076-18.1.356-29.676-10.157-33.823-14.693a25.437,25.437,0,0,1-1.71-2.031l1.76-13.9L137.29,171.46v-.052c-14.288.542-22.65-3.538-27.119-7.025a17.9,17.9,0,0,1-4.4-4.655s3.148-14.1,6.263-27.119c.136-.559.271-1.134.39-1.693,1.947-8.16,3.809-15.608,4.791-18.57,2.59-7.838,27.458-14.931,27.458-14.931l.1-.1a12.874,12.874,0,0,1,1.389-1.354,11.665,11.665,0,0,1,5.857-2.929h.017l-.22,2.98s9.226,15.658,17.2,17.893a6.441,6.441,0,0,0,.745.169,6.18,6.18,0,0,0,1.777,0c6.349-.964,9.752-12.323,9.752-12.323l-1.219-4.334a19.833,19.833,0,0,1,10.7,1.2,15.911,15.911,0,0,1,1.524.762,14.951,14.951,0,0,1,2.573,1.828c6.281,5.569,24.935,25.883,24.935,25.883" transform="translate(-2.967 -2.609)" fill="#7f85fa"/>
          <path id="Path_901647" data-name="Path 901647" d="M192.526,202.2c-8.34,5.562-16.611,11.247-25.036,16.68-3.67,2.366-7.864,4.66-12.389,4-3.973-.576-7.436-3.12-9.909-6.183-3.2-3.959-4.9-8.9-6.569-13.637-.36-1.021-2-.581-1.633.45,2.87,8.144,6.523,17.478,15.478,20.472,4.308,1.44,8.679.384,12.585-1.685,4.532-2.4,8.719-5.563,12.981-8.405l15.346-10.233c.9-.6.055-2.068-.854-1.462" transform="translate(-3.841 -5.667)" fill="#a0a8fb"/>
          <path id="Path_901648" data-name="Path 901648" d="M294.129,79.347a20.3,20.3,0,1,1-20.3-20.3,20.3,20.3,0,0,1,20.3,20.3" transform="translate(-7.111 -1.656)" fill="#e8a03f"/>
          <path id="Path_901649" data-name="Path 901649" d="M290.841,79.445a16.911,16.911,0,1,1-16.912-16.912,16.927,16.927,0,0,1,16.912,16.912" transform="translate(-7.209 -1.754)" fill="#ecb45e"/>
          <path id="Path_901650" data-name="Path 901650" d="M276.785,91.074v3.579h-4.547V91.234a18.936,18.936,0,0,1-8.289-2.259l2.451-5.544a15.484,15.484,0,0,0,7.449,2.062c2.161,0,2.935-.45,2.935-1.227,0-2.837-12.48-.547-12.48-8.963,0-3.644,2.644-6.709,7.933-7.449V64.339h4.547v3.449a16.838,16.838,0,0,1,6.545,1.873l-2.289,5.514a13.915,13.915,0,0,0-6.289-1.678c-2.225,0-2.933.645-2.933,1.42,0,2.708,12.478.452,12.478,8.77,0,3.482-2.514,6.515-7.512,7.386" transform="translate(-7.403 -1.805)" fill="#e8a03f"/>
          <path id="Path_901651" data-name="Path 901651" d="M270.147,100.032v.017l-.017.085-9.175,6.112s-24.817,63.177-34.822,61.89c-10-1.3-20.416-15.032-20.416-15.032l-.288-5.215,17.166-21.177,2.946,2.353,21.651-29.608s1.879-13.153,2.472-15.744c.152-.711,1.269-1.371,2.826-1.929,4.114-1.524,11.343-2.455,12.341-2.235,1.388.288.474,2.674-.881,4.113s-6.06,3.944-6.06,3.944,2.015,2.657,1.27,7.6a19.556,19.556,0,0,0,10.986,4.825" transform="translate(-5.762 -2.23)" fill="#e48c59"/>
          <path id="Path_901652" data-name="Path 901652" d="M228.961,459.372c.068,2.116-3,8.16-3,8.16H174.688v-18.6a32.233,32.233,0,0,0,22.583-1.794c17.1,9.26,31.6,10.123,31.69,12.239" transform="translate(-4.899 -12.541)" fill="#7f85fa"/>
          <path id="Path_901653" data-name="Path 901653" d="M137.441,445.651a35.341,35.341,0,0,1-19.553-.44c-.846-.271-1.692-.559-2.522-.9,0,0,3.64-183.995,4.469-195.523.609-8.514,4.3-21.9,6.18-28.321,4.147,4.537,15.726,15.049,33.822,14.694,23.057-.44,47.3-7.077,47.3-7.077L195.607,440.776a32.225,32.225,0,0,1-22.582,1.794c-.507-.153-1-.3-1.49-.474l-1.117-.372L163.6,320.55,141.487,444.314l-.627.237a35.166,35.166,0,0,1-3.419,1.1" transform="translate(-3.236 -6.183)" fill="#222a40"/>
          <path id="Path_901654" data-name="Path 901654" d="M144.5,63.046A6.192,6.192,0,0,1,148.086,60a5.6,5.6,0,0,1,2.252-.119,6,6,0,0,0,4.029-5.772c.119-3.234.237-6.382,1.151-8.582a4.943,4.943,0,0,1,1.828-2.32s12.155,4.774,17.877-1.032c0,0,8.566.254,11.511,7.009a19.506,19.506,0,0,1,.372,3.013h.018s.237,2.166.525,5.231c.541,5.806,1.252,14.863.779,18.384-.728,5.4-3.843,14.694-5.84,16.37a5.348,5.348,0,0,1-2.285.864c-3.521.728-9.514.491-11.122-.255-1.88-.863-11.7-3.826-15.2-13.508a20.694,20.694,0,0,1-.779-2.725,10.009,10.009,0,0,1-9.429-8.278,8.42,8.42,0,0,1,.593-4.994,1.106,1.106,0,0,1,.135-.237" transform="translate(-4.028 -1.183)" fill="#e48c59"/>
          <path id="Path_901655" data-name="Path 901655" d="M181.428,97.059l1.219,4.334c-28.085,1.744-28.372-20.112-28.372-21.009v-.033c3.5,9.683,13.323,12.645,15.2,13.508,1.608.745,7.6.982,11.122.254Z" transform="translate(-4.327 -2.254)" fill="#222a40"/>
          <path id="Path_901656" data-name="Path 901656" d="M154.244,80.386c0,.9.288,22.751,28.372,21.008,0,0-4.317,14.39-12.274,12.155-7.973-2.235-17.2-17.894-17.2-17.894l.22-2.979Z" transform="translate(-4.295 -2.255)" fill="#e48c59"/>
          <path id="Path_901657" data-name="Path 901657" d="M191.073,42.086a12.082,12.082,0,0,1-.865,4.238,41.539,41.539,0,0,0-1.827,10.8l-.748-.019c-.292-3.062-.525-5.229-.525-5.229h-.019a19.194,19.194,0,0,0-.369-3.013,9.821,9.821,0,0,0-1.643-2.576q-.35.408-.729.787c-3.684,3.577-9.166,4.2-14.006,3.246a36.4,36.4,0,0,1-7.8-2.644,20.666,20.666,0,0,0-7.115-2.235c-.836,2.187-.953,5.219-1.069,8.349a5.989,5.989,0,0,1-4.034,5.764,5.65,5.65,0,0,0-2.245.126,6.164,6.164,0,0,0-3.587,3.042,6.892,6.892,0,0,1,1.234-8.835,17.461,17.461,0,0,1-2.615-8.991,7.554,7.554,0,0,1,1.293-4.753c1.487-1.886,4.043-2.352,6.327-3.013a75.3,75.3,0,0,0,9.195-3.742c1.37-.593,2.741-1.166,4.16-1.623,4.578-1.507,9.972-1.8,13.821,1.079a25.612,25.612,0,0,0,2.76,2.148c1.827,1.04,4.072.982,6.055,1.711a6.513,6.513,0,0,1,4.354,5.385" transform="translate(-4.014 -0.86)" fill="#222a40"/>
          <path id="Path_901658" data-name="Path 901658" d="M141.789,468.912c.829,3.369-1.727,7.212-1.727,7.212H113.468s-1.913-7.365-.931-9.48c.694-1.49,3.6-10.038,5.264-14.948a35.341,35.341,0,0,0,19.553.44c1.422,5.316,3.86,14.423,4.435,16.776" transform="translate(-3.148 -12.669)" fill="#7f85fa"/>
          <path id="Path_901659" data-name="Path 901659" d="M137.183,134.353c-4.757,2.928-10.479,3.284-15.828,2.015a36.965,36.965,0,0,1-9.141-3.674c.135-.559.271-1.134.39-1.693a34.9,34.9,0,0,0,10.682,4.046,18.366,18.366,0,0,0,14.49-3.148,23.412,23.412,0,0,0,7.652-11.156c2.59-7.651,1.575-15.642-.474-23.344a12.958,12.958,0,0,1,1.388-1.354,63.56,63.56,0,0,1,2.2,12.07c.71,9.8-2.556,20.822-11.359,26.239" transform="translate(-3.147 -2.694)" fill="#a0a8fb"/>
          <path id="Path_901660" data-name="Path 901660" d="M205.692,180.193a34.9,34.9,0,0,0-8.143-4.316c-8.548-3.183-17.774-3.962-26.34-7.11-7.5-2.759-14.643-7.719-17.521-15.49-3.047-8.278,1.084-16.37,6.061-22.87,3.842-5.01,8.717-9.886,11.324-15.726a6.257,6.257,0,0,0,1.778,0c-2.81,6.738-8.43,12.12-12.713,18.029-2.539,3.5-4.807,7.363-5.586,11.68a16.551,16.551,0,0,0,2.336,11.6c4.656,7.651,13.255,11.1,21.55,13.2,8.717,2.218,17.91,3.369,25.8,7.956q.66.381,1.321.813v.017Z" transform="translate(-4.281 -3.216)" fill="#a0a8fb"/>
          <path id="Path_901661" data-name="Path 901661" d="M219.209,130.908l-1.4,1.727c-1.22,0-2.439-.034-3.657-.136-8.532-.677-16.691-4.367-21.008-12.07a22.42,22.42,0,0,1,0-21.651,15.686,15.686,0,0,1,1.524.762,20.446,20.446,0,0,0,9.751,28.913,33,33,0,0,0,14.8,2.455" transform="translate(-5.339 -2.77)" fill="#a0a8fb"/>
          <path id="Path_901662" data-name="Path 901662" d="M178.1,61.242a21.789,21.789,0,0,0-.784,7.82c.385,4.224,3.057,6.658,4.425,6.3s3.771-2.464,3.373-4.63a9.089,9.089,0,0,0-1.832-2.506,83.77,83.77,0,0,1-5.181-6.985" transform="translate(-4.971 -1.718)" fill="#e07045"/>
          <path id="Path_901663" data-name="Path 901663" d="M180.133,76.666a.486.486,0,0,1-.2-.93,11,11,0,0,0,4.43-3.583,1.789,1.789,0,0,0-.206-2.256,57.888,57.888,0,0,1-7.273-9.738.486.486,0,0,1,.836-.5,56.933,56.933,0,0,0,7.151,9.575,2.762,2.762,0,0,1,.278,3.488,11.964,11.964,0,0,1-4.824,3.9.481.481,0,0,1-.2.042" transform="translate(-4.959 -1.667)" fill="#222a40"/>
          <path id="Path_901664" data-name="Path 901664" d="M171.625,62.8a2.528,2.528,0,1,1-2.5-2.878,2.711,2.711,0,0,1,2.5,2.878" transform="translate(-4.673 -1.681)" fill="#222a40"/>
          <path id="Path_901665" data-name="Path 901665" d="M187.836,62.8a2.529,2.529,0,1,1-2.5-2.878,2.71,2.71,0,0,1,2.5,2.878" transform="translate(-5.128 -1.681)" fill="#222a40"/>
          <path id="Path_901666" data-name="Path 901666" d="M170.142,53.678a17.946,17.946,0,0,0-6.183,1.654,1.662,1.662,0,0,0-.759.986,1.69,1.69,0,0,0,.166,1.272,1.67,1.67,0,0,0,.987.758,1.87,1.87,0,0,0,1.271-.166c.106-.05.214-.1.32-.143a15.83,15.83,0,0,1,3.731-1.012c.156-.017.311-.036.467-.05a1.766,1.766,0,0,0,1.167-.483,1.65,1.65,0,0,0-1.167-2.817" transform="translate(-4.576 -1.505)" fill="#222a40"/>
          <path id="Path_901667" data-name="Path 901667" d="M189.382,57.59a1.67,1.67,0,0,1-.987.758,1.866,1.866,0,0,1-1.271-.166c-.106-.05-.213-.1-.32-.143a15.8,15.8,0,0,0-3.731-1.011c-.156-.017-.31-.037-.467-.05a1.769,1.769,0,0,1-1.166-.484,1.65,1.65,0,0,1,1.166-2.817,17.979,17.979,0,0,1,6.184,1.654" transform="translate(-5.075 -1.505)" fill="#222a40"/>
          <path id="Path_901668" data-name="Path 901668" d="M152.118,74.218a.485.485,0,0,1-.483-.442,12.5,12.5,0,0,0-4.7-8.586.486.486,0,1,1,.6-.768,13.485,13.485,0,0,1,5.073,9.267.487.487,0,0,1-.44.528.352.352,0,0,1-.045,0" transform="translate(-4.116 -1.804)" fill="#222a40"/>
          <path id="Path_901669" data-name="Path 901669" d="M177.649,81.117a7.922,7.922,0,0,1-7.562-5.54.486.486,0,1,1,.927-.292,6.95,6.95,0,0,0,7.255,4.832.486.486,0,1,1,.087.968q-.354.032-.708.032" transform="translate(-4.77 -2.102)" fill="#222a40"/>
          <path id="Path_901670" data-name="Path 901670" d="M164.974,321.625a.45.45,0,0,1-.123-.017.485.485,0,0,1-.347-.593l17.654-67.288a.484.484,0,0,1,.187-.273l16.707-11.942a.487.487,0,0,1,.566.792l-16.564,11.839-17.609,67.119a.485.485,0,0,1-.469.363" transform="translate(-4.613 -6.771)" fill="#10141c"/>
          <path id="Path_901671" data-name="Path 901671" d="M185.314,257.04a.486.486,0,0,1-.069-.967l14.588-2.118a.486.486,0,0,1,.14.962l-14.589,2.118a.561.561,0,0,1-.07,0" transform="translate(-5.184 -7.123)" fill="#10141c"/>
          <path id="Path_901672" data-name="Path 901672" d="M117.948,445.952h-.027a.483.483,0,0,1-.458-.51c.1-1.755,9.6-175.575,9.711-184.868.117-9.345,3.884-30.343,3.922-30.554a.486.486,0,0,1,.957.173c-.038.21-3.792,21.129-3.907,30.392-.117,9.315-9.616,183.155-9.713,184.909a.485.485,0,0,1-.485.46" transform="translate(-3.294 -6.44)" fill="#10141c"/>
          <path id="Path_901673" data-name="Path 901673" d="M148.194,160.833a.485.485,0,0,1-.412-.742l6.9-11.138a.485.485,0,1,1,.825.511l-6.9,11.138a.484.484,0,0,1-.413.23" transform="translate(-4.143 -4.171)" fill="#222a40"/>
          <path id="Path_901674" data-name="Path 901674" d="M205.988,161.907h-.007a.486.486,0,0,1-.479-.493c.209-14.6-4.157-34.817-4.2-35.02a.486.486,0,1,1,.95-.206c.045.2,4.433,20.524,4.223,35.24a.486.486,0,0,1-.486.479" transform="translate(-5.646 -3.528)" fill="#222a40"/>
          <path id="Path_901675" data-name="Path 901675" d="M216.947,143.679a.486.486,0,0,1-.4-.765l8.9-12.713a.486.486,0,1,1,.8.558l-8.9,12.713a.484.484,0,0,1-.4.207" transform="translate(-6.071 -3.646)" fill="#222a40"/>
          <path id="Path_901676" data-name="Path 901676" d="M260.1,98.978a.481.481,0,0,1-.182-.036.486.486,0,0,1-.269-.632,13.715,13.715,0,0,0-.691-10.474.487.487,0,0,1,.237-.666c2.068-.908,7.417-3.9,7.329-6.828a.486.486,0,0,1,.472-.5.5.5,0,0,1,.5.471c.109,3.639-5.733,6.71-7.452,7.534a14.461,14.461,0,0,1,.506,10.827.488.488,0,0,1-.451.3" transform="translate(-7.261 -2.239)" fill="#222a40"/>
          <path id="Path_901677" data-name="Path 901677" d="M146.294,55.24a.487.487,0,0,1-.4-.213A24.053,24.053,0,0,1,141.78,42.9c-.156-2.7.341-4.681,1.517-6.042,1.553-1.8,4.052-2.255,6.255-2.659a97.638,97.638,0,0,0,22.055-6.815c1.746-.776,4.137-1.841,6.245-.841a5.708,5.708,0,0,1,2.693,3.383,10.868,10.868,0,0,1-.611,8.471.486.486,0,0,1-.861-.449,9.881,9.881,0,0,0,.555-7.7,4.782,4.782,0,0,0-2.191-2.826c-1.576-.746-3.47-.022-5.435.852a98.605,98.605,0,0,1-22.231,6.875c-2.189.4-4.409.808-5.737,2.346-1,1.161-1.423,2.91-1.283,5.35A23.1,23.1,0,0,0,146.7,54.481a.486.486,0,0,1-.4.759" transform="translate(-3.976 -0.733)" fill="#222a40"/>
          <path id="Path_901678" data-name="Path 901678" d="M308.69,209.12c-3,8.8-8.126,15.32-14.609,19.637l-3.25-6.687a31.608,31.608,0,0,0-20.568,5.248l.406,7.99a57.042,57.042,0,0,1-13.1-1.609c-1.269-.288-2.573-.643-3.861-1.032-.727-.237-1.473-.457-2.217-.711l-9.073-3.081-3.962-1.354q.762-.329,1.422-.66a3.538,3.538,0,0,0,.779-.457,6.675,6.675,0,0,0,2.285-8.481l-2.235-4.622-2.979-6.145a31.672,31.672,0,0,0-20.568,5.282l.371,7.228a53.163,53.163,0,0,1-11.68-8.008,39.19,39.19,0,0,1-12.018-19.1,36.884,36.884,0,0,1-.018-18.282c.323-1.269.695-2.54,1.135-3.843a46.982,46.982,0,0,1,17.334-23.107,46.839,46.839,0,0,1,6.332-3.758,45.8,45.8,0,0,1,6.416-2.59,46.474,46.474,0,0,1,29.319.22l25.088,8.533a46.509,46.509,0,0,1,23.784,18.282,45.919,45.919,0,0,1,3.656,6.568,46.585,46.585,0,0,1,1.813,34.533" transform="translate(-5.404 -3.891)" fill="#a0a8fb"/>
          <path id="Path_901679" data-name="Path 901679" d="M298.276,235.229a6.7,6.7,0,0,1-3.072,8.932,40.5,40.5,0,0,1-15.121,4.086,6.679,6.679,0,0,1-6.97-6.375l-.211-4.166-.4-7.984a31.646,31.646,0,0,1,20.562-5.258l3.247,6.7Z" transform="translate(-7.643 -6.292)" fill="#6455e7"/>
          <path id="Path_901680" data-name="Path 901680" d="M313.734,169.594a12.061,12.061,0,0,1-3.662,5.567,46.041,46.041,0,0,0-3.656-6.553,9.463,9.463,0,0,0,8-9.118,24.988,24.988,0,0,1-.681,10.1" transform="translate(-8.594 -4.473)" fill="#c1c9fc"/>
          <path id="Path_901681" data-name="Path 901681" d="M287.36,154.825l-.643,1.9-6.889-2.337-2.337-.813s0,.018-.017,0l-15.558-5.282-2.352-.813-10.157-3.453.642-1.879,9.277,3.148,2.116.728,17.808,6.044,2.1.711Z" transform="translate(-6.995 -3.987)" fill="#222a40"/>
          <path id="Path_901682" data-name="Path 901682" d="M255.15,235.274c1.283.382,2.576.733,3.854,1.023-2.562,2.33-7.358,2.97-9.929.755a36.819,36.819,0,0,1-5.218-5.583l9.071,3.084c.738.251,1.48.486,2.223.72" transform="translate(-6.839 -6.492)" fill="#6455e7"/>
          <path id="Path_901683" data-name="Path 901683" d="M268.221,152.167s-1.465,9.568-4.13,12.148c-2.654,2.6-10.369-.056-10.369-.056l-4.363-8.1s2.788-8.779,5.254-8.619c2.477.18,13.607,4.626,13.607,4.626" transform="translate(-6.994 -4.138)" fill="#6455e7"/>
          <path id="Path_901684" data-name="Path 901684" d="M243.647,219.9a6.691,6.691,0,0,1-2.277,8.488,5.6,5.6,0,0,1-.78.45c-.451.222-.918.438-1.422.661a39.586,39.586,0,0,1-13.714,3.419,6.657,6.657,0,0,1-6.959-6.353l-.244-4.911-.016,0-.364-7.24a31.629,31.629,0,0,1,20.568-5.274l2.972,6.142Z" transform="translate(-6.111 -5.861)" fill="#6455e7"/>
          <path id="Path_901685" data-name="Path 901685" d="M242.436,160.914c2.067.7,2.994,3.449,2.084,6.126s-3.312,4.274-5.381,3.57-3-3.433-2.089-6.11,3.318-4.289,5.386-3.587" transform="translate(-6.639 -4.509)" fill="#222a40"/>
          <path id="Path_901686" data-name="Path 901686" d="M231.621,185.585c-.083.347-.181.689-.285,1.047-2.785,8.191-11.432,7.593-21.209,4.269-9.488-3.225-16.543-7.822-14.452-15.551.065-.246.153-.5.24-.759,2.131-6.266,7.44-12.418,14.224-13.437a7.025,7.025,0,0,1,.879-.113,13.772,13.772,0,0,1,1.569-.039,13.953,13.953,0,0,1,4.085.763c9.328,3.171,16.739,15.507,14.966,23.719a.222.222,0,0,1-.017.1m-12.9-2.026c1.539.523,3.53-1.231,4.44-3.908.9-2.66.4-5.265-1.143-5.789s-3.53,1.232-4.434,3.893c-.911,2.677-.4,5.282,1.137,5.8m-11.059-9.124c.91-2.677.417-5.276-1.122-5.8s-3.53,1.231-4.44,3.908-.4,5.265,1.143,5.788,3.509-1.221,4.419-3.9" transform="translate(-5.478 -4.515)" fill="#6455e7"/>
          <path id="Path_901687" data-name="Path 901687" d="M223.79,180.02c-.91,2.677-2.9,4.431-4.44,3.908s-2.048-3.128-1.137-5.8c.9-2.66,2.9-4.415,4.434-3.892s2.048,3.128,1.143,5.788" transform="translate(-6.108 -4.884)" fill="#222a40"/>
          <path id="Path_901688" data-name="Path 901688" d="M205.525,213.219l-5.116,6a6.691,6.691,0,0,1-9.41.806,40.512,40.512,0,0,1-9.492-12.471,6.662,6.662,0,0,1,3-8.938l8.988-4.507a39.291,39.291,0,0,0,12.028,19.108" transform="translate(-5.071 -5.444)" fill="#6455e7"/>
          <path id="Path_901689" data-name="Path 901689" d="M225.355,134.089c1.813,1.189.46,5.538.089,6.628a47.4,47.4,0,0,0-12.747,6.359l-.255-.356c-.08-.027-4.306-1.481-4.825-5.109-.519-3.681,4.13-12.148,4.13-12.148s11.549,3.264,13.607,4.626" transform="translate(-5.822 -3.631)" fill="#6455e7"/>
          <path id="Path_901690" data-name="Path 901690" d="M215.881,157.287a6.344,6.344,0,0,1-.888,1.718c-2.067,1.086-3.619,1.756-3.619,1.756a6.848,6.848,0,0,0-.879.112c-2.067-.7-2.993-3.448-2.083-6.125a6.086,6.086,0,0,1,1.9-2.789,3.677,3.677,0,0,1,3.484-.782c2.067.7,3,3.433,2.089,6.11" transform="translate(-5.836 -4.235)" fill="#222a40"/>
          <path id="Path_901691" data-name="Path 901691" d="M206.722,168.855c1.539.523,2.031,3.123,1.122,5.8s-2.88,4.421-4.419,3.9-2.053-3.112-1.143-5.789,2.9-4.431,4.44-3.908" transform="translate(-5.661 -4.733)" fill="#222a40"/>
          <path id="Path_901692" data-name="Path 901692" d="M232.077,185.791a.469.469,0,0,1-.1-.011.486.486,0,0,1-.372-.577c1.776-8.23-5.753-20.132-14.647-23.156a13.52,13.52,0,0,0-3.944-.738,13.117,13.117,0,0,0-1.516.038.486.486,0,0,1-.215-.937c.085-.033,8.511-3.368,10.236-5.589a.486.486,0,0,1,.768.6c-1.3,1.677-5.707,3.78-8.43,4.969a14.779,14.779,0,0,1,3.414.74c9.293,3.159,17.149,15.64,15.284,24.28a.486.486,0,0,1-.474.384" transform="translate(-5.917 -4.337)" fill="#222a40"/>
          <path id="Path_901693" data-name="Path 901693" d="M303.73,218.508a.486.486,0,0,1-.369-.8,33.949,33.949,0,0,0,4.072-38.168.486.486,0,1,1,.855-.461,34.921,34.921,0,0,1-4.188,39.26.487.487,0,0,1-.369.17" transform="translate(-8.505 -5.015)" fill="#222a40"/>
          <path id="Path_901694" data-name="Path 901694" d="M252.733,157.874a.413.413,0,0,1-.069,0,.485.485,0,0,1-.413-.549c.375-2.652,2.9-4.391,5.2-4.738a11.316,11.316,0,0,1,6.938,1.54.486.486,0,1,1-.45.861,10.384,10.384,0,0,0-6.343-1.439c-1.945.294-4.075,1.731-4.384,3.913a.485.485,0,0,1-.48.418" transform="translate(-7.075 -4.277)" fill="#222a40"/>
          <path id="Path_901695" data-name="Path 901695" d="M222.008,140.945a.486.486,0,0,1-.486-.484,6.318,6.318,0,0,0-6.31-6.3.486.486,0,0,1-.485-.487.5.5,0,0,1,.487-.485,7.291,7.291,0,0,1,7.28,7.264.486.486,0,0,1-.484.488Z" transform="translate(-6.022 -3.736)" fill="#222a40"/>
          <path id="Path_901696" data-name="Path 901696" d="M215.7,220.918c-.187.881-1.422,1-1.422,1-.779.8-4.859,1.032-7.567.745a9.111,9.111,0,0,1-1.659-.271c-2.235-.643-11.309-3.995-14.593-6.229a35.021,35.021,0,0,1-6.517-6.382s-30.116-2.59-46.739-4.537a73.561,73.561,0,0,1-11.342-2.218c-10.631-2.911-17.707-7.651-17.843-11.444-.152-5.01,2.218-25.138,2.218-25.138,4.469,3.486,12.832,7.567,27.119,7.025v.051l-.627,3.166,47.958,14.761c3.453-2.878,12.95-3.114,16.472-3.284.881-.051,2.166-.236,3.606-.473,4.333-.762,10.038-2.049,10.275-1.643.322.525.152,3.64-1.05,4.757a94.6,94.6,0,0,1-8.752,5.2c-1.235.694-2.082,1.152-2.082,1.152l2.472,6.077,4.943,12.1s5.3,4.706,5.129,5.587" transform="translate(-3.029 -4.668)" fill="#e48c59"/>
          <path id="Path_901697" data-name="Path 901697" d="M136.474,173.035a65.093,65.093,0,0,1-17.792-2.239.486.486,0,0,1,.278-.931c9.344,2.79,20.34,2.189,22.385,2.046l8.38-30.415a.486.486,0,0,1,.937.258L142.192,172.5a.485.485,0,0,1-.426.355c-.051,0-2.134.182-5.292.182" transform="translate(-3.319 -3.958)" fill="#222a40"/>
          <path id="Path_901698" data-name="Path 901698" d="M123.018,183.729a.486.486,0,0,1-.345-.83,25.189,25.189,0,0,1,14.414-6.417.5.5,0,0,1,.19.018l15.151,4.663a.487.487,0,0,1,.322.607.482.482,0,0,1-.607.322l-15.057-4.634a24.665,24.665,0,0,0-13.724,6.127.483.483,0,0,1-.343.143" transform="translate(-3.437 -4.95)" fill="#222a40"/>
          <path id="Path_901699" data-name="Path 901699" d="M216.954,223.69a.487.487,0,0,1-.1-.01c-.2-.042-4.983-1.041-7.549-3.057s-5.649-7.357-5.779-7.583a.486.486,0,1,1,.842-.485c.031.054,3.135,5.417,5.538,7.3,2.385,1.873,7.1,2.859,7.144,2.868a.486.486,0,0,1-.1.962" transform="translate(-5.706 -5.955)" fill="#222a40"/>
          <path id="Path_901700" data-name="Path 901700" d="M209.216,224.529a.494.494,0,0,1-.2-.044c-5.479-2.5-11.2-7.72-11.44-7.941a.486.486,0,1,1,.657-.716c.057.053,5.85,5.338,11.186,7.773a.486.486,0,0,1-.2.928" transform="translate(-5.537 -6.05)" fill="#222a40"/>
          <path id="Path_901701" data-name="Path 901701" d="M365.786,183.989v.017s-1.591,14.525-5.146,22.8c-1.252,2.912-2.742,5.044-4.5,5.519-6.737,1.812-52.376,2.878-52.376,2.878s-4.2,2.911-8.871,6.044c-5.4,3.6-11.46,7.516-12.357,7.516a21.85,21.85,0,0,1-4.469-.78,27.926,27.926,0,0,1-4.249-.71c-2.979-.66-2.031-2.827-2.031-2.827l9.954-4.316,8.515-6.4a29.93,29.93,0,0,1-6.078,1.3,3.615,3.615,0,0,1-3.758-1.964l10.969-6.026a6.8,6.8,0,0,1,4.994-5.671,12.7,12.7,0,0,1,5.231-.372l37.834-5.959.711-13.186c9.7,3.995,20.8,2.911,25.629,2.132" transform="translate(-7.619 -5.101)" fill="#e48c59"/>
          <path id="Path_901702" data-name="Path 901702" d="M359.282,184.418c-2.539,0-4.4-.137-4.568-.15a55.487,55.487,0,0,1-17.817-4.057.484.484,0,0,1-.277-.479l2.117-25.883a.492.492,0,0,1,.524-.444.485.485,0,0,1,.444.524l-2.089,25.538a56.05,56.05,0,0,0,17.17,3.832c.094.006,9.334.685,15.12-1.016a.486.486,0,1,1,.273.932,41.764,41.764,0,0,1-10.9,1.2" transform="translate(-9.441 -4.302)" fill="#222a40"/>
          <path id="Path_901703" data-name="Path 901703" d="M278.235,229.547a.486.486,0,0,1-.188-.934c.064-.027,6.471-2.716,9.156-4.325a30.94,30.94,0,0,0,5.081-4.005.486.486,0,0,1,.687.687,31.259,31.259,0,0,1-5.27,4.151,102.026,102.026,0,0,1-9.279,4.388.49.49,0,0,1-.188.038" transform="translate(-7.79 -6.174)" fill="#222a40"/>
          <path id="Path_901704" data-name="Path 901704" d="M281.636,152.506a12.4,12.4,0,0,1-1.524,1.609l-2.336-.813s0,.017-.018,0L262.2,148.019l-2.352-.813c-.018-.051-.018-.118-.034-.169a13.691,13.691,0,0,1-.2-2.014,12.359,12.359,0,1,1,22.023,7.482" transform="translate(-7.281 -3.715)" fill="#e8a03f"/>
          <path id="Path_901705" data-name="Path 901705" d="M279.6,151.853a10.089,10.089,0,0,1-1.76,1.507s0,.018-.018,0l-15.557-5.282a9.644,9.644,0,0,1-.473-2.269,10.292,10.292,0,1,1,17.808,6.044" transform="translate(-7.341 -3.774)" fill="#ecb45e"/>
          <path id="Path_901706" data-name="Path 901706" d="M272.91,112.971a11.524,11.524,0,1,1-14.2-8,11.526,11.526,0,0,1,14.2,8" transform="translate(-7.02 -2.932)" fill="#e8a03f"/>
          <path id="Path_901707" data-name="Path 901707" d="M271.114,113.543a9.6,9.6,0,1,1-11.829-6.669,9.61,9.61,0,0,1,11.829,6.669" transform="translate(-7.075 -2.988)" fill="#ecb45e"/>
          <path id="Path_901708" data-name="Path 901708" d="M300.878,115.857a8.6,8.6,0,1,1-10.6-5.975,8.6,8.6,0,0,1,10.6,5.975" transform="translate(-7.965 -3.073)" fill="#e8a03f"/>
          <path id="Path_901709" data-name="Path 901709" d="M299.537,116.285a7.168,7.168,0,1,1-8.831-4.978,7.176,7.176,0,0,1,8.831,4.978" transform="translate(-8.006 -3.114)" fill="#ecb45e"/>
          <path id="Path_901710" data-name="Path 901710" d="M382.1,235.161a3.209,3.209,0,1,1-3.208,3.208,3.209,3.209,0,0,1,3.208-3.208" transform="translate(-10.627 -6.596)" fill="#c1c9fc"/>
          <path id="Path_901711" data-name="Path 901711" d="M408.535,235.161a3.209,3.209,0,1,1-3.208,3.208,3.209,3.209,0,0,1,3.208-3.208" transform="translate(-11.368 -6.596)" fill="#c1c9fc"/>
          <path id="Path_901712" data-name="Path 901712" d="M382.1,208.727a3.209,3.209,0,1,1-3.208,3.208,3.209,3.209,0,0,1,3.208-3.208" transform="translate(-10.627 -5.854)" fill="#c1c9fc"/>
          <path id="Path_901713" data-name="Path 901713" d="M408.535,208.727a3.209,3.209,0,1,1-3.208,3.208,3.209,3.209,0,0,1,3.208-3.208" transform="translate(-11.368 -5.854)" fill="#c1c9fc"/>
          <path id="Path_901714" data-name="Path 901714" d="M382.1,182.293a3.209,3.209,0,1,1-3.208,3.208,3.209,3.209,0,0,1,3.208-3.208" transform="translate(-10.627 -5.113)" fill="#c1c9fc"/>
          <path id="Path_901715" data-name="Path 901715" d="M408.535,182.293a3.209,3.209,0,1,1-3.208,3.208,3.209,3.209,0,0,1,3.208-3.208" transform="translate(-11.368 -5.113)" fill="#c1c9fc"/>
          <path id="Path_901716" data-name="Path 901716" d="M435.72,235.161a3.209,3.209,0,1,1-3.209,3.208,3.208,3.208,0,0,1,3.209-3.208" transform="translate(-12.131 -6.596)" fill="#c1c9fc"/>
          <path id="Path_901717" data-name="Path 901717" d="M462.153,235.161a3.209,3.209,0,1,1-3.208,3.208,3.209,3.209,0,0,1,3.208-3.208" transform="translate(-12.872 -6.596)" fill="#c1c9fc"/>
          <path id="Path_901718" data-name="Path 901718" d="M435.72,208.727a3.209,3.209,0,1,1-3.209,3.208,3.208,3.208,0,0,1,3.209-3.208" transform="translate(-12.131 -5.854)" fill="#c1c9fc"/>
          <path id="Path_901719" data-name="Path 901719" d="M462.153,208.727a3.209,3.209,0,1,1-3.208,3.208,3.209,3.209,0,0,1,3.208-3.208" transform="translate(-12.872 -5.854)" fill="#c1c9fc"/>
          <path id="Path_901720" data-name="Path 901720" d="M435.72,182.293a3.209,3.209,0,1,1-3.209,3.208,3.208,3.208,0,0,1,3.209-3.208" transform="translate(-12.131 -5.113)" fill="#c1c9fc"/>
          <path id="Path_901721" data-name="Path 901721" d="M462.153,182.293a3.209,3.209,0,1,1-3.208,3.208,3.209,3.209,0,0,1,3.208-3.208" transform="translate(-12.872 -5.113)" fill="#c1c9fc"/>
        </g>
      </g>
    </g>
  </g>
</svg>
