<svg xmlns="http://www.w3.org/2000/svg" xmlns:xlink="http://www.w3.org/1999/xlink" width="295" height="135.122" viewBox="0 0 295 135.122">
  <defs>
    <clipPath id="clip-path">
      <rect id="Rectangle_404863" data-name="Rectangle 404863" width="77.159" height="88.836" fill="none"/>
    </clipPath>
    <clipPath id="clip-path-2">
      <rect id="Rectangle_404864" data-name="Rectangle 404864" width="121.464" height="89.803" fill="none"/>
    </clipPath>
    <clipPath id="clip-path-4">
      <rect id="Rectangle_404862" data-name="Rectangle 404862" width="137.811" height="135.122" fill="none"/>
    </clipPath>
  </defs>
  <g id="Group_1112146" data-name="Group 1112146" transform="translate(-285.051 -10610)">
    <rect id="Rectangle_404603" data-name="Rectangle 404603" width="295" height="115" rx="8" transform="translate(285.051 10630)" fill="#e6dcfb"/>
    <g id="Group_1112140" data-name="Group 1112140" transform="translate(485.491 10610)">
      <g id="Group_1112139" data-name="Group 1112139" clip-path="url(#clip-path)">
        <path id="Path_901790" data-name="Path 901790" d="M77.159,2.262V86.574A2.262,2.262,0,0,1,74.9,88.836H2.262A2.262,2.262,0,0,1,0,86.574V2.262A2.262,2.262,0,0,1,2.262,0H74.9a2.262,2.262,0,0,1,2.262,2.262" transform="translate(0 0)" fill="#00184c"/>
        <path id="Path_901791" data-name="Path 901791" d="M65.048,108.917H35.4a.92.92,0,1,0,0,1.84H65.1a.92.92,0,0,0,.919-.97.956.956,0,0,0-.971-.871" transform="translate(-11.211 -35.409)" fill="#fcfbff"/>
        <path id="Path_901792" data-name="Path 901792" d="M65.048,101.718H35.4a.92.92,0,1,0,0,1.84H65.1a.92.92,0,0,0,.919-.97.956.956,0,0,0-.971-.871" transform="translate(-11.211 -33.068)" fill="#fcfbff"/>
        <path id="Path_901793" data-name="Path 901793" d="M65.048,116.674H35.4a.92.92,0,1,0,0,1.84H65.1a.92.92,0,0,0,.919-.97.956.956,0,0,0-.971-.871" transform="translate(-11.211 -37.931)" fill="#fcfbff"/>
        <path id="Path_901794" data-name="Path 901794" d="M77.159,2.262v9.29H0V2.262A2.262,2.262,0,0,1,2.262,0H74.9a2.262,2.262,0,0,1,2.262,2.262" transform="translate(0 0)" fill="#fcfbff"/>
        <path id="Path_901795" data-name="Path 901795" d="M70.926,47.99a14.675,14.675,0,0,1-.528,3.9c2.826-.295,5.64-.682,8.448-1.111A22.818,22.818,0,0,0,56.2,25.177q-.931,0-1.846.075c-.02,2.719-.076,5.437-.146,8.155A14.7,14.7,0,0,1,70.926,47.99" transform="translate(-17.624 -8.185)" fill="#fcfbff"/>
        <path id="Path_901796" data-name="Path 901796" d="M60.078,52.9a14.721,14.721,0,1,1-16.8-19.265c.072-2.737.128-5.475.149-8.212a22.813,22.813,0,1,0,25.253,26.36c-2.86.435-5.727.825-8.6,1.118" transform="translate(-7.595 -8.265)" fill="#1574dd"/>
      </g>
    </g>
    <g id="Group_1112145" data-name="Group 1112145" transform="translate(297.051 10614.914)">
      <g id="Group_1112142" data-name="Group 1112142">
        <g id="Group_1112141" data-name="Group 1112141" clip-path="url(#clip-path-2)">
          <path id="Path_901797" data-name="Path 901797" d="M113.939,93.647H3.763A3.763,3.763,0,0,1,0,89.884V9.865A3.763,3.763,0,0,1,3.763,6.1H113.939A3.763,3.763,0,0,1,117.7,9.865v80.02a3.763,3.763,0,0,1-3.763,3.763" transform="translate(0 -3.844)" fill="#1574dd"/>
          <path id="Path_901798" data-name="Path 901798" d="M124.109,87.545H13.933a3.763,3.763,0,0,1-3.763-3.763V3.763A3.763,3.763,0,0,1,13.933,0H124.109a3.763,3.763,0,0,1,3.763,3.763v80.02a3.763,3.763,0,0,1-3.763,3.763" transform="translate(-6.407)" fill="#fcfbff"/>
        </g>
      </g>
      <text id="_50_100" data-name="50 / 100" transform="translate(43.828 25.021)" fill="#7040bf" font-size="5" font-family="Poppins-SemiBold, Poppins" font-weight="600"><tspan x="0" y="0">50 / 100</tspan></text>
      <g id="Group_1112144" data-name="Group 1112144">
        <g id="Group_1112143" data-name="Group 1112143" clip-path="url(#clip-path-2)">
          <rect id="Rectangle_404865" data-name="Rectangle 404865" width="12.229" height="19.137" transform="translate(90.491 38.346)" fill="#7040bf"/>
          <rect id="Rectangle_404866" data-name="Rectangle 404866" width="12.229" height="28.373" transform="translate(44.657 29.11)" fill="#7040bf"/>
          <rect id="Rectangle_404867" data-name="Rectangle 404867" width="12.229" height="24.641" transform="translate(68.354 32.842)" fill="#1574dd"/>
          <line id="Line_1123" data-name="Line 1123" x1="66.463" transform="translate(40.349 57.483)" fill="none" stroke="#1574dd" stroke-miterlimit="10" stroke-width="0.75"/>
          <path id="Path_901799" data-name="Path 901799" d="M81.9,40.69A12.98,12.98,0,0,0,70.15,33.221V46.2Z" transform="translate(-44.195 -20.93)" fill="#1574dd"/>
          <path id="Path_901800" data-name="Path 901800" d="M47.809,59.086a13.12,13.12,0,1,1,13.12-13.12,13.135,13.135,0,0,1-13.12,13.12m0-25.963A12.843,12.843,0,1,0,60.652,45.966,12.857,12.857,0,0,0,47.809,33.123" transform="translate(-21.854 -20.693)" fill="#7040bf"/>
          <rect id="Rectangle_404868" data-name="Rectangle 404868" width="12.842" height="1.975" transform="translate(43.827 9.093)" fill="#1574dd"/>
          <rect id="Rectangle_404869" data-name="Rectangle 404869" width="20.367" height="1.975" transform="translate(43.828 13.044)" fill="#7040bf"/>
          <rect id="Rectangle_404870" data-name="Rectangle 404870" width="20.367" height="1.975" transform="translate(43.828 16.337)" fill="#7040bf"/>
          <rect id="Rectangle_404871" data-name="Rectangle 404871" width="12.841" height="1.975" transform="translate(44.44 61.842)" fill="#1574dd"/>
          <rect id="Rectangle_404872" data-name="Rectangle 404872" width="20.367" height="1.975" transform="translate(44.44 65.792)" fill="#7040bf"/>
          <rect id="Rectangle_404873" data-name="Rectangle 404873" width="12.841" height="1.975" transform="translate(44.44 69.085)" fill="#7040bf"/>
          <rect id="Rectangle_404874" data-name="Rectangle 404874" width="12.842" height="1.975" transform="translate(76.022 61.842)" fill="#1574dd"/>
          <rect id="Rectangle_404875" data-name="Rectangle 404875" width="20.367" height="1.975" transform="translate(76.022 65.792)" fill="#7040bf"/>
          <rect id="Rectangle_404876" data-name="Rectangle 404876" width="12.842" height="1.975" transform="translate(76.022 69.085)" fill="#7040bf"/>
          <rect id="Rectangle_404877" data-name="Rectangle 404877" width="7.354" height="1.975" transform="translate(12.974 41.711)" fill="#7040bf"/>
          <rect id="Rectangle_404878" data-name="Rectangle 404878" width="11.664" height="1.975" transform="translate(12.974 45.662)" fill="#7040bf"/>
          <rect id="Rectangle_404879" data-name="Rectangle 404879" width="7.354" height="1.975" transform="translate(12.974 51.557)" fill="#7040bf"/>
          <rect id="Rectangle_404880" data-name="Rectangle 404880" width="11.664" height="1.975" transform="translate(12.974 55.508)" fill="#7040bf"/>
          <rect id="Rectangle_404881" data-name="Rectangle 404881" width="7.354" height="1.975" transform="translate(12.974 61.403)" fill="#7040bf"/>
          <rect id="Rectangle_404882" data-name="Rectangle 404882" width="11.664" height="1.975" transform="translate(12.974 65.354)" fill="#7040bf"/>
        </g>
      </g>
    </g>
    <g id="Group_1112137" data-name="Group 1112137" transform="translate(380.488 10610)">
      <g id="Group_1112136" data-name="Group 1112136" clip-path="url(#clip-path-4)">
        <path id="Path_901722" data-name="Path 901722" d="M169.753,162.48c5.862-30.132-17.929-57.8-48.617-57.062-10.856.262-23.121,2.386-31.333,9.353-17.865,15.156-19.935,58.6-.84,62.876,27.394,6.137,57.863,1.427,67.058.677,3.161-.258,12.1-7.475,13.733-15.844" transform="translate(-75.501 -45.838)" fill="#ffac00"/>
        <path id="Path_901723" data-name="Path 901723" d="M217.9,124.85a60.979,60.979,0,0,0-6.164,24.382,63.642,63.642,0,0,0,3.978,25.054,59.488,59.488,0,0,0,6.636,12.733c.171.248.58.013.407-.238a60.509,60.509,0,0,1-9.514-23.081,63.143,63.143,0,0,1,.355-25.177,58.975,58.975,0,0,1,4.709-13.435c.134-.271-.273-.51-.407-.238" transform="translate(-204.617 -54.243)" fill="#9e7035"/>
        <path id="Path_901724" data-name="Path 901724" d="M137.551,117.874s-15.093,5.9-12.208,22.616c1.721,9.97,18.471,7.347,32.612,6.475s23.275-10.082,18.088-15.258-38.492-13.832-38.492-13.832" transform="translate(-110.327 -51.262)" fill="#9e7035"/>
        <path id="Path_901725" data-name="Path 901725" d="M185.878,12.573s3.07-7.817-4.783-7.338c0,0-1.836-3.2-7.191-2.091S164.2,8.082,165,13.31s1.641,12.175-3.134,14-8.742,4.208-8.8,9.748,2.557,8.812,0,11.949,3,8.793,9.847,8.023,8.11-22.21,15.247-21.336,7.7-3.793,6.169-8.126,2.063-11.593,1.551-14.995" transform="translate(-134.798 -1.266)" fill="#00184c"/>
        <path id="Path_901726" data-name="Path 901726" d="M187.267,5.5s-.674-6.078-6.334-5.45-4.854,10.249,0,9.631A7.8,7.8,0,0,0,187.267,5.5" transform="translate(-149.472 0)" fill="#00184c"/>
        <path id="Path_901727" data-name="Path 901727" d="M162.948,49.316a70.858,70.858,0,0,0,8.916,5.383c3.693,1.7-.094,6.364.891,7.9s3.248,4.966,2.78,7.634-4.3,5.04-3.82,6.513,3.73,13.93,5.045,17.871c1.243,3.726-3.733,7.563-10.708,7.6s-8.046.934-15.61-.686c-7.055-1.511-10.463-4.171-8.793-7.217s4.5-7.291,5.688-13.142S145.361,71.265,142.712,62c-3.344-11.691,2.366-13.126,10.726-14.046a19.917,19.917,0,0,1,9.509,1.357" transform="translate(-118.951 -20.809)" fill="#1574dd"/>
        <path id="Path_901728" data-name="Path 901728" d="M139.223,61.841s5.267,7.919,5.739,11.377-6.4,3.723-6.4,3.723-2.129-11.511.662-15.1" transform="translate(-85.038 -26.894)" fill="#1574dd"/>
        <path id="Path_901729" data-name="Path 901729" d="M171.214,121.145a39.533,39.533,0,0,1-23.765,7.2.243.243,0,0,1,0-.486,39.1,39.1,0,0,0,23.52-7.131c.256-.181.5.241.245.42" transform="translate(-116.703 -52.482)" fill="#0559b5"/>
        <path id="Path_901730" data-name="Path 901730" d="M172.92,70.668c-1.494,2.887-5.9,2.437-8.587,2.316a44.538,44.538,0,0,1-12.481-2.4c-.3-.1-.116-.559.183-.456a44.1,44.1,0,0,0,11.118,2.3,33.189,33.189,0,0,0,5.352.049c1.5-.134,3.209-.536,3.959-1.986.144-.278.6-.1.456.183" transform="translate(-120.866 -30.49)" fill="#0559b5"/>
        <path id="Path_901731" data-name="Path 901731" d="M169.348,97.852a52.938,52.938,0,0,0-16.979,1.09c-.309.071-.383-.415-.076-.485A53.381,53.381,0,0,1,169.4,97.364a.246.246,0,0,1-.055.488" transform="translate(-117.754 -42.232)" fill="#0559b5"/>
        <path id="Path_901732" data-name="Path 901732" d="M187.69,69.127c.1,2.765,2.007,5.209,3.23,7.587a27.423,27.423,0,0,1,2.822,7.756,15.034,15.034,0,0,1-.679,7.876,47.141,47.141,0,0,1-3.793,7.211c-.765,1.312-1.658,2.562-2.321,3.93a7.928,7.928,0,0,0-.758,4.413c.033.314-.452.392-.485.077a9.732,9.732,0,0,1,1.722-6.342c1.469-2.4,2.994-4.8,4.245-7.329a15.442,15.442,0,0,0,1.747-8.6,24.371,24.371,0,0,0-2.675-8.251c-1.294-2.59-3.434-5.252-3.54-8.25-.011-.313.474-.392.485-.076" transform="translate(-161.089 -29.975)" fill="#0559b5"/>
        <path id="Path_901733" data-name="Path 901733" d="M161.91,48.686a8.117,8.117,0,0,0,2.453,3.6,18.854,18.854,0,0,0,5.812,3.373c1.793.652,3.98.689,5.34-.846a5.63,5.63,0,0,0,1.256-3.6c-.157-.1-.307-.2-.45-.3a5.388,5.388,0,0,1-1.145,3.57c-1.388,1.588-3.639,1.26-5.377.524-2.9-1.229-6.425-3.236-7.437-6.4-.152.023-.3.046-.451.071" transform="translate(-130.457 -21.142)" fill="#0559b5"/>
        <path id="Path_901734" data-name="Path 901734" d="M39.406,202.016l5.574,8.07s-1.372,3.581-4.887,4.094l-8.49-9.519Z" transform="translate(74.973 -87.854)" fill="#ffa189"/>
        <path id="Path_901735" data-name="Path 901735" d="M24.788,213.545,5.138,226.6a10.981,10.981,0,0,1-.653-.892c-.092-.137-.171-.279-.264-.415-1.839-2.659-5.529-8.331-3.746-8.32,2.627,1.339,5.193-1.662,5.193-1.662s.251-3.886,2.107-3.991,1.316,2.4,3.916,2.585c1.992.143,3.252-1.537,5.445-2.457a7.2,7.2,0,0,1,2.315-.554,5.652,5.652,0,0,1,4.321,1.414,5.126,5.126,0,0,1,1.017,1.242" transform="translate(113.023 -91.705)" fill="#00184c"/>
        <path id="Path_901736" data-name="Path 901736" d="M27.141,227.332a10.219,10.219,0,0,1,7.867,2.012c.241.185.476-.225.238-.407a10.679,10.679,0,0,0-8.23-2.06c-.3.048-.172.5.125.455" transform="translate(87.296 -98.605)" fill="#fff"/>
        <path id="Path_901737" data-name="Path 901737" d="M24.615,215.418a.311.311,0,0,1-.092.026,3.6,3.6,0,0,0-.86,1.578c-.075.288.379.379.453.092a3.119,3.119,0,0,1,.738-1.356.211.211,0,0,0-.232-.343l-.007,0" transform="translate(99.529 -93.672)" fill="#fff"/>
        <path id="Path_901738" data-name="Path 901738" d="M22.938,215.275a.316.316,0,0,1-.092.026,3.6,3.6,0,0,0-.86,1.578c-.075.288.379.379.453.092a3.113,3.113,0,0,1,.738-1.356.211.211,0,0,0-.232-.343l-.007,0" transform="translate(102.154 -93.61)" fill="#fff"/>
        <path id="Path_901739" data-name="Path 901739" d="M20.854,214.9a.333.333,0,0,1-.092.027,3.594,3.594,0,0,0-.86,1.578c-.075.288.379.379.453.092a3.119,3.119,0,0,1,.738-1.356.211.211,0,0,0-.232-.343l-.007,0" transform="translate(105.415 -93.446)" fill="#fff"/>
        <path id="Path_901740" data-name="Path 901740" d="M18.685,213.922a.332.332,0,0,1-.092.027,3.594,3.594,0,0,0-.86,1.578c-.075.288.379.379.453.092a3.122,3.122,0,0,1,.738-1.356.211.211,0,0,0-.232-.343l-.007,0" transform="translate(108.81 -93.021)" fill="#fff"/>
        <path id="Path_901741" data-name="Path 901741" d="M8.437,212.3,3.8,215.382a4.649,4.649,0,0,1-2-3.939,7.2,7.2,0,0,1,2.315-.554A5.647,5.647,0,0,1,8.437,212.3" transform="translate(128.357 -91.705)" fill="#fff"/>
        <path id="Path_901742" data-name="Path 901742" d="M20.576,214.648.926,227.7a10.986,10.986,0,0,1-.653-.892L0,226.4l19.559-12.99a5.126,5.126,0,0,1,1.017,1.242" transform="translate(117.235 -92.807)" fill="#00184c"/>
        <path id="Path_901743" data-name="Path 901743" d="M43.65,122.312s13.177-7.8,35.233-11.364c8.372-1.351,40.742,51.968,40.742,51.968l-9.779,7.147c-7.7-10.5-23.465-20.484-28.378-33.218-.422-1.093-11.574,2.717-24.845,5.756-34.507,5.17-15.477-10.9-12.973-20.289" transform="translate(-2.254 -48.239)" fill="#00184c"/>
        <path id="Path_901744" data-name="Path 901744" d="M52.12,150.191l4.454-.617-.29-.165a35.775,35.775,0,0,0,6.943,14.3,42.283,42.283,0,0,0,5.865,5.789c2.445,2.064,4.718,4.315,7.223,6.311a58.212,58.212,0,0,1,6.7,6.786c.2.225.536-.109.333-.334a67.78,67.78,0,0,0-5.717-5.972c-1.12-.971-2.3-1.861-3.417-2.843-1.169-1.031-2.305-2.1-3.469-3.136a69.132,69.132,0,0,1-6.135-5.689,35.123,35.123,0,0,1-7.87-15.334.242.242,0,0,0-.29-.164L52,149.736c-.3.042-.172.5.125.455" transform="translate(25.115 -64.848)" fill="#0d2f78"/>
        <path id="Path_901745" data-name="Path 901745" d="M165.718,40.387s4.454,6.269,9.5,2.735l-.346-2.947-.379-3.215-.264-2.251-6.538-4.3Z" transform="translate(-131.055 -13.226)" fill="#ffa189"/>
        <path id="Path_901746" data-name="Path 901746" d="M166.331,37.029c2.54,5.674,5,6.093,5.92,6.022l-.378-3.215Z" transform="translate(-128.436 -16.103)" fill="#00184c"/>
        <path id="Path_901747" data-name="Path 901747" d="M156.849,20.053c.5,2.26,1.086,3.032,2.587,5.293a8.335,8.335,0,0,0,5.062,3.336c4.635.669,6.922-1.08,6.75-7.436-.107-3.946,1.117-6.067.216-7.645h0c-.063-.075-.125-.146-.189-.217a8.859,8.859,0,0,0-5.954-2.872c-11.314-.833-9.191,6.3-8.47,9.541" transform="translate(-122.263 -4.542)" fill="#ffa189"/>
        <path id="Path_901748" data-name="Path 901748" d="M165.065,34.392a2.971,2.971,0,0,1-2.859-1.192c-.177-.245.183-.551.36-.3a2.5,2.5,0,0,0,2.418,1.032.236.236,0,0,1,.081.465" transform="translate(-119.081 -14.266)" fill="#00184c"/>
        <path id="Path_901749" data-name="Path 901749" d="M159.843,27.688c.006.319.206.574.445.57a.522.522,0,0,0,.422-.587c-.006-.319-.206-.575-.445-.57s-.428.268-.422.587" transform="translate(-113.229 -11.786)" fill="#00184c"/>
        <path id="Path_901750" data-name="Path 901750" d="M166.236,26.98c.006.319.206.575.445.57a.522.522,0,0,0,.422-.587c-.006-.319-.206-.575-.445-.57s-.428.268-.422.587" transform="translate(-123.235 -11.478)" fill="#00184c"/>
        <path id="Path_901751" data-name="Path 901751" d="M168.419,9.491c-6.616-3.872-12.616.132-13.851,2.637s-1.547,6.793-.038,6.157,4.111,1.828,5.288.245c.653-.878-.344-4-.344-4s5.284.87,4.7-2.568c0,0,2.84-2.277,4.352.03a6.463,6.463,0,0,1,1.3,3.981c1.793.167,3.342-3.708-1.4-6.484" transform="translate(-120.514 -3.427)" fill="#00184c"/>
        <path id="Path_901752" data-name="Path 901752" d="M164.775,37.939a1.274,1.274,0,0,1-1.326-.245c-.183-.185.113-.46.3-.275a.893.893,0,0,0,.938.127c.25-.073.342.32.093.393" transform="translate(-119.446 -16.246)" fill="#e87e64"/>
        <path id="Path_901753" data-name="Path 901753" d="M168.309,28.729c-.012.337.5.63,1.151.653s1.182-.232,1.195-.569-.5-.63-1.151-.653-1.183.232-1.195.569" transform="translate(-127.957 -12.246)" fill="#e87e64"/>
        <path id="Path_901754" data-name="Path 901754" d="M157.166,29.768c-.012.339.5.63,1.15.654a1.879,1.879,0,0,0,.8-.132c0-.286,0-.581-.008-.887,0-.013,0-.025,0-.037a1.955,1.955,0,0,0-.744-.166c-.647-.023-1.182.231-1.194.568" transform="translate(-110.118 -12.698)" fill="#e87e64"/>
        <path id="Path_901755" data-name="Path 901755" d="M168.225,22.642a.945.945,0,0,0-1.282.371c-.2.472-.977.236-.771-.242a1.733,1.733,0,0,1,2.3-.9c.474.2.237.974-.242.771" transform="translate(-124.801 -9.448)" fill="#00184c"/>
        <path id="Path_901756" data-name="Path 901756" d="M159.35,23.415c-.3-.394-.666-.961-1.233-.843-.509.105-.7-.68-.186-.787.9-.187,1.511.414,2.011,1.079.309.412-.279.966-.592.55" transform="translate(-111.296 -9.459)" fill="#00184c"/>
        <path id="Path_901757" data-name="Path 901757" d="M179.4,27.216a2.823,2.823,0,0,0-.258-2.452c-.578-.958-1.655-2.44-2.746-2.331-1.6.16-1.847,1.572-1.746,3.022s.979,3.379,2.982,3.151a2.046,2.046,0,0,0,1.769-1.39" transform="translate(-140.444 -9.754)" fill="#ffa189"/>
        <path id="Path_901758" data-name="Path 901758" d="M182.224,33.51a2.036,2.036,0,1,0-2.123,1.946,2.039,2.039,0,0,0,2.123-1.946m-.457-.02a1.579,1.579,0,1,1-1.508-1.646,1.581,1.581,0,0,1,1.508,1.646" transform="translate(-145.092 -13.649)" fill="#fff"/>
        <path id="Path_901759" data-name="Path 901759" d="M179.392,27.759a3.605,3.605,0,0,0,.005-1.781c-.166-.518-.686-1.287-1.348-1.114-.222.058-.351-.278-.127-.336a1.459,1.459,0,0,1,1.548.765,3.4,3.4,0,0,1,.275,2.529.18.18,0,0,1-.354-.063" transform="translate(-142.531 -10.65)" fill="#00184c"/>
        <path id="Path_901760" data-name="Path 901760" d="M167.925,27.242a2.7,2.7,0,0,0-.084-3.422,1.982,1.982,0,0,0-1.526-.687,2.3,2.3,0,0,0-2.061,2.487,2.619,2.619,0,0,0,.654,1.7,1.98,1.98,0,0,0,1.526.685c.053,0,.105,0,.157-.01a2,2,0,0,0,1.334-.749m-3.3-1.631a1.934,1.934,0,0,1,1.7-2.111,1.618,1.618,0,0,1,1.246.566,2.334,2.334,0,0,1,.072,2.945,1.57,1.57,0,0,1-2.462.06A2.249,2.249,0,0,1,164.621,25.61Z" transform="translate(-123.507 -10.06)" fill="#fff"/>
        <path id="Path_901761" data-name="Path 901761" d="M155.866,26.95a.207.207,0,0,0-.18-.028,2.8,2.8,0,0,1-.024-.293,2.3,2.3,0,0,1,2.061-2.487,1.982,1.982,0,0,1,1.526.686,2.7,2.7,0,0,1,.084,3.423A2,2,0,0,1,158,29q-.078.008-.158.01a1.98,1.98,0,0,1-1.526-.685,2.416,2.416,0,0,1-.327-.466.617.617,0,0,0-.123-.909m.721,1.129a1.57,1.57,0,0,0,2.462-.06,2.335,2.335,0,0,0-.072-2.945,1.62,1.62,0,0,0-1.246-.566,1.935,1.935,0,0,0-1.7,2.111,2.252,2.252,0,0,0,.559,1.46" transform="translate(-110.059 -10.499)" fill="#fff"/>
        <path id="Path_901762" data-name="Path 901762" d="M162.452,29.531h0a.785.785,0,0,0,.142-1.564l-.214-.685a.158.158,0,0,0-.3.094l.242.774a.158.158,0,0,0,.127.109c.023,0,.561.095.536.524-.023.4-.527.433-.549.435a.158.158,0,0,0,.014.315" transform="translate(-117.084 -11.816)" fill="#00184c"/>
        <path id="Path_901763" data-name="Path 901763" d="M163.746,27a.918.918,0,0,0-1-.249.137.137,0,0,0,.1.255.633.633,0,0,1,.68.157c.119.128.341-.034.22-.163" transform="translate(-117.891 -11.61)" fill="#fff"/>
        <path id="Path_901764" data-name="Path 901764" d="M174.365,24.646a4.664,4.664,0,0,0-3.058-1.575c-.175-.018-.22.253-.044.271a4.382,4.382,0,0,1,2.881,1.467c.116.131.339-.031.221-.163" transform="translate(-133.307 -10.033)" fill="#fff"/>
        <path id="Path_901765" data-name="Path 901765" d="M131.579,203.664l-1.421,9.7s-3.444,1.685-6.366-.334l.275-12.752Z" transform="translate(-63.725 -87.1)" fill="#ffa189"/>
        <path id="Path_901766" data-name="Path 901766" d="M124.262,230.295H100.673a10.912,10.912,0,0,1-.05-1.1c0-.165.012-.327.009-.492-.06-3.233,0-10,1.482-9,1.448,2.568,5.246,1.488,5.246,1.488s2.359-3.1,3.963-2.159-.229,2.724,1.832,4.32c1.581,1.221,3.559.519,5.9.965a7.2,7.2,0,0,1,2.235.819A5.646,5.646,0,0,1,124.1,228.7a5.12,5.12,0,0,1,.16,1.6" transform="translate(-43.32 -95.174)" fill="#00184c"/>
        <path id="Path_901767" data-name="Path 901767" d="M131.525,226.005a10.218,10.218,0,0,1,5.47,6.008c.1.286.553.163.455-.125a10.676,10.676,0,0,0-5.687-6.29c-.274-.124-.514.282-.238.407" transform="translate(-73.911 -98.099)" fill="#fff"/>
        <path id="Path_901768" data-name="Path 901768" d="M122.125,225.563a.307.307,0,0,1-.091-.029,3.6,3.6,0,0,0-1.589.839c-.222.2.106.525.327.327a3.112,3.112,0,0,1,1.364-.722.211.211,0,0,0,0-.414h-.008" transform="translate(-52.516 -98.082)" fill="#fff"/>
        <path id="Path_901769" data-name="Path 901769" d="M120.648,226.372a.3.3,0,0,1-.09-.029,3.6,3.6,0,0,0-1.59.839c-.221.2.107.525.327.327a3.118,3.118,0,0,1,1.365-.722.211.211,0,0,0,0-.414h-.008" transform="translate(-50.206 -98.433)" fill="#fff"/>
        <path id="Path_901770" data-name="Path 901770" d="M118.706,227.212a.306.306,0,0,1-.091-.029,3.6,3.6,0,0,0-1.589.839c-.222.2.106.525.327.327a3.113,3.113,0,0,1,1.364-.722.211.211,0,0,0,0-.414h-.008" transform="translate(-47.165 -98.799)" fill="#fff"/>
        <path id="Path_901771" data-name="Path 901771" d="M116.358,227.6a.313.313,0,0,1-.091-.029,3.592,3.592,0,0,0-1.589.839c-.222.2.106.525.327.327a3.113,3.113,0,0,1,1.364-.722.211.211,0,0,0,0-.414h-.008" transform="translate(-43.49 -98.966)" fill="#fff"/>
        <path id="Path_901772" data-name="Path 901772" d="M106.8,232.9h-5.565a4.649,4.649,0,0,1,.513-4.388,7.189,7.189,0,0,1,2.235.819A5.648,5.648,0,0,1,106.8,232.9" transform="translate(-26.019 -99.378)" fill="#fff"/>
        <path id="Path_901773" data-name="Path 901773" d="M124.256,237.875H100.667a10.912,10.912,0,0,1-.05-1.1v-.492H124.1a5.12,5.12,0,0,1,.16,1.6" transform="translate(-43.315 -102.754)" fill="#00184c"/>
        <path id="Path_901774" data-name="Path 901774" d="M112.733,123.012s20.888-8.394,42.948-11.936,4.55,55.125,4.55,55.125l-12.054-1.677s1.573-29.661.909-30.99c-.524-1.048-6.783,10.395-24.3,10.867-23,.6-15.638-15.407-12.052-21.389" transform="translate(-90.443 -48.239)" fill="#00184c"/>
        <path id="Path_901775" data-name="Path 901775" d="M174.748,174.746q.986-8.757,1.521-17.558.272-4.342.445-8.69c.071-1.794.482-4.679-1.637-5.516-2.16-.854-3.97,1.063-5.384,2.387a23.453,23.453,0,0,1-6.445,4.205,44.443,44.443,0,0,1-15.273,3.405,18.291,18.291,0,0,1-9.332-1.394,9.672,9.672,0,0,1-5.225-5.92.236.236,0,0,0-.455.125c1.241,4.507,5.721,6.981,10.092,7.553a32.181,32.181,0,0,0,8.123-.206,52.284,52.284,0,0,0,7.227-1.364,32.081,32.081,0,0,0,6.663-2.564,26.65,26.65,0,0,0,5.792-4.3c1-.936,2.293-1.931,3.755-1.574,1.487.363,1.7,1.983,1.693,3.273-.02,2.832-.223,5.675-.385,8.5-.376,6.56-.912,13.111-1.647,19.641-.034.3.438.3.472,0" transform="translate(-114.116 -62.089)" fill="#0d2f78"/>
        <path id="Path_901776" data-name="Path 901776" d="M196.729,125.022a24.2,24.2,0,0,1-4.641,6.868,22.32,22.32,0,0,1-3.227,2.787c-1.129.789-3.128,1.634-3.974-.01-.139-.27-.546-.032-.407.238a2.453,2.453,0,0,0,2.957,1.052,11.084,11.084,0,0,0,3.89-2.671,24.506,24.506,0,0,0,5.81-8.026c.124-.274-.283-.514-.407-.238" transform="translate(-163.584 -54.317)" fill="#0d2f78"/>
        <path id="Path_901777" data-name="Path 901777" d="M108.465,137.269q.682-7.026,1.364-14.053c.323-3.332.535-7.9-3.251-9.379-.283-.111-.406.345-.125.454,4.087,1.6,3.08,7.108,2.753,10.486q-.606,6.246-1.213,12.492c-.029.3.443.3.472,0" transform="translate(-32.247 -49.498)" fill="#0d2f78"/>
        <path id="Path_901778" data-name="Path 901778" d="M48.3,198.71a108.482,108.482,0,0,1-9.424,6.645c-.257.161-.02.57.238.407a109.713,109.713,0,0,0,9.52-6.719c.238-.188-.1-.519-.333-.333" transform="translate(67.182 -86.392)" fill="#0d2f78"/>
        <path id="Path_901779" data-name="Path 901779" d="M131.035,200.011l-11.979-1.077c-.3-.027-.3.445,0,.472l11.979,1.077c.3.027.3-.445,0-.472" transform="translate(-60.602 -86.513)" fill="#0d2f78"/>
        <path id="Path_901780" data-name="Path 901780" d="M160.47,72.271s-.076,14.378.934,16.492S181.039,91.7,181.039,91.7l.775,2.793s-19.422,6.828-26.749,1.868c-5.2-3.518-5.409-25.774-5.409-25.774Z" transform="translate(-128.575 -30.696)" fill="#ffa189"/>
        <path id="Path_901781" data-name="Path 901781" d="M188.882,103.182a12.934,12.934,0,0,0-2.972,1.029c-.272.133-.511-.274-.238-.407a13.507,13.507,0,0,1,3.086-1.076c.3-.064.422.391.125.455" transform="translate(-156.097 -44.672)" fill="#e87e64"/>
        <path id="Path_901782" data-name="Path 901782" d="M190.5,102.933a9.855,9.855,0,0,0-2.757-.761c-.3-.038-.3-.51,0-.472a10.685,10.685,0,0,1,2.995.825c.277.122.038.528-.238.407" transform="translate(-159.021 -44.227)" fill="#e87e64"/>
        <path id="Path_901783" data-name="Path 901783" d="M185.986,54.289a25.077,25.077,0,0,0-3.057,14.365l13.093-.418a39.293,39.293,0,0,0,1.008-11.368c-.33-3.334-1.979-4.911-3.831-5.605-2.983-1.12-5.623.264-7.212,3.026" transform="translate(-162.64 -22.124)" fill="#1574dd"/>
        <path id="Path_901784" data-name="Path 901784" d="M184.781,60.436a27.288,27.288,0,0,1-.723,11.425.236.236,0,0,0,.455.125,27.854,27.854,0,0,0,.723-11.676c-.045-.3-.5-.172-.455.125" transform="translate(-151.744 -26.154)" fill="#0559b5"/>
        <path id="Path_901785" data-name="Path 901785" d="M94.12,115.311l46.56-3.741.938-4.974-46.561,3.741Z" transform="translate(-56.995 -46.357)" fill="#7040bf"/>
        <path id="Path_901786" data-name="Path 901786" d="M94.8,93.248l26.028-2.091a2.06,2.06,0,0,0,1.816-1.793L126.115,67.5a2.17,2.17,0,0,0-2.169-2.6L97.593,67.011a2.688,2.688,0,0,0-2.371,2.339l-3.258,20.5a2.833,2.833,0,0,0,2.831,3.4" transform="translate(-40.282 -28.218)" fill="#7040bf"/>
        <path id="Path_901787" data-name="Path 901787" d="M91.008,92.943l26.027-2.091a2.06,2.06,0,0,0,1.817-1.792l3.475-21.869a2.17,2.17,0,0,0-2.169-2.6L93.806,66.706a2.688,2.688,0,0,0-2.371,2.339l-3.258,20.5a2.833,2.833,0,0,0,2.831,3.4" transform="translate(-34.355 -28.086)" fill="#7040bf"/>
        <path id="Path_901788" data-name="Path 901788" d="M113.218,90.29c-.136,1.766,1,3.1,2.541,2.974a3.654,3.654,0,0,0,3.034-3.421c.136-1.766-1-3.1-2.541-2.974a3.654,3.654,0,0,0-3.034,3.422" transform="translate(-44.968 -37.774)" fill="#0d2f78"/>
        <path id="Path_901789" data-name="Path 901789" d="M145.75,71.97l-3.4,21.941c-.046.3.408.425.454.125q1.7-10.971,3.4-21.941c.046-.3-.409-.425-.455-.125" transform="translate(-88.842 -31.224)" fill="#0d2f78"/>
      </g>
    </g>
  </g>
</svg>
