<svg xmlns="http://www.w3.org/2000/svg" xmlns:xlink="http://www.w3.org/1999/xlink" width="505" height="251" viewBox="0 0 505 251">
  <defs>
    <clipPath id="clip-path">
      <rect id="Rectangle_405023" data-name="Rectangle 405023" width="505" height="251" rx="15" transform="translate(915.051 9429)" fill="#ddeffd"/>
    </clipPath>
    <clipPath id="clip-path-2">
      <rect id="Rectangle_405022" data-name="Rectangle 405022" width="424.672" height="418.47" fill="none"/>
    </clipPath>
    <clipPath id="clip-path-4">
      <rect id="Rectangle_405011" data-name="Rectangle 405011" width="151.724" height="62.416" fill="none"/>
    </clipPath>
    <clipPath id="clip-path-5">
      <rect id="Rectangle_405012" data-name="Rectangle 405012" width="110.11" height="53.592" fill="none"/>
    </clipPath>
    <clipPath id="clip-path-6">
      <rect id="Rectangle_405013" data-name="Rectangle 405013" width="36.143" height="31.168" fill="none"/>
    </clipPath>
    <clipPath id="clip-path-7">
      <rect id="Rectangle_405014" data-name="Rectangle 405014" width="16.275" height="3.934" fill="none"/>
    </clipPath>
    <clipPath id="clip-path-8">
      <rect id="Rectangle_405015" data-name="Rectangle 405015" width="56.977" height="20.1" fill="none"/>
    </clipPath>
    <clipPath id="clip-path-9">
      <rect id="Rectangle_405018" data-name="Rectangle 405018" width="7.082" height="73.695" fill="none"/>
    </clipPath>
  </defs>
  <g id="Group_1112606" data-name="Group 1112606" transform="translate(-915.051 -9429)">
    <rect id="Rectangle_404695" data-name="Rectangle 404695" width="505" height="249" rx="15" transform="translate(915.051 9429)" fill="#ddeffd"/>
    <g id="Mask_Group_1098740" data-name="Mask Group 1098740" clip-path="url(#clip-path)">
      <g id="Group_1112404" data-name="Group 1112404" transform="translate(946.036 9409.997)">
        <g id="Group_1112403" data-name="Group 1112403" clip-path="url(#clip-path-2)">
          <g id="Group_1112402" data-name="Group 1112402">
            <g id="Group_1112401" data-name="Group 1112401" clip-path="url(#clip-path-2)">
              <path id="Path_902779" data-name="Path 902779" d="M180.637,151.141c-.437-16.644-2.832-94.649-2.864-94.649C84.78,59.926,14.2,76.687,14.2,96.845c0,15.779,44,72.327,106.635,60.423v-2.005c18.421-1.992,38.545-3.4,59.8-4.122" transform="translate(-1.809 -7.194)" fill="#b5a392"/>
              <g id="Group_1112385" data-name="Group 1112385" transform="translate(25.934 89.292)" opacity="0.15">
                <g id="Group_1112384" data-name="Group 1112384">
                  <g id="Group_1112383" data-name="Group 1112383" clip-path="url(#clip-path-4)">
                    <path id="Path_902780" data-name="Path 902780" d="M122.813,163.1V161.1c18.08-1.955,37.809-3.346,58.629-4.077-.792-26.216-1.674-54.7-1.693-54.7C110.993,104.861,54.5,114.686,29.718,127.783c17.626,20.608,51.188,43.286,93.1,35.322" transform="translate(-29.718 -102.322)" fill="#2d2d30"/>
                  </g>
                </g>
              </g>
              <path id="Path_902781" data-name="Path 902781" d="M165.4,101.633H111.752a2.188,2.188,0,0,1-2.188-2.189V32.368a2.188,2.188,0,0,1,2.188-2.189H165.4a2.189,2.189,0,0,1,2.189,2.189V99.445a2.189,2.189,0,0,1-2.189,2.189" transform="translate(-13.952 -3.843)" fill="#111"/>
              <path id="Path_902782" data-name="Path 902782" d="M155.54,50.718V39.7a11.022,11.022,0,1,0,11.022,11.022Z" transform="translate(-18.403 -5.055)" fill="#f6eee3"/>
              <path id="Path_902783" data-name="Path 902783" d="M168.957,47.562a9.418,9.418,0,0,0-9.418-9.418v9.418Z" transform="translate(-20.316 -4.857)" fill="#eb8d2e"/>
              <path id="Path_902784" data-name="Path 902784" d="M135.53,42.956H117.839a.436.436,0,1,1,0-.873H135.53a.436.436,0,1,1,0,.873" transform="translate(-14.95 -5.359)" fill="#f6eee3"/>
              <path id="Path_902785" data-name="Path 902785" d="M157.976,99.891H143.213a.436.436,0,0,1,0-.873h14.763a.436.436,0,0,1,0,.873" transform="translate(-18.181 -12.609)" fill="#f6eee3"/>
              <path id="Path_902786" data-name="Path 902786" d="M133.7,55.353H117.839a.436.436,0,1,1,0-.873H133.7a.436.436,0,0,1,0,.873" transform="translate(-14.95 -6.938)" fill="#f6eee3"/>
              <path id="Path_902787" data-name="Path 902787" d="M138.116,65.329H117.839a.436.436,0,1,1,0-.873h20.277a.436.436,0,1,1,0,.873" transform="translate(-14.95 -8.208)" fill="#f6eee3"/>
              <path id="Path_902788" data-name="Path 902788" d="M154.745,75.4H117.839a.436.436,0,1,1,0-.873h36.906a.436.436,0,0,1,0,.873" transform="translate(-14.95 -9.491)" fill="#f6eee3"/>
              <path id="Path_902789" data-name="Path 902789" d="M154.745,86.3H117.839a.436.436,0,1,1,0-.873h36.906a.436.436,0,0,1,0,.873" transform="translate(-14.95 -10.878)" fill="#f6eee3"/>
              <path id="Path_902790" data-name="Path 902790" d="M74.658,143.534a1.308,1.308,0,0,1-.906-2.253l41.467-39.743a1.672,1.672,0,0,1,2.532.255l8.7,12.584,32.26-41.426a1.671,1.671,0,0,1,2.883.44l5.454,14.534,30.673-37.7a1.309,1.309,0,1,1,2.031,1.654L168.033,90.855a1.671,1.671,0,0,1-2.861-.469l-5.439-14.494L127.719,117a1.717,1.717,0,0,1-1.367.644,1.68,1.68,0,0,1-1.327-.722l-8.8-12.729L75.564,143.17a1.3,1.3,0,0,1-.906.364" transform="translate(-9.34 -6.335)" fill="#5c69ab"/>
              <path id="Path_902791" data-name="Path 902791" d="M216.184,60.908a1.2,1.2,0,0,1-.157-.01,1.307,1.307,0,0,1-1.144-1.455l1.141-9.532-9.239,3.031a1.309,1.309,0,1,1-.816-2.488l10.65-3.492a1.67,1.67,0,0,1,2.18,1.786l-1.317,11.006a1.308,1.308,0,0,1-1.3,1.154" transform="translate(-26.113 -5.969)" fill="#5c69ab"/>
              <path id="Path_902792" data-name="Path 902792" d="M122.557,120.794H87.2a2.409,2.409,0,0,1-2.409-2.41V87.517A2.409,2.409,0,0,1,87.2,85.108h35.356a2.41,2.41,0,0,1,2.41,2.409v30.866a2.41,2.41,0,0,1-2.41,2.41" transform="translate(-10.798 -10.838)" fill="#5c69ab"/>
              <path id="Path_902793" data-name="Path 902793" d="M122.493,121.166H87.138a2.85,2.85,0,0,1-2.847-2.846V87.455a2.85,2.85,0,0,1,2.847-2.847h35.356a2.849,2.849,0,0,1,2.846,2.847v30.866a2.849,2.849,0,0,1-2.846,2.846M87.138,85.481a1.976,1.976,0,0,0-1.974,1.974v30.866a1.976,1.976,0,0,0,1.974,1.973h35.356a1.975,1.975,0,0,0,1.973-1.973V87.455a1.976,1.976,0,0,0-1.973-1.974Z" transform="translate(-10.734 -10.774)" fill="#5c69ab"/>
              <path id="Path_902794" data-name="Path 902794" d="M117.619,112.223H94.642A1.322,1.322,0,0,1,93.32,110.9V95.4a1.322,1.322,0,0,1,1.322-1.321h22.977A1.321,1.321,0,0,1,118.94,95.4v15.5a1.322,1.322,0,0,1-1.321,1.322" transform="translate(-11.883 -11.98)" fill="#f6eee3"/>
              <path id="Path_902795" data-name="Path 902795" d="M93.257,114.45a.436.436,0,0,1-.28-.771l12.479-10.445a.436.436,0,0,1,.554-.005l12.811,10.324a.437.437,0,0,1-.548.68l-12.531-10.1L93.537,114.347a.43.43,0,0,1-.279.1" transform="translate(-11.82 -13.133)" fill="#5c69ab"/>
              <path id="Path_902796" data-name="Path 902796" d="M93.32,94.53l9.627,7.663a4.82,4.82,0,0,0,6.024-.015l9.639-7.75" transform="translate(-11.883 -12.025)" fill="#f6eee3"/>
              <path id="Path_902797" data-name="Path 902797" d="M105.886,103.622a5.247,5.247,0,0,1-3.274-1.152l-9.627-7.664a.436.436,0,1,1,.544-.682l9.627,7.663a4.361,4.361,0,0,0,5.479-.013l9.639-7.75a.436.436,0,1,1,.547.68l-9.639,7.75a5.245,5.245,0,0,1-3.3,1.168" transform="translate(-11.82 -11.961)" fill="#5c69ab"/>
              <path id="Path_902798" data-name="Path 902798" d="M451.379,97.171c0-17.311-52.045-32.116-125.638-38.128-.3-.024-.466,69.2-.447,90.073,21.624,1.749,41.4,4.258,58.557,7.365,41.075-10.344,67.528-47.076,67.528-59.31" transform="translate(-41.423 -7.519)" fill="#b5a392"/>
              <g id="Group_1112388" data-name="Group 1112388" transform="translate(283.943 95.371)" opacity="0.15">
                <g id="Group_1112387" data-name="Group 1112387">
                  <g id="Group_1112386" data-name="Group 1112386" clip-path="url(#clip-path-5)">
                    <path id="Path_902799" data-name="Path 902799" d="M435.488,131.328c-20.787-10.034-60.424-18.011-109.737-22.04-.172-.014-.3,22.831-.374,46.232,21.6,1.75,41.343,4.256,58.484,7.36,22.023-5.547,39.834-18.678,51.626-31.552" transform="translate(-325.377 -109.288)" fill="#2d2d30"/>
                  </g>
                </g>
              </g>
              <path id="Path_902800" data-name="Path 902800" d="M387.466,126.476H356.195a2.187,2.187,0,0,1-2.188-2.188V93.018a2.189,2.189,0,0,1,2.188-2.189h31.271a2.19,2.19,0,0,1,2.189,2.189v31.27a2.188,2.188,0,0,1-2.189,2.188" transform="translate(-45.08 -11.566)" fill="#111"/>
              <path id="Path_902801" data-name="Path 902801" d="M374.333,119.682a.833.833,0,0,1-.579-.235.857.857,0,0,1-.262-.614V108.7h-10.15a.835.835,0,0,1-.6-.255.818.818,0,0,1-.232-.6,11.424,11.424,0,1,1,11.854,11.833h-.032m-.4-11.852h.436v11a10.687,10.687,0,0,0,7.558-3.681,10.552,10.552,0,1,0-18.539-7.274Z" transform="translate(-46.163 -12.332)" fill="#f6eee3"/>
              <path id="Path_902802" data-name="Path 902802" d="M370.946,124.515h-.036a12.33,12.33,0,0,1-11.751-11.749.9.9,0,0,1,.252-.661.929.929,0,0,1,.664-.284h10.869a.911.911,0,0,1,.91.909V123.6a.924.924,0,0,1-.283.662.9.9,0,0,1-.626.254m-10.871-11.823-.044.037a11.452,11.452,0,0,0,10.913,10.913l.037-10.913Z" transform="translate(-45.736 -14.239)" fill="#eb8d2e"/>
              <path id="Path_902803" data-name="Path 902803" d="M441.7,91.957H391.6a2.41,2.41,0,0,1-2.41-2.41v-45.5a2.41,2.41,0,0,1,2.41-2.41h50.1a2.411,2.411,0,0,1,2.41,2.41v45.5a2.41,2.41,0,0,1-2.41,2.41" transform="translate(-49.56 -5.302)" fill="#5c69ab"/>
              <path id="Path_902804" data-name="Path 902804" d="M441.636,92.331h-50.1a2.849,2.849,0,0,1-2.847-2.847v-45.5a2.849,2.849,0,0,1,2.847-2.847h50.1a2.849,2.849,0,0,1,2.847,2.847v45.5a2.849,2.849,0,0,1-2.847,2.847m-50.1-50.322a1.977,1.977,0,0,0-1.974,1.974v45.5a1.977,1.977,0,0,0,1.974,1.974h50.1a1.976,1.976,0,0,0,1.974-1.974v-45.5a1.976,1.976,0,0,0-1.974-1.974Z" transform="translate(-49.496 -5.238)" fill="#5c69ab"/>
              <path id="Path_902805" data-name="Path 902805" d="M434.377,68.124A16.064,16.064,0,1,1,418.313,52.06a16.064,16.064,0,0,1,16.064,16.064" transform="translate(-51.223 -6.629)" fill="#f6eee3"/>
              <path id="Path_902806" data-name="Path 902806" d="M426.117,69.534h-5.96V60.143a.436.436,0,1,1,.873,0v8.518h5.088a.436.436,0,1,1,0,.873" transform="translate(-53.503 -7.603)" fill="#5c69ab"/>
              <path id="Path_902807" data-name="Path 902807" d="M342.323,106.549A11.228,11.228,0,1,1,331.1,95.321a11.228,11.228,0,0,1,11.228,11.228" transform="translate(-40.732 -12.138)" fill="#eb8d2e"/>
              <path id="Path_902808" data-name="Path 902808" d="M331.761,110.14a1.062,1.062,0,0,1-.752-.31L327,105.822a.436.436,0,0,1,.617-.617l4.007,4.007a.191.191,0,0,0,.271,0l10.5-10.5a.436.436,0,0,1,.617.617l-10.5,10.5a1.063,1.063,0,0,1-.752.311" transform="translate(-41.625 -12.554)" fill="#111"/>
              <path id="Path_902809" data-name="Path 902809" d="M335.809,38.375a3.08,3.08,0,0,0-3.075,3.076v21.06a3.079,3.079,0,0,0,3.075,3.075h5.621a4.4,4.4,0,0,1,4.394,4.394v5a1.5,1.5,0,0,0,2.557,1.059l9.163-9.163a4.425,4.425,0,0,1,3.107-1.287h11.272A3.079,3.079,0,0,0,375,62.511V41.451a3.08,3.08,0,0,0-3.077-3.076Z" transform="translate(-42.371 -4.887)" fill="#eb8d2e"/>
              <path id="Path_902810" data-name="Path 902810" d="M345.714,57.473a2.957,2.957,0,1,1,2.957-2.957,2.961,2.961,0,0,1-2.957,2.957m0-5.04a2.084,2.084,0,1,0,2.084,2.084,2.087,2.087,0,0,0-2.084-2.084" transform="translate(-43.647 -6.566)" fill="#111"/>
              <path id="Path_902811" data-name="Path 902811" d="M356.464,57.473a2.957,2.957,0,1,1,2.957-2.957,2.961,2.961,0,0,1-2.957,2.957m0-5.04a2.084,2.084,0,1,0,2.084,2.084,2.087,2.087,0,0,0-2.084-2.084" transform="translate(-45.016 -6.566)" fill="#111"/>
              <path id="Path_902812" data-name="Path 902812" d="M367.092,57.473a2.957,2.957,0,1,1,2.957-2.957,2.96,2.96,0,0,1-2.957,2.957m0-5.04a2.084,2.084,0,1,0,2.085,2.084,2.087,2.087,0,0,0-2.085-2.084" transform="translate(-46.369 -6.566)" fill="#111"/>
              <path id="Path_902813" data-name="Path 902813" d="M58.295,61.383a1.786,1.786,0,0,0-1.785,1.784V75.379a1.786,1.786,0,0,0,1.785,1.784h6.536a2.568,2.568,0,0,1,1.8.746l5.314,5.314a.869.869,0,0,0,1.483-.613v-2.9a2.551,2.551,0,0,1,2.547-2.548h3.259a1.786,1.786,0,0,0,1.784-1.784V63.167a1.786,1.786,0,0,0-1.784-1.784Z" transform="translate(-7.196 -7.817)" fill="#eb8d2e"/>
              <path id="Path_902814" data-name="Path 902814" d="M76.542,72.615a1.9,1.9,0,1,1,1.9-1.9,1.9,1.9,0,0,1-1.9,1.9m0-2.923a1.025,1.025,0,1,0,1.025,1.025,1.026,1.026,0,0,0-1.025-1.025" transform="translate(-9.505 -8.763)" fill="#111"/>
              <path id="Path_902815" data-name="Path 902815" d="M70.309,72.615a1.9,1.9,0,1,1,1.9-1.9,1.9,1.9,0,0,1-1.9,1.9m0-2.923a1.025,1.025,0,1,0,1.025,1.025,1.027,1.027,0,0,0-1.025-1.025" transform="translate(-8.711 -8.763)" fill="#111"/>
              <path id="Path_902816" data-name="Path 902816" d="M64.145,72.615a1.9,1.9,0,1,1,1.9-1.9,1.9,1.9,0,0,1-1.9,1.9m0-2.923a1.025,1.025,0,1,0,1.025,1.025,1.026,1.026,0,0,0-1.025-1.025" transform="translate(-7.927 -8.763)" fill="#111"/>
              <path id="Path_902817" data-name="Path 902817" d="M208.463,9.257a2.44,2.44,0,1,1-2.44-2.44,2.44,2.44,0,0,1,2.44,2.44" transform="translate(-25.925 -0.868)" fill="#eb8d2e"/>
              <path id="Path_902818" data-name="Path 902818" d="M15.718,277.3a2.44,2.44,0,1,1-2.44-2.44,2.44,2.44,0,0,1,2.44,2.44" transform="translate(-1.38 -35.001)" fill="#eb8d2e"/>
              <path id="Path_902819" data-name="Path 902819" d="M406.452,286.354a2.44,2.44,0,1,1-2.44-2.44,2.44,2.44,0,0,1,2.44,2.44" transform="translate(-51.137 -36.154)" fill="#eb8d2e"/>
              <path id="Path_902820" data-name="Path 902820" d="M471.862,14.849a2.44,2.44,0,1,1-2.44-2.44,2.44,2.44,0,0,1,2.44,2.44" transform="translate(-59.466 -1.58)" fill="#eb8d2e"/>
              <path id="Path_902821" data-name="Path 902821" d="M484.887,83.259a1.22,1.22,0,1,1-1.22-1.22,1.22,1.22,0,0,1,1.22,1.22" transform="translate(-61.435 -10.447)" fill="#5c69ab"/>
              <path id="Path_902822" data-name="Path 902822" d="M483.6,84.852A1.656,1.656,0,1,1,485.26,83.2a1.658,1.658,0,0,1-1.656,1.656m0-2.44a.784.784,0,1,0,.784.784.785.785,0,0,0-.784-.784" transform="translate(-61.372 -10.383)" fill="#5c69ab"/>
              <path id="Path_902823" data-name="Path 902823" d="M96.288,287.93a1.22,1.22,0,1,1-1.221-1.22,1.221,1.221,0,0,1,1.221,1.22" transform="translate(-11.951 -36.51)" fill="#5c69ab"/>
              <path id="Path_902824" data-name="Path 902824" d="M95,289.524a1.656,1.656,0,1,1,1.656-1.657A1.658,1.658,0,0,1,95,289.524m0-2.44a.784.784,0,1,0,.784.783.783.783,0,0,0-.784-.783" transform="translate(-11.887 -36.446)" fill="#5c69ab"/>
              <path id="Path_902825" data-name="Path 902825" d="M3.555,41.676A2.157,2.157,0,1,1,1.4,43.833a2.157,2.157,0,0,1,2.157-2.157" transform="translate(-0.178 -5.307)" fill="#5c69ab"/>
              <path id="Path_902826" data-name="Path 902826" d="M3.492,46.363A2.594,2.594,0,1,1,6.085,43.77a2.6,2.6,0,0,1-2.594,2.594m0-4.314A1.721,1.721,0,1,0,5.212,43.77a1.723,1.723,0,0,0-1.721-1.721" transform="translate(-0.114 -5.243)" fill="#5c69ab"/>
              <path id="Path_902827" data-name="Path 902827" d="M124.018.5a.836.836,0,1,1-.838.837A.836.836,0,0,1,124.018.5" transform="translate(-15.686 -0.064)" fill="#5c69ab"/>
              <path id="Path_902828" data-name="Path 902828" d="M123.954,2.546a1.273,1.273,0,1,1,1.273-1.273,1.274,1.274,0,0,1-1.273,1.273m0-1.673a.4.4,0,1,0,.4.4.4.4,0,0,0-.4-.4" transform="translate(-15.622)" fill="#5c69ab"/>
              <path id="Path_902829" data-name="Path 902829" d="M85.638,36.8a1.22,1.22,0,1,1-1.22-1.22,1.22,1.22,0,0,1,1.22,1.22" transform="translate(-10.595 -4.531)" fill="#111"/>
              <path id="Path_902830" data-name="Path 902830" d="M2.44,162.938a1.22,1.22,0,1,1-1.22-1.22,1.22,1.22,0,0,1,1.22,1.22" transform="translate(0 -20.593)" fill="#111"/>
              <path id="Path_902831" data-name="Path 902831" d="M365.678,2.794a1.22,1.22,0,1,1-1.22-1.22,1.22,1.22,0,0,1,1.22,1.22" transform="translate(-46.255 -0.2)" fill="#111"/>
              <path id="Path_902832" data-name="Path 902832" d="M486.285,254.559a1.22,1.22,0,1,1-1.22-1.22,1.22,1.22,0,0,1,1.22,1.22" transform="translate(-61.613 -32.261)" fill="#111"/>
              <path id="Path_902833" data-name="Path 902833" d="M136.465,453.371c-1.306-19.727,5.143-39.272,18.373-55.685l7.13-8.846,6.809-8.447,4.887-6.063,48.4,2.886,48.4-2.886,4.887,6.063,6.81,8.447,7.13,8.846a82.224,82.224,0,0,1,17.749,39.771c.093.642,1.192,12.873,2.715,27.808H136.8Z" transform="translate(-17.356 -47.668)" fill="#111"/>
              <path id="Path_902834" data-name="Path 902834" d="M304.912,469.419c.03,0,.059,0,.09,0a.873.873,0,0,0,.779-.957c-.984-9.651-1.785-18.111-2.264-23.167-.3-3.151-.421-4.438-.456-4.677a83.487,83.487,0,0,0-17.934-40.195.873.873,0,1,0-1.359,1.1,81.747,81.747,0,0,1,17.565,39.35c.031.206.2,2.046.446,4.591.479,5.058,1.279,13.522,2.265,23.18a.873.873,0,0,0,.867.784" transform="translate(-36.111 -50.948)" fill="#f6eee3"/>
              <path id="Path_902835" data-name="Path 902835" d="M163.606,156.29A36.018,36.018,0,0,1,175.529,134.6c1.463-1.53,2.851-2.905,4.13-4.122,4.444-4.226,10.517-8.454,10.826-14.239,1.066-19.939,32.163-35.167,42.2-26.475.271.234,8.827-4.224,20.7-1.714A19.372,19.372,0,1,1,281.1,110.524c.281.848.563,1.707.88,2.576,3.8,10.416,10.054,17.959,19.267,25.934l1.251,1.083c17,14.717,15.632,39.4,2.6,50.166l-3.759,3.135q-.872.728-1.793,1.388a6.956,6.956,0,0,0-3.081,6.544,33.616,33.616,0,0,1-1.348,14.493c-5.828,18.188-26.565,30.082-48.975,27.939-15.544-1.486-28.668-9.021-36.562-19.4-9.437-12.412-20.92-23.631-32.8-34.465-9.707-8.856-14.981-21.049-13.168-33.623" transform="translate(-20.789 -9.429)" fill="#111"/>
              <path id="Path_902836" data-name="Path 902836" d="M193.58,170.763l3.145-34.654,15.379-.276.623-11.351,4.67,10.775,13.544-1.565,3.119-5.366a3.51,3.51,0,0,1,3.372-1.762c1.061,12.452,6.967,23.351,12.979,24.323l8.115-1.765-.011-.154,2.561.058a12.247,12.247,0,0,1,11.935,12.482l-.007.278a12.247,12.247,0,0,1-12.482,11.935l-4.981-.112,1.785,44.767c.067,12.075-10.755,19.017-21.979,19.079l-.465,0c-11.224.063-20.462-9.766-20.529-21.841l-.087-15.75a27.441,27.441,0,0,1-20.686-29.1" transform="translate(-24.636 -15.852)" fill="#ffa485"/>
              <path id="Path_902837" data-name="Path 902837" d="M271.414,170.263a.872.872,0,0,0,.469-1.609l-3.157-2,3.529-4.026a.873.873,0,1,0-1.312-1.15l-4.2,4.792a.871.871,0,0,0,.188,1.312l4.018,2.549a.865.865,0,0,0,.467.136" transform="translate(-33.94 -20.524)" fill="#e06a4b"/>
              <path id="Path_902838" data-name="Path 902838" d="M217.323,209.587s23.955.988,27.919-7.558h0s1.164,13-27.673,19.945Z" transform="translate(-27.674 -25.243)" fill="#e06a4b"/>
              <path id="Path_902839" data-name="Path 902839" d="M265.533,180.05a6.329,6.329,0,1,1,6.777,5.843c-.157.011-.315.017-.471.017a6.336,6.336,0,0,1-6.306-5.861m6.1-3.293a2.835,2.835,0,1,0,.21-.008c-.07,0-.14,0-.21.008" transform="translate(-33.811 -22.063)" fill="#f6eee3"/>
              <path id="Path_902840" data-name="Path 902840" d="M198.459,156.743a2.365,2.365,0,1,0,2.306-2.423,2.366,2.366,0,0,0-2.306,2.423" transform="translate(-25.272 -19.651)" fill="#111"/>
              <path id="Path_902841" data-name="Path 902841" d="M227.13,156.743a2.365,2.365,0,1,0,2.306-2.423,2.366,2.366,0,0,0-2.306,2.423" transform="translate(-28.923 -19.651)" fill="#111"/>
              <path id="Path_902842" data-name="Path 902842" d="M231.142,168.614c-6.235-.039-11.272-5.952-11.227-13.178h0c.027-4.28,5.718-6.168,11.35-6.123s11.3,1.987,11.27,6.267c-.045,7.2-5.122,13.036-11.331,13.036Zm-8.609-13.161h0c-.037,5.783,3.834,10.513,8.626,10.543h.045c4.772,0,8.677-4.67,8.713-10.434.013-2.006-3.8-3.6-8.668-3.633H231.1c-4.8,0-8.558,1.537-8.571,3.524" transform="translate(-28.004 -19.013)" fill="#fff"/>
              <path id="Path_902843" data-name="Path 902843" d="M199.586,168a10.524,10.524,0,0,1-8.045-3.969,14.179,14.179,0,0,1-3.181-9.208c.013-2.042,1.413-3.761,3.943-4.842a19.2,19.2,0,0,1,7.405-1.284c5.63.036,11.3,1.987,11.271,6.267a14.178,14.178,0,0,1-3.3,9.168A10.537,10.537,0,0,1,199.65,168Zm-8.608-13.161a11.56,11.56,0,0,0,2.571,7.513,7.659,7.659,0,0,0,12.147.076,11.56,11.56,0,0,0,2.666-7.479c.012-2.006-3.8-3.6-8.67-3.633h-.142c-4.806,0-8.558,1.537-8.571,3.523" transform="translate(-23.986 -18.935)" fill="#fff"/>
              <path id="Path_902844" data-name="Path 902844" d="M216.739,152.333l-.156,7.842a1.752,1.752,0,0,1-1.785,1.717l-1.741-.035a2.387,2.387,0,0,0-2.434,2.34,5.912,5.912,0,0,0,5.794,6.027l2.725.053" transform="translate(-26.821 -19.398)" fill="#ffa485"/>
              <path id="Path_902845" data-name="Path 902845" d="M219.015,171.022a.873.873,0,0,0,.017-1.745l-2.726-.054a5.041,5.041,0,0,1-4.938-5.137,1.515,1.515,0,0,1,1.544-1.484l1.742.035a2.624,2.624,0,0,0,2.675-2.573l.155-7.841a.872.872,0,0,0-.855-.889h-.017a.872.872,0,0,0-.873.854l-.155,7.842a.87.87,0,0,1-.269.616.841.841,0,0,1-.627.245l-1.742-.035a3.26,3.26,0,0,0-3.323,3.195,6.785,6.785,0,0,0,6.65,6.918l2.725.054Z" transform="translate(-26.693 -19.271)" fill="#e06a4b"/>
              <path id="Path_902846" data-name="Path 902846" d="M244.265,157.94a1.316,1.316,0,0,0,.381-.057l18.346-5.578a1.309,1.309,0,1,0-.762-2.5l-18.346,5.577a1.309,1.309,0,0,0,.38,2.562" transform="translate(-30.938 -19.068)" fill="#fff"/>
              <path id="Path_902847" data-name="Path 902847" d="M220.232,159.472A1.308,1.308,0,0,0,221,157.1c-1.709-1.219-5.861-2.79-9.346-.006a1.309,1.309,0,0,0,1.633,2.046c2.8-2.236,6.061,0,6.2.094a1.3,1.3,0,0,0,.751.237" transform="translate(-26.889 -19.807)" fill="#fff"/>
              <path id="Path_902848" data-name="Path 902848" d="M215.174,197.058a.49.49,0,0,0,.33-.02,4.192,4.192,0,0,1,4.631.938.492.492,0,1,0,.73-.661,5.262,5.262,0,0,0-5.753-1.18.491.491,0,0,0,.063.923" transform="translate(-27.355 -24.926)" fill="#e06a4b"/>
              <path id="Path_902849" data-name="Path 902849" d="M237.668,145.588a7.546,7.546,0,0,1-3.1-.418c-1.074-.293-2.16-.561-3.112-.76s-2.057-.393-3.158-.557a7.483,7.483,0,0,1-3-.862c-.745-.518-.871-1.579.354-2.594,1.159-1,3.81-1.786,6.967-1.131s5.22,2.45,5.845,3.821c.675,1.415.1,2.33-.8,2.5" transform="translate(-28.618 -17.704)" fill="#111"/>
              <path id="Path_902850" data-name="Path 902850" d="M194.557,145.366a5.924,5.924,0,0,0,2.45-.233c.853-.2,1.716-.374,2.471-.5s1.63-.245,2.5-.339a5.886,5.886,0,0,0,2.386-.586c.6-.384.733-1.215-.2-2.051a6.793,6.793,0,0,0-5.445-1.106,6.59,6.59,0,0,0-4.715,2.824c-.573,1.092-.154,1.829.55,1.992" transform="translate(-24.671 -17.882)" fill="#111"/>
              <path id="Path_902851" data-name="Path 902851" d="M220.545,183.166c.017,0,.036,0,.054,0l6.808-.419a4.937,4.937,0,0,0,4.632-4.952l0-.929a.873.873,0,0,0-.873-.869h0a.872.872,0,0,0-.868.877l0,.93A3.191,3.191,0,0,1,227.3,181l-6.808.419a.873.873,0,0,0,.053,1.744" transform="translate(-27.973 -22.411)" fill="#e06a4b"/>
              <path id="Path_902852" data-name="Path 902852" d="M256.364,269.691l-49.067-.283-.3-.76-14.949-37.57a.463.463,0,0,0-.414-.283l80.214-.013-15.066,37.866Z" transform="translate(-24.403 -29.388)" fill="#ffa485"/>
              <g id="Group_1112391" data-name="Group 1112391" transform="translate(169.067 205.27)" opacity="0.46">
                <g id="Group_1112390" data-name="Group 1112390">
                  <g id="Group_1112389" data-name="Group 1112389" clip-path="url(#clip-path-6)">
                    <path id="Path_902853" data-name="Path 902853" d="M195.239,235.841l16.438,8.04a29.921,29.921,0,0,1,12.311,11.154l5.892,9.54-1.949,1.818-5.842-9.459a29.919,29.919,0,0,0-12.31-11.154l-14.7-7.191-1.339-3.365a13.461,13.461,0,0,1,1.5.617" transform="translate(-193.738 -235.224)" fill="#e06a4b"/>
                  </g>
                </g>
              </g>
              <path id="Path_902854" data-name="Path 902854" d="M236.856,330.1a2.832,2.832,0,0,1-5.368,0l-21.906-55.055,49.068.284Z" transform="translate(-26.688 -35.025)" fill="#eb8d2e"/>
              <path id="Path_902855" data-name="Path 902855" d="M106.593,297.245l39.815-46.48C157.881,237.7,163.362,231.2,180.466,230.8h.04c.086,0,.168-.007.256-.009.01,0,.017.008.027.008a.465.465,0,0,1,.414.283l14.949,37.57.3.76,21.906,55.055a2.831,2.831,0,0,0,5.367,0l21.794-54.772.415-1.043L261,230.783h0l.423.007.1,0c15.5.27,33.356,6.666,46.949,17a47.116,47.116,0,0,1,18,43.389,47.786,47.786,0,0,1-2.434,9.94l-.872,2.48q-4.385,12.465-9.847,24.517c-1.32,2.913-2.361,5.2-2.379,5.22l-9.673,1.76a.457.457,0,0,1-.682-.014l-25.654,32.486a.458.458,0,0,1-.3.427l-20.092,7.4a105.249,105.249,0,0,1-67,0L162.6,365.673a.456.456,0,0,1-.277-.535S141,335.291,140.815,335.089L106.6,297.851a.457.457,0,0,1-.01-.607" transform="translate(-13.56 -29.388)" fill="#5c69ab"/>
              <path id="Path_902856" data-name="Path 902856" d="M220.984,381.239a99.98,99.98,0,0,1-33.663-5.5l-24.941-9.719a.9.9,0,0,1-.568-.82c-7.31-10.232-21.061-29.467-21.38-29.875l-34.213-37.237a.9.9,0,0,1-.021-1.186l39.819-46.486.445-.506c11.223-12.787,16.856-19.206,33.972-19.609l.225-.006a.507.507,0,0,1,.139.01.9.9,0,0,1,.747.554L218.7,324.239a2.4,2.4,0,0,0,4.556,0l37.275-93.681a.434.434,0,0,1,.418-.275l.424.007-.008.436.109-.435c15.606.271,33.693,6.818,47.206,17.086a47.368,47.368,0,0,1,15.71,53.82l-.872,2.479c-2.913,8.284-6.23,16.544-9.861,24.553-2.385,5.262-2.387,5.264-2.46,5.342a.45.45,0,0,1-.238.128l-9.557,1.739a.9.9,0,0,1-.765.141l-25.346,32.1a.9.9,0,0,1-.567.661l-20.1,7.4a100.071,100.071,0,0,1-32.789,5.5c-.283,0-.567,0-.851,0m33.347-6.32,20.106-7.418a.439.439,0,0,1,.094-.268l25.654-32.486a.471.471,0,0,1,.35-.167.481.481,0,0,1,.356.154.432.432,0,0,1,.241-.132l9.453-1.721c.189-.408.745-1.625,2.279-5.01,3.621-7.987,6.928-16.224,9.832-24.483l.873-2.479a46.493,46.493,0,0,0-15.416-52.835c-13.371-10.162-31.262-16.642-46.693-16.909l-.1,0-.127,0-37.164,93.4a3.268,3.268,0,0,1-6.178,0l-21.906-55.055-15.3-38.338-.035,0-.241.006c-16.691.394-22.24,6.716-33.3,19.312l-40.257,46.983-.332-.284.332.312,34.213,37.238c.188.206,16.535,23.084,21.541,30.09a.506.506,0,0,1,.081.382l24.926,9.713a104.811,104.811,0,0,0,66.709,0" transform="translate(-13.496 -29.325)" fill="#5c69ab"/>
              <path id="Path_902857" data-name="Path 902857" d="M179.064,380.853h54.148a6.1,6.1,0,0,0,6.1-6.1V302.131a6.1,6.1,0,0,0-6.1-6.1H179.064a6.1,6.1,0,0,0-6.1,6.1v72.622a6.1,6.1,0,0,0,6.1,6.1" transform="translate(-22.025 -37.697)" fill="#231f20"/>
              <path id="Path_902858" data-name="Path 902858" d="M199.146,295.967h19.98a2.639,2.639,0,0,0,2.639-2.639V291.12a2.639,2.639,0,0,0-2.639-2.64h-19.98a2.639,2.639,0,0,0-2.639,2.64v2.208a2.639,2.639,0,0,0,2.639,2.639" transform="translate(-25.023 -36.735)" fill="#f6eee3"/>
              <path id="Path_902859" data-name="Path 902859" d="M196.008,293.264v-2.209a3.079,3.079,0,0,1,3.075-3.075h19.98a3.079,3.079,0,0,1,3.075,3.075v2.209a3.079,3.079,0,0,1-3.075,3.074h-19.98a3.079,3.079,0,0,1-3.075-3.074m3.075-4.411a2.205,2.205,0,0,0-2.2,2.2v2.209a2.2,2.2,0,0,0,2.2,2.2h19.98a2.205,2.205,0,0,0,2.2-2.2v-2.209a2.206,2.206,0,0,0-2.2-2.2Z" transform="translate(-24.96 -36.672)" fill="#231f20"/>
              <path id="Path_902860" data-name="Path 902860" d="M192.3,299.676h32.392a.838.838,0,0,0,.839-.839V297a.839.839,0,0,0-.839-.839H192.3a.839.839,0,0,0-.839.839v1.835a.838.838,0,0,0,.839.839" transform="translate(-24.381 -37.714)" fill="#f6eee3"/>
              <path id="Path_902861" data-name="Path 902861" d="M190.958,298.775V296.94a1.276,1.276,0,0,1,1.275-1.275h32.392a1.276,1.276,0,0,1,1.275,1.275v1.835a1.276,1.276,0,0,1-1.275,1.274H192.233a1.276,1.276,0,0,1-1.275-1.274m1.275-2.238a.4.4,0,0,0-.4.4v1.835a.4.4,0,0,0,.4.4h32.392a.4.4,0,0,0,.4-.4V296.94a.4.4,0,0,0-.4-.4Z" transform="translate(-24.317 -37.65)" fill="#231f20"/>
              <path id="Path_902862" data-name="Path 902862" d="M220.335,346.044c2.1.282,4.135-.11,4.764-2.6,1.191-7.271-8.148-7.1-13.74-7.685-2.66-.086-3.282-.106-5.553-.223.929-1.824,1.841-3.9,2.874-6.294a2.773,2.773,0,0,0,.149-2.422,2.087,2.087,0,0,0-1.609-.942,5.685,5.685,0,0,0-1.914.216c-5.855,1.389-21.933,8.593-21.933,8.593-.931.527-1.84,1.113-2.734,1.724l-7.6-1.409-.975,32.014,4.629-.2c3.789,2.089,7.854,2.292,12.144,2.051,6.079-.341,12.106-.536,18.184-.757,4.332.063,7.888-4.22,5.092-5.991,3.241.906,7.12.739,7.816-3.336.648-2.206-.671-3.4-2.45-4.146,2.984.755,6.04.917,6.876-2.421,1.429-3.491-1.153-5.211-4.024-6.179m-1.811,9.17c.394.079.84.2,1.321.345-.486-.117-.937-.229-1.321-.345" transform="translate(-21.911 -41.496)" fill="#ffa485"/>
              <g id="Group_1112394" data-name="Group 1112394" transform="translate(169.313 290.446)" opacity="0.36">
                <g id="Group_1112393" data-name="Group 1112393">
                  <g id="Group_1112392" data-name="Group 1112392" clip-path="url(#clip-path-7)">
                    <path id="Path_902863" data-name="Path 902863" d="M208.6,336.424l-14.581.339s13.962-4.063,16.275-3.931Z" transform="translate(-194.02 -332.829)" fill="#e06a4b"/>
                  </g>
                </g>
              </g>
              <path id="Path_902864" data-name="Path 902864" d="M171.36,373.361l-7.4.016a2.154,2.154,0,0,1-2.158-2.148l-.081-38.345a2.153,2.153,0,0,1,2.148-2.157l7.4-.016a2.153,2.153,0,0,1,2.157,2.148l.081,38.344a2.153,2.153,0,0,1-2.148,2.158" transform="translate(-20.594 -42.113)" fill="#f2f1ec"/>
              <path id="Path_902865" data-name="Path 902865" d="M157.606,327.806v43.15a3.547,3.547,0,0,1-4.164,3.492l-34.52-6.1c-26.545-5.243-36.81-37.751-18.088-57.286l3.33-3.475,49.8,15.29a5.156,5.156,0,0,1,3.643,4.93" transform="translate(-11.624 -39.169)" fill="#5c69ab"/>
              <path id="Path_902866" data-name="Path 902866" d="M156.894,372.671a2.342,2.342,0,1,0,3.138-1.062,2.343,2.343,0,0,0-3.138,1.062" transform="translate(-19.948 -47.29)" fill="#f2f1ec"/>
              <path id="Path_902867" data-name="Path 902867" d="M153.3,374.815l-34.528-6.1a34.679,34.679,0,0,1-18.32-58.015l3.33-3.475a.433.433,0,0,1,.443-.115l49.8,15.29a5.563,5.563,0,0,1,3.951,5.347v43.15a3.982,3.982,0,0,1-4.677,3.922M101.082,311.3a33.806,33.806,0,0,0,17.848,56.555l34.52,6.1a3.112,3.112,0,0,0,3.652-3.063v-43.15a4.7,4.7,0,0,0-3.334-4.513l-49.543-15.21Z" transform="translate(-11.557 -39.105)" fill="#5c69ab"/>
              <line id="Line_1153" data-name="Line 1153" x2="8.939" y2="1.31" transform="translate(190.026 303.291)" fill="#c0644b"/>
              <path id="Path_902868" data-name="Path 902868" d="M226.631,349.232a.436.436,0,0,0,.062-.868l-8.939-1.31a.443.443,0,0,0-.495.369.436.436,0,0,0,.369.495l8.939,1.31a.52.52,0,0,0,.064,0" transform="translate(-27.665 -44.194)" fill="#f16f5f"/>
              <line id="Line_1154" data-name="Line 1154" x2="7.328" y2="1.71" transform="translate(188.244 311.438)" fill="#c0644b"/>
              <path id="Path_902869" data-name="Path 902869" d="M222.977,358.968a.436.436,0,0,0,.1-.861l-7.328-1.71a.436.436,0,1,0-.2.85l7.329,1.71a.428.428,0,0,0,.1.011" transform="translate(-27.405 -45.382)" fill="#f16f5f"/>
              <line id="Line_1155" data-name="Line 1155" x2="7.037" y2="1.923" transform="translate(183.56 319.013)" fill="#c0644b"/>
              <path id="Path_902870" data-name="Path 902870" d="M217.32,367.86a.436.436,0,0,0,.115-.857l-7.037-1.924a.436.436,0,1,0-.23.842l7.036,1.923a.441.441,0,0,0,.115.016" transform="translate(-26.722 -46.488)" fill="#f16f5f"/>
              <path id="Path_902871" data-name="Path 902871" d="M162.381,336.165a.436.436,0,0,0,.436-.436V329.2a6.6,6.6,0,0,0-4.867-6.357l-28.617-7.726a.436.436,0,0,0-.227.842l28.616,7.726a5.722,5.722,0,0,1,4.222,5.515v6.529a.436.436,0,0,0,.436.436" transform="translate(-16.4 -40.125)" fill="#111"/>
              <path id="Path_902872" data-name="Path 902872" d="M156.587,320.71a.437.437,0,0,0,.376-.215l10.744-18.181a.436.436,0,1,0-.751-.443l-10.745,18.181a.437.437,0,0,0,.154.6.432.432,0,0,0,.222.06" transform="translate(-19.884 -38.413)" fill="#111"/>
              <path id="Path_902873" data-name="Path 902873" d="M225.454,271.932l-9.316-15.081a29.913,29.913,0,0,0-12.31-11.154l-16.439-8.041a13.551,13.551,0,0,0-7.61-1.276L148.1,234.575a1.031,1.031,0,0,0-1,1.449c.008.018.016.037.024.055a5.76,5.76,0,0,0,4.588,3.4L166.6,241.3l-.732.068a5.207,5.207,0,0,0-4.416,3.4l-1.226,3.359-1.042,1.106a5.379,5.379,0,0,0-1.09,5.657l7.388,18.764a2.117,2.117,0,0,0,2.894,1.128,6.044,6.044,0,0,0,3.089-7.37l-2.114-6.27,10.2,12.525a16.763,16.763,0,0,0,6.254,4.761l7.861,3.456,5.541,15.525Z" transform="translate(-18.72 -29.871)" fill="#ffa485"/>
              <line id="Line_1156" data-name="Line 1156" x1="10.831" y1="0.476" transform="translate(147.979 211.808)" fill="#c0644b"/>
              <path id="Path_902874" data-name="Path 902874" d="M169.26,243.113a.52.52,0,0,0,.212.056l10.831.476a.531.531,0,1,0,.046-1.061l-10.831-.477a.531.531,0,0,0-.258,1.006" transform="translate(-21.516 -30.83)" fill="#e06a4b"/>
              <line id="Line_1157" data-name="Line 1157" x1="13.175" y1="1.371" transform="translate(141.919 218.308)" fill="#c0644b"/>
              <path id="Path_902875" data-name="Path 902875" d="M162.316,250.562a.506.506,0,0,0,.179.051l13.175,1.372a.53.53,0,1,0,.111-1.055l-13.175-1.371a.53.53,0,0,0-.29,1" transform="translate(-20.632 -31.779)" fill="#e06a4b"/>
              <line id="Line_1158" data-name="Line 1158" x2="1.429" y2="3.608" transform="translate(149.198 227.668)" fill="#c0644b"/>
              <path id="Path_902876" data-name="Path 902876" d="M172.085,264.9a.53.53,0,0,0,.728-.671l-1.428-3.608a.53.53,0,0,0-.986.39l1.428,3.608a.532.532,0,0,0,.258.28" transform="translate(-21.694 -33.145)" fill="#e06a4b"/>
              <path id="Path_902877" data-name="Path 902877" d="M199.858,300.643l5.461,5.858a2.152,2.152,0,0,0,3.043.106l29.665-27.655a2.154,2.154,0,0,0,.106-3.043l-5.462-5.858a2.152,2.152,0,0,0-3.043-.106L199.964,297.6a2.153,2.153,0,0,0-.106,3.043" transform="translate(-25.376 -34.301)" fill="#f2f1ec"/>
              <path id="Path_902878" data-name="Path 902878" d="M319.6,345.9c-1.541,2.917-3.764,6.771-6.288,11a33.763,33.763,0,0,1-50.89,8.48c-7.228-6.132-14.983-12.941-22.549-19.691-15.737-14.038-30.659-27.821-38.337-34.738a3.818,3.818,0,0,1-.043-5.637l33.769-31.33a2.843,2.843,0,0,1,3.8-.058l41.011,35.772,50.024,9.773s-6.141,18.177-10.5,26.428" transform="translate(-25.503 -34.793)" fill="#5c69ab"/>
              <path id="Path_902879" data-name="Path 902879" d="M276.375,372.872a33.811,33.811,0,0,1-14.3-7.227c-6.552-5.558-13.93-12-22.559-19.7-10.33-9.216-20.193-18.216-28.121-25.448-4.087-3.73-7.58-6.916-10.216-9.293a4.251,4.251,0,0,1-.047-6.279L234.9,273.6a3.272,3.272,0,0,1,4.386-.068l40.922,35.7,49.909,9.751a.435.435,0,0,1,.295.209.441.441,0,0,1,.035.359c-.061.182-6.2,18.306-10.528,26.492-1.422,2.693-3.541,6.4-6.3,11.019a34.155,34.155,0,0,1-29.374,16.728,34.559,34.559,0,0,1-7.874-.911m3.553-62.813a.435.435,0,0,1-.2-.1l-41.011-35.772a2.4,2.4,0,0,0-3.218.049l-33.77,31.331a3.348,3.348,0,0,0-1.081,2.5,3.391,3.391,0,0,0,1.12,2.49c2.637,2.377,6.131,5.565,10.22,9.295,7.925,7.232,17.786,16.229,28.114,25.442,8.623,7.691,16,14.129,22.542,19.684a32.954,32.954,0,0,0,13.934,7.041,33.3,33.3,0,0,0,36.3-15.413c2.75-4.607,4.862-8.3,6.277-10.98,3.9-7.387,9.314-22.981,10.311-25.893Z" transform="translate(-25.439 -34.729)" fill="#5c69ab"/>
              <path id="Path_902880" data-name="Path 902880" d="M292.112,384.642q1.2,0,2.394-.065a.436.436,0,0,0,.411-.46.426.426,0,0,0-.459-.411,44.153,44.153,0,0,1-32.314-11.718l-12.915-12.032a.437.437,0,1,0-.6.639l12.915,12.032a45.03,45.03,0,0,0,30.563,12.015" transform="translate(-31.644 -45.822)" fill="#111"/>
              <path id="Path_902881" data-name="Path 902881" d="M304.453,324.506a.436.436,0,0,0,.283-.769L260.76,286.315a.437.437,0,0,0-.566.665L304.17,324.4a.434.434,0,0,0,.283.1" transform="translate(-33.114 -36.446)" fill="#111"/>
              <path id="Path_902882" data-name="Path 902882" d="M297.483,314.208a.435.435,0,0,0,.378-.217l17.325-29.922a.436.436,0,1,0-.755-.438l-17.325,29.922a.436.436,0,0,0,.377.655" transform="translate(-37.826 -36.09)" fill="#111"/>
              <path id="Path_902883" data-name="Path 902883" d="M212.518,311.537a2.342,2.342,0,1,0,3.138-1.062,2.343,2.343,0,0,0-3.138,1.062" transform="translate(-27.031 -39.505)" fill="#f2f1ec"/>
              <path id="Path_902884" data-name="Path 902884" d="M14.2,102.735v102.9c0,15.779,43.249,29.474,106.635,36.328v-102.9C57.452,132.209,14.2,118.514,14.2,102.735" transform="translate(-1.809 -13.082)" fill="#eb8d2e"/>
              <path id="Path_902885" data-name="Path 902885" d="M111.274,165.141l-.047,0c-52.293-5.654-84.778-16.836-84.778-29.183a.436.436,0,0,1,.873,0c0,11.683,32.972,22.8,84,28.315a.436.436,0,0,1-.046.87" transform="translate(-3.368 -17.257)" fill="#f6eee3"/>
              <path id="Path_902886" data-name="Path 902886" d="M69.106,179.572a.429.429,0,0,1-.1-.011,161.335,161.335,0,0,1-21.015-6.22.436.436,0,1,1,.313-.814,160.573,160.573,0,0,0,20.9,6.185.436.436,0,0,1-.1.861" transform="translate(-6.076 -21.966)" fill="#f6eee3"/>
              <path id="Path_902887" data-name="Path 902887" d="M119.054,188.142l-.047,0c-11.16-1.207-21.624-2.692-31.1-4.416a.436.436,0,0,1,.156-.859c9.459,1.72,19.9,3.2,31.041,4.407a.436.436,0,0,1-.046.87" transform="translate(-11.148 -23.285)" fill="#111"/>
              <path id="Path_902888" data-name="Path 902888" d="M29.718,217.161l12.044,3.858V203.847l-12.044-4.629Z" transform="translate(-3.784 -25.369)" fill="#111"/>
              <path id="Path_902889" data-name="Path 902889" d="M42.135,219.989l-12.917-4.137V186.447l12.917,4.965Zm-12.044-4.773,11.172,3.578V192.011l-11.172-4.293Z" transform="translate(-3.721 -23.742)" fill="#f6eee3"/>
              <path id="Path_902890" data-name="Path 902890" d="M62.026,228.047,49.109,223.91V207.594l12.917,4.965Zm-12.044-4.773,11.172,3.577V213.158l-11.172-4.293Z" transform="translate(-6.254 -26.435)" fill="#f6eee3"/>
              <path id="Path_902891" data-name="Path 902891" d="M458.59,102.735v102.9c0,13.037-29.519,24.65-75.526,32.158-1.3.213-1.552-102.644-.445-102.824,46.261-7.506,75.971-19.152,75.971-32.231" transform="translate(-48.634 -13.082)" fill="#eb8d2e"/>
              <path id="Path_902892" data-name="Path 902892" d="M433.009,150.524a.436.436,0,0,1-.1-.86c10.93-2.6,19.123-5.554,24.35-8.788a.436.436,0,1,1,.458.743c-5.306,3.283-13.585,6.275-24.607,8.893a.4.4,0,0,1-.1.012" transform="translate(-55.084 -17.931)" fill="#111"/>
              <path id="Path_902893" data-name="Path 902893" d="M433.725,166.665a.436.436,0,0,1-.1-.86c10.649-2.53,18.631-5.41,23.725-8.562a.436.436,0,1,1,.459.742c-5.173,3.2-13.242,6.117-23.983,8.668a.394.394,0,0,1-.1.012" transform="translate(-55.176 -20.015)" fill="#f6eee3"/>
              <g id="Group_1112397" data-name="Group 1112397" transform="translate(77.077 183.237)" opacity="0.69">
                <g id="Group_1112396" data-name="Group 1112396">
                  <g id="Group_1112395" data-name="Group 1112395" clip-path="url(#clip-path-8)">
                    <path id="Path_902894" data-name="Path 902894" d="M105.629,230.075l-16.936-17.47a1.309,1.309,0,1,1,1.88-1.821l15.143,15.62,17.511-16.428L144.794,226.7a1.309,1.309,0,0,1-1.6,2.069l-19.8-15.355Z" transform="translate(-88.324 -209.975)" fill="#1b1f38"/>
                  </g>
                </g>
              </g>
              <path id="Path_902895" data-name="Path 902895" d="M93.575,211.3a4.392,4.392,0,1,1-4.392-4.392,4.392,4.392,0,0,1,4.392,4.392" transform="translate(-10.798 -26.348)" fill="#bcc5f6"/>
              <path id="Path_902896" data-name="Path 902896" d="M132.164,211.3a4.392,4.392,0,1,1-4.392-4.392,4.392,4.392,0,0,1,4.392,4.392" transform="translate(-15.711 -26.348)" fill="#bcc5f6"/>
              <path id="Path_902897" data-name="Path 902897" d="M111.955,229.684a4.392,4.392,0,1,1-4.392-4.392,4.392,4.392,0,0,1,4.392,4.392" transform="translate(-13.138 -28.689)" fill="#5f73d3"/>
              <path id="Path_902898" data-name="Path 902898" d="M155.866,229.684a4.392,4.392,0,1,1-4.392-4.392,4.392,4.392,0,0,1,4.392,4.392" transform="translate(-18.73 -28.689)" fill="#5f73d3"/>
              <rect id="Rectangle_405016" data-name="Rectangle 405016" width="7.081" height="50.353" transform="translate(304.227 149.762)" fill="#5c69ab"/>
              <path id="Path_902899" data-name="Path 902899" d="M356.073,222.342H348.12V171.115h7.953Zm-7.081-.873H355.2V171.989h-6.208Z" transform="translate(-44.33 -21.79)" fill="#5c69ab"/>
              <path id="Path_902900" data-name="Path 902900" d="M371.547,220.352h-7.953V155.488h7.953Zm-7.081-.873h6.208V156.361h-6.208Z" transform="translate(-46.301 -19.8)" fill="#111"/>
              <path id="Path_902901" data-name="Path 902901" d="M403.707,220.352h-7.953V155.488h7.953Zm-7.081-.873h6.208V156.361h-6.208Z" transform="translate(-50.396 -19.8)" fill="#111"/>
              <g id="Group_1112400" data-name="Group 1112400" transform="translate(358.907 126.42)" opacity="0.46">
                <g id="Group_1112399" data-name="Group 1112399">
                  <g id="Group_1112398" data-name="Group 1112398" clip-path="url(#clip-path-9)">
                    <rect id="Rectangle_405017" data-name="Rectangle 405017" width="7.081" height="73.694" transform="translate(0.001 0.001)" fill="#fff"/>
                  </g>
                </g>
              </g>
              <rect id="Rectangle_405019" data-name="Rectangle 405019" width="7.081" height="48.125" transform="translate(358.908 151.991)" fill="#5c69ab"/>
              <path id="Path_902902" data-name="Path 902902" d="M418.734,222.666h-7.953v-49h7.953Zm-7.082-.872h6.208V174.543h-6.208Z" transform="translate(-52.309 -22.115)" fill="#5c69ab"/>
              <rect id="Rectangle_405020" data-name="Rectangle 405020" width="7.081" height="45.109" transform="translate(332.157 155.007)" fill="#5c69ab"/>
              <path id="Path_902903" data-name="Path 902903" d="M388.08,223.106h-7.953v-45.98h7.953ZM381,222.235h6.208V178H381Z" transform="translate(-48.406 -22.555)" fill="#5c69ab"/>
            </g>
          </g>
        </g>
      </g>
    </g>
  </g>
</svg>
