<svg id="Group_1098580" data-name="Group 1098580" xmlns="http://www.w3.org/2000/svg" width="66.021" height="66.021" viewBox="0 0 66.021 66.021">
  <path id="Path_824488" data-name="Path 824488" d="M33.01,0A33.01,33.01,0,1,1,0,33.01,33.01,33.01,0,0,1,33.01,0Z" transform="translate(0 0)" fill="#cdb9f8"/>
  <g id="Group_1111536" data-name="Group 1111536" transform="translate(17.878 13.26)">
    <g id="Group_56587" data-name="Group 56587">
      <g id="Group_56577" data-name="Group 56577">
        <g id="Group_56576" data-name="Group 56576">
          <g id="Group_56575" data-name="Group 56575">
            <g id="Group_56574" data-name="Group 56574">
              <g id="Group_56573" data-name="Group 56573">
                <g id="Group_56572" data-name="Group 56572">
                  <g id="Group_56571" data-name="Group 56571">
                    <g id="Group_56570" data-name="Group 56570">
                      <g id="Group_56569" data-name="Group 56569">
                        <g id="Group_56568" data-name="Group 56568">
                          <path id="Path_103911" data-name="Path 103911" d="M265.1,258.352V228.324a2.7,2.7,0,0,1-2.106-2.631v-4.014a.319.319,0,0,0-.182-.292,2.008,2.008,0,0,0-.843-.185H242.541a2.654,2.654,0,0,0-2.654,2.655v34.192a2.654,2.654,0,0,0,2.654,2.655h21.181a2.7,2.7,0,0,0,1.375-2.351Z" transform="translate(-239.887 -221.202)" fill="#dfedfa" stroke="#000" stroke-width="1"/>
                          <path id="Path_103912" data-name="Path 103912" d="M299.04,239.515a2.657,2.657,0,0,1-.581-.065v29.559a2.655,2.655,0,0,1-2.655,2.655h5.279a2.655,2.655,0,0,0,2.655-2.655V240.348a2.007,2.007,0,0,0-.181-.833Z" transform="translate(-273.473 -232.162)" fill="#e7ecf1" stroke="#000" stroke-width="1"/>
                          <path id="Path_103913" data-name="Path 103913" d="M304.024,228.238l-6.174-6.174a2.007,2.007,0,0,0-.589-.408v4.516a2.655,2.655,0,0,0,2.654,2.655h4.517A2.009,2.009,0,0,0,304.024,228.238Z" transform="translate(-274.348 -221.475)" fill="#5ab4f9" stroke="#000" stroke-width="1"/>
                        </g>
                      </g>
                    </g>
                  </g>
                </g>
              </g>
            </g>
          </g>
        </g>
      </g>
    </g>
    <g id="Group_56588" data-name="Group 56588" transform="translate(3.953 11.198)">
      <path id="Path_103924" data-name="Path 103924" d="M271.5,250.53H250.43a.644.644,0,1,1,0-1.289H271.5a.644.644,0,1,1,0,1.289Z" transform="translate(-249.785 -249.241)" fill="#5ab4f9" stroke="#000" stroke-width="1"/>
    </g>
    <g id="Group_56589" data-name="Group 56589" transform="translate(3.953 6.708)">
      <path id="Path_103925" data-name="Path 103925" d="M260.965,239.288H250.43a.644.644,0,1,1,0-1.289h10.535a.644.644,0,0,1,0,1.289Z" transform="translate(-249.785 -237.999)" fill="#5ab4f9" stroke="#000" stroke-width="1"/>
    </g>
    <g id="Group_56590" data-name="Group 56590" transform="translate(3.953 15.176)">
      <path id="Path_103926" data-name="Path 103926" d="M271.5,260.491H250.43a.644.644,0,1,1,0-1.289H271.5a.644.644,0,1,1,0,1.289Z" transform="translate(-249.785 -259.202)" fill="#5ab4f9" stroke="#000" stroke-width="1"/>
    </g>
  </g>
</svg>
