<svg xmlns="http://www.w3.org/2000/svg" xmlns:xlink="http://www.w3.org/1999/xlink" width="103" height="103" viewBox="0 0 103 103">
  <defs>
    <filter id="Path_873828" x="0" y="0" width="103" height="103" filterUnits="userSpaceOnUse">
      <feOffset dy="3" input="SourceAlpha"/>
      <feGaussianBlur stdDeviation="3" result="blur"/>
      <feFlood flood-opacity="0.161"/>
      <feComposite operator="in" in2="blur"/>
    </filter>
    <filter id="Path_873828-2" x="0" y="0" width="103" height="103" filterUnits="userSpaceOnUse">
      <feOffset dy="3" input="SourceAlpha"/>
      <feGaussianBlur stdDeviation="3" result="blur-2"/>
      <feFlood flood-opacity="0.161" result="color"/>
      <feComposite operator="out" in="SourceGraphic" in2="blur-2"/>
      <feComposite operator="in" in="color"/>
      <feComposite operator="in" in2="SourceGraphic"/>
    </filter>
  </defs>
  <g id="Group_1112148" data-name="Group 1112148" transform="translate(8.949 6)">
    <g data-type="innerShadowGroup">
      <g transform="matrix(1, 0, 0, 1, -8.95, -6)" filter="url(#Path_873828)">
        <g id="Path_873828-3" data-name="Path 873828" transform="translate(9 6)" fill="#5ab4f9">
          <path d="M 42.5 83 C 37.03165054321289 83 31.72793769836426 81.92946624755859 26.73618698120117 79.81813812255859 C 21.91371154785156 77.77839660644531 17.582275390625 74.85792541503906 13.86217498779297 71.13782501220703 C 10.14207458496094 67.41773986816406 7.22160005569458 63.08628845214844 5.181875228881836 58.26381301879883 C 3.070537567138672 53.27206420898438 2 47.96834945678711 2 42.5 C 2 37.03165054321289 3.070537567138672 31.72793769836426 5.181875228881836 26.73618698120117 C 7.22160005569458 21.91371154785156 10.14207458496094 17.582275390625 13.86217498779297 13.86217498779297 C 17.582275390625 10.14207458496094 21.91371154785156 7.22160005569458 26.73618698120117 5.181875228881836 C 31.72793769836426 3.070537567138672 37.03165054321289 2 42.5 2 C 47.96834945678711 2 53.27206420898438 3.070537567138672 58.26381301879883 5.181875228881836 C 63.08628845214844 7.22160005569458 67.41773986816406 10.14207458496094 71.13782501220703 13.86217498779297 C 74.85792541503906 17.582275390625 77.77839660644531 21.91371154785156 79.81813812255859 26.73618698120117 C 81.92946624755859 31.72793769836426 83 37.03165054321289 83 42.5 C 83 47.96834945678711 81.92946624755859 53.27206420898438 79.81813812255859 58.26381301879883 C 77.77839660644531 63.08628845214844 74.85792541503906 67.41773986816406 71.13782501220703 71.13782501220703 C 67.41773986816406 74.85792541503906 63.08628845214844 77.77839660644531 58.26381301879883 79.81813812255859 C 53.27206420898438 81.92946624755859 47.96834945678711 83 42.5 83 Z" stroke="none"/>
          <path d="M 42.5 4 C 37.3007698059082 4 32.25918579101562 5.017387390136719 27.51528549194336 7.023887634277344 C 22.93121337890625 8.962783813476562 18.81345367431641 11.73932647705078 15.27638244628906 15.27638244628906 C 11.73932647705078 18.81345367431641 8.962783813476562 22.93121337890625 7.023887634277344 27.51528549194336 C 5.017387390136719 32.25918579101562 4 37.3007698059082 4 42.5 C 4 47.6992301940918 5.017387390136719 52.74081420898438 7.023887634277344 57.48471450805664 C 8.962783813476562 62.06878662109375 11.73932647705078 66.18653869628906 15.27638244628906 69.72361755371094 C 18.81345367431641 73.26067352294922 22.93121337890625 76.03721618652344 27.51528549194336 77.97611236572266 C 32.25918579101562 79.98261260986328 37.3007698059082 81 42.5 81 C 47.6992301940918 81 52.74081420898438 79.98261260986328 57.48471450805664 77.97611236572266 C 62.06878662109375 76.03721618652344 66.18653869628906 73.26067352294922 69.72361755371094 69.72361755371094 C 73.26067352294922 66.18653869628906 76.03721618652344 62.06878662109375 77.97611236572266 57.48471450805664 C 79.98261260986328 52.74081420898438 81 47.6992301940918 81 42.5 C 81 37.3007698059082 79.98261260986328 32.25918579101562 77.97611236572266 27.51528549194336 C 76.03721618652344 22.93121337890625 73.26067352294922 18.81345367431641 69.72361755371094 15.27638244628906 C 66.18653869628906 11.73932647705078 62.06878662109375 8.962783813476562 57.48471450805664 7.023887634277344 C 52.74081420898438 5.017387390136719 47.6992301940918 4 42.5 4 M 42.5 0 C 65.97209930419922 0 85 19.02790069580078 85 42.5 C 85 65.97209930419922 65.97209930419922 85 42.5 85 C 19.02790069580078 85 0 65.97209930419922 0 42.5 C 0 19.02790069580078 19.02790069580078 0 42.5 0 Z" stroke="none" fill="#fff"/>
        </g>
      </g>
      <g id="Path_873828-4" data-name="Path 873828" transform="translate(0.051)" fill="#5ab4f9">
        <path d="M 42.5 83 C 37.03165054321289 83 31.72793769836426 81.92946624755859 26.73618698120117 79.81813812255859 C 21.91371154785156 77.77839660644531 17.582275390625 74.85792541503906 13.86217498779297 71.13782501220703 C 10.14207458496094 67.41773986816406 7.22160005569458 63.08628845214844 5.181875228881836 58.26381301879883 C 3.070537567138672 53.27206420898438 2 47.96834945678711 2 42.5 C 2 37.03165054321289 3.070537567138672 31.72793769836426 5.181875228881836 26.73618698120117 C 7.22160005569458 21.91371154785156 10.14207458496094 17.582275390625 13.86217498779297 13.86217498779297 C 17.582275390625 10.14207458496094 21.91371154785156 7.22160005569458 26.73618698120117 5.181875228881836 C 31.72793769836426 3.070537567138672 37.03165054321289 2 42.5 2 C 47.96834945678711 2 53.27206420898438 3.070537567138672 58.26381301879883 5.181875228881836 C 63.08628845214844 7.22160005569458 67.41773986816406 10.14207458496094 71.13782501220703 13.86217498779297 C 74.85792541503906 17.582275390625 77.77839660644531 21.91371154785156 79.81813812255859 26.73618698120117 C 81.92946624755859 31.72793769836426 83 37.03165054321289 83 42.5 C 83 47.96834945678711 81.92946624755859 53.27206420898438 79.81813812255859 58.26381301879883 C 77.77839660644531 63.08628845214844 74.85792541503906 67.41773986816406 71.13782501220703 71.13782501220703 C 67.41773986816406 74.85792541503906 63.08628845214844 77.77839660644531 58.26381301879883 79.81813812255859 C 53.27206420898438 81.92946624755859 47.96834945678711 83 42.5 83 Z" stroke="none"/>
        <path d="M 42.5 4 C 37.3007698059082 4 32.25918579101562 5.017387390136719 27.51528549194336 7.023887634277344 C 22.93121337890625 8.962783813476562 18.81345367431641 11.73932647705078 15.27638244628906 15.27638244628906 C 11.73932647705078 18.81345367431641 8.962783813476562 22.93121337890625 7.023887634277344 27.51528549194336 C 5.017387390136719 32.25918579101562 4 37.3007698059082 4 42.5 C 4 47.6992301940918 5.017387390136719 52.74081420898438 7.023887634277344 57.48471450805664 C 8.962783813476562 62.06878662109375 11.73932647705078 66.18653869628906 15.27638244628906 69.72361755371094 C 18.81345367431641 73.26067352294922 22.93121337890625 76.03721618652344 27.51528549194336 77.97611236572266 C 32.25918579101562 79.98261260986328 37.3007698059082 81 42.5 81 C 47.6992301940918 81 52.74081420898438 79.98261260986328 57.48471450805664 77.97611236572266 C 62.06878662109375 76.03721618652344 66.18653869628906 73.26067352294922 69.72361755371094 69.72361755371094 C 73.26067352294922 66.18653869628906 76.03721618652344 62.06878662109375 77.97611236572266 57.48471450805664 C 79.98261260986328 52.74081420898438 81 47.6992301940918 81 42.5 C 81 37.3007698059082 79.98261260986328 32.25918579101562 77.97611236572266 27.51528549194336 C 76.03721618652344 22.93121337890625 73.26067352294922 18.81345367431641 69.72361755371094 15.27638244628906 C 66.18653869628906 11.73932647705078 62.06878662109375 8.962783813476562 57.48471450805664 7.023887634277344 C 52.74081420898438 5.017387390136719 47.6992301940918 4 42.5 4 M 42.5 0 C 65.97209930419922 0 85 19.02790069580078 85 42.5 C 85 65.97209930419922 65.97209930419922 85 42.5 85 C 19.02790069580078 85 0 65.97209930419922 0 42.5 C 0 19.02790069580078 19.02790069580078 0 42.5 0 Z" stroke="none"/>
      </g>
      <g transform="matrix(1, 0, 0, 1, -8.95, -6)" filter="url(#Path_873828-2)">
        <g id="Path_873828-5" data-name="Path 873828" transform="translate(9 6)" fill="#fff">
          <path d="M 42.5 83 C 37.03165054321289 83 31.72793769836426 81.92946624755859 26.73618698120117 79.81813812255859 C 21.91371154785156 77.77839660644531 17.582275390625 74.85792541503906 13.86217498779297 71.13782501220703 C 10.14207458496094 67.41773986816406 7.22160005569458 63.08628845214844 5.181875228881836 58.26381301879883 C 3.070537567138672 53.27206420898438 2 47.96834945678711 2 42.5 C 2 37.03165054321289 3.070537567138672 31.72793769836426 5.181875228881836 26.73618698120117 C 7.22160005569458 21.91371154785156 10.14207458496094 17.582275390625 13.86217498779297 13.86217498779297 C 17.582275390625 10.14207458496094 21.91371154785156 7.22160005569458 26.73618698120117 5.181875228881836 C 31.72793769836426 3.070537567138672 37.03165054321289 2 42.5 2 C 47.96834945678711 2 53.27206420898438 3.070537567138672 58.26381301879883 5.181875228881836 C 63.08628845214844 7.22160005569458 67.41773986816406 10.14207458496094 71.13782501220703 13.86217498779297 C 74.85792541503906 17.582275390625 77.77839660644531 21.91371154785156 79.81813812255859 26.73618698120117 C 81.92946624755859 31.72793769836426 83 37.03165054321289 83 42.5 C 83 47.96834945678711 81.92946624755859 53.27206420898438 79.81813812255859 58.26381301879883 C 77.77839660644531 63.08628845214844 74.85792541503906 67.41773986816406 71.13782501220703 71.13782501220703 C 67.41773986816406 74.85792541503906 63.08628845214844 77.77839660644531 58.26381301879883 79.81813812255859 C 53.27206420898438 81.92946624755859 47.96834945678711 83 42.5 83 Z" stroke="none"/>
          <path d="M 42.5 4 C 37.3007698059082 4 32.25918579101562 5.017387390136719 27.51528549194336 7.023887634277344 C 22.93121337890625 8.962783813476562 18.81345367431641 11.73932647705078 15.27638244628906 15.27638244628906 C 11.73932647705078 18.81345367431641 8.962783813476562 22.93121337890625 7.023887634277344 27.51528549194336 C 5.017387390136719 32.25918579101562 4 37.3007698059082 4 42.5 C 4 47.6992301940918 5.017387390136719 52.74081420898438 7.023887634277344 57.48471450805664 C 8.962783813476562 62.06878662109375 11.73932647705078 66.18653869628906 15.27638244628906 69.72361755371094 C 18.81345367431641 73.26067352294922 22.93121337890625 76.03721618652344 27.51528549194336 77.97611236572266 C 32.25918579101562 79.98261260986328 37.3007698059082 81 42.5 81 C 47.6992301940918 81 52.74081420898438 79.98261260986328 57.48471450805664 77.97611236572266 C 62.06878662109375 76.03721618652344 66.18653869628906 73.26067352294922 69.72361755371094 69.72361755371094 C 73.26067352294922 66.18653869628906 76.03721618652344 62.06878662109375 77.97611236572266 57.48471450805664 C 79.98261260986328 52.74081420898438 81 47.6992301940918 81 42.5 C 81 37.3007698059082 79.98261260986328 32.25918579101562 77.97611236572266 27.51528549194336 C 76.03721618652344 22.93121337890625 73.26067352294922 18.81345367431641 69.72361755371094 15.27638244628906 C 66.18653869628906 11.73932647705078 62.06878662109375 8.962783813476562 57.48471450805664 7.023887634277344 C 52.74081420898438 5.017387390136719 47.6992301940918 4 42.5 4 M 42.5 0 C 65.97209930419922 0 85 19.02790069580078 85 42.5 C 85 65.97209930419922 65.97209930419922 85 42.5 85 C 19.02790069580078 85 0 65.97209930419922 0 42.5 C 0 19.02790069580078 19.02790069580078 0 42.5 0 Z" stroke="none"/>
        </g>
      </g>
      <g id="Path_873828-6" data-name="Path 873828" transform="translate(0.051)" fill="none">
        <path d="M 42.5 83 C 37.03165054321289 83 31.72793769836426 81.92946624755859 26.73618698120117 79.81813812255859 C 21.91371154785156 77.77839660644531 17.582275390625 74.85792541503906 13.86217498779297 71.13782501220703 C 10.14207458496094 67.41773986816406 7.22160005569458 63.08628845214844 5.181875228881836 58.26381301879883 C 3.070537567138672 53.27206420898438 2 47.96834945678711 2 42.5 C 2 37.03165054321289 3.070537567138672 31.72793769836426 5.181875228881836 26.73618698120117 C 7.22160005569458 21.91371154785156 10.14207458496094 17.582275390625 13.86217498779297 13.86217498779297 C 17.582275390625 10.14207458496094 21.91371154785156 7.22160005569458 26.73618698120117 5.181875228881836 C 31.72793769836426 3.070537567138672 37.03165054321289 2 42.5 2 C 47.96834945678711 2 53.27206420898438 3.070537567138672 58.26381301879883 5.181875228881836 C 63.08628845214844 7.22160005569458 67.41773986816406 10.14207458496094 71.13782501220703 13.86217498779297 C 74.85792541503906 17.582275390625 77.77839660644531 21.91371154785156 79.81813812255859 26.73618698120117 C 81.92946624755859 31.72793769836426 83 37.03165054321289 83 42.5 C 83 47.96834945678711 81.92946624755859 53.27206420898438 79.81813812255859 58.26381301879883 C 77.77839660644531 63.08628845214844 74.85792541503906 67.41773986816406 71.13782501220703 71.13782501220703 C 67.41773986816406 74.85792541503906 63.08628845214844 77.77839660644531 58.26381301879883 79.81813812255859 C 53.27206420898438 81.92946624755859 47.96834945678711 83 42.5 83 Z" stroke="none"/>
        <path d="M 42.5 4 C 37.3007698059082 4 32.25918579101562 5.017387390136719 27.51528549194336 7.023887634277344 C 22.93121337890625 8.962783813476562 18.81345367431641 11.73932647705078 15.27638244628906 15.27638244628906 C 11.73932647705078 18.81345367431641 8.962783813476562 22.93121337890625 7.023887634277344 27.51528549194336 C 5.017387390136719 32.25918579101562 4 37.3007698059082 4 42.5 C 4 47.6992301940918 5.017387390136719 52.74081420898438 7.023887634277344 57.48471450805664 C 8.962783813476562 62.06878662109375 11.73932647705078 66.18653869628906 15.27638244628906 69.72361755371094 C 18.81345367431641 73.26067352294922 22.93121337890625 76.03721618652344 27.51528549194336 77.97611236572266 C 32.25918579101562 79.98261260986328 37.3007698059082 81 42.5 81 C 47.6992301940918 81 52.74081420898438 79.98261260986328 57.48471450805664 77.97611236572266 C 62.06878662109375 76.03721618652344 66.18653869628906 73.26067352294922 69.72361755371094 69.72361755371094 C 73.26067352294922 66.18653869628906 76.03721618652344 62.06878662109375 77.97611236572266 57.48471450805664 C 79.98261260986328 52.74081420898438 81 47.6992301940918 81 42.5 C 81 37.3007698059082 79.98261260986328 32.25918579101562 77.97611236572266 27.51528549194336 C 76.03721618652344 22.93121337890625 73.26067352294922 18.81345367431641 69.72361755371094 15.27638244628906 C 66.18653869628906 11.73932647705078 62.06878662109375 8.962783813476562 57.48471450805664 7.023887634277344 C 52.74081420898438 5.017387390136719 47.6992301940918 4 42.5 4 M 42.5 0 C 65.97209930419922 0 85 19.02790069580078 85 42.5 C 85 65.97209930419922 65.97209930419922 85 42.5 85 C 19.02790069580078 85 0 65.97209930419922 0 42.5 C 0 19.02790069580078 19.02790069580078 0 42.5 0 Z" stroke="none" fill="#fff"/>
      </g>
    </g>
    <g id="Group_1112149" data-name="Group 1112149" transform="translate(18.451 16.755)">
      <path id="Path_901801" data-name="Path 901801" d="M70.812,52.624H48.5V8H74.245V52.624Zm0,0" transform="translate(-42.851 -7.142)" fill="#6fb944"/>
      <path id="Path_901802" data-name="Path 901802" d="M99.38,71.752a6.007,6.007,0,0,0-6.007,6.007H86.507A6.007,6.007,0,0,0,80.5,71.752V46.007A6.007,6.007,0,0,0,86.507,40h6.865a6.007,6.007,0,0,0,6.007,6.007Zm0,0" transform="translate(-71.418 -35.709)" fill="#2d8e43"/>
      <path id="Path_901803" data-name="Path 901803" d="M127.466,178.106a5.143,5.143,0,1,1,3.14-3.14" transform="translate(-107.228 -150.079)" fill="#6fb944"/>
      <path id="Path_901804" data-name="Path 901804" d="M235.933,35.433h-1.716V33.716H232.5V32h2.574a.858.858,0,0,1,.858.858Zm0,0" transform="translate(-207.113 -28.567)" fill="#2d8e43"/>
      <path id="Path_901805" data-name="Path 901805" d="M74.216,35.433H72.5V32.858A.858.858,0,0,1,73.358,32h2.574v1.716H74.216Zm0,0" transform="translate(-64.277 -28.567)" fill="#2d8e43"/>
      <path id="Path_901806" data-name="Path 901806" d="M75.933,371.433H73.358a.858.858,0,0,1-.858-.858V368h1.716v1.716h1.716Zm0,0" transform="translate(-64.277 -328.525)" fill="#2d8e43"/>
      <path id="Path_901807" data-name="Path 901807" d="M194.36,158.617V130.3l-10.3-10.3v19.755l-8.41-8.419a2.423,2.423,0,0,0-3.433,3.42l8.41,8.415v9.44l4.291,2.574v3.433Zm0,0" transform="translate(-152.668 -107.128)" fill="#eecfb1"/>
      <path id="Path_901808" data-name="Path 901808" d="M294.256,186.443l-1.213,1.214-4.542-4.542v-2.427Zm0,0" transform="translate(-257.106 -161.305)" fill="#eabe97"/>
      <g id="Group_1112149-2" data-name="Group 1112149" transform="translate(0.5 4.291)">
        <path id="Path_901809" data-name="Path 901809" d="M424.5,408h1.716v5.149H424.5Zm0,0" transform="translate(-379.017 -368.525)" fill="#6fb944"/>
        <path id="Path_901810" data-name="Path 901810" d="M40.5,384h1.716v6.007H40.5Zm0,0" transform="translate(-36.209 -347.099)" fill="#6fb944"/>
        <path id="Path_901811" data-name="Path 901811" d="M40.5,456h1.716v1.716H40.5Zm0,0" transform="translate(-36.209 -411.376)" fill="#6fb944"/>
        <path id="Path_901812" data-name="Path 901812" d="M.5,176H2.216v4.291H.5Zm0,0" transform="translate(-0.5 -161.411)" fill="#6fb944"/>
        <path id="Path_901813" data-name="Path 901813" d="M424.5,144h1.716v4.291H424.5Zm0,0" transform="translate(-379.017 -132.844)" fill="#6fb944"/>
        <path id="Path_901814" data-name="Path 901814" d="M424.5,200h1.716v1.716H424.5Zm0,0" transform="translate(-379.017 -182.837)" fill="#6fb944"/>
        <path id="Path_901815" data-name="Path 901815" d="M328.5,40h1.716v4.291H328.5Zm0,0" transform="translate(-293.315 -40)" fill="#6fb944"/>
        <path id="Path_901816" data-name="Path 901816" d="M328.5,96h1.716v1.716H328.5Zm0,0" transform="translate(-293.315 -89.993)" fill="#6fb944"/>
      </g>
      <path id="Path_901817" data-name="Path 901817" d="M235.074,32H232.5v1.716h1.716v1.716h1.716V32.858A.858.858,0,0,0,235.074,32Zm0,0" transform="translate(-207.113 -28.567)"/>
      <path id="Path_901818" data-name="Path 901818" d="M72.5,32.858v2.574h1.716V33.716h1.716V32H73.358A.858.858,0,0,0,72.5,32.858Zm0,0" transform="translate(-64.277 -28.567)"/>
      <path id="Path_901819" data-name="Path 901819" d="M67.1,0H41.358A.858.858,0,0,0,40.5.858V47.2h1.716v-.858H63.433l3.67,2.2V51.49h1.716V48.057a.858.858,0,0,0-.416-.735L64.529,45V36.043a.858.858,0,0,0-.251-.607L55.69,26.845a1.562,1.562,0,1,1,2.208-2.21l9.02,9.02,1.216-1.217-.172-.171v-9.6l3.684,3.684,1.214-1.213-4.9-4.9v-5.3l8.582,8.582V51.49h1.716V23.17a.858.858,0,0,0-.251-.607L67.961,12.517V.858A.858.858,0,0,0,67.1,0ZM62.812,27.124,60.1,24.407a6.08,6.08,0,1,0-4.643,4.634l6.4,6.4a6.883,6.883,0,0,0-4.989,5.756H51.6a6.88,6.88,0,0,0-5.954-5.953V11.1A6.882,6.882,0,0,0,51.6,5.149h5.255A6.882,6.882,0,0,0,62.812,11.1Zm-6.021-4.662h0A3.27,3.27,0,0,0,54,27.439a4.282,4.282,0,1,1,4.5-4.486A3.247,3.247,0,0,0,56.791,22.461Zm7.737,6.379V10.3a.858.858,0,0,0-.858-.858,5.154,5.154,0,0,1-5.149-5.149.858.858,0,0,0-.858-.858H50.8a.858.858,0,0,0-.858.858A5.154,5.154,0,0,1,44.791,9.44a.858.858,0,0,0-.858.858V36.043a.858.858,0,0,0,.858.858A5.154,5.154,0,0,1,49.94,42.05a.858.858,0,0,0,.858.858h6.865a.858.858,0,0,0,.858-.858,5.154,5.154,0,0,1,4.291-5.072v7.646h-20.6V1.716H66.245v28.84Zm0,0" transform="translate(-35.709)"/>
      <path id="Path_901820" data-name="Path 901820" d="M72.5,370.574a.858.858,0,0,0,.858.858h2.574v-1.716H74.216V368H72.5Zm0,0" transform="translate(-64.277 -328.525)"/>
      <path id="Path_901821" data-name="Path 901821" d="M424.5,408h1.716v5.149H424.5Zm0,0" transform="translate(-378.517 -364.234)"/>
      <path id="Path_901822" data-name="Path 901822" d="M40.5,456h1.716v1.716H40.5Zm0,0" transform="translate(-35.709 -407.085)"/>
      <path id="Path_901823" data-name="Path 901823" d="M.5,176H2.216v4.291H.5Zm0,0" transform="translate(0 -157.12)"/>
      <path id="Path_901824" data-name="Path 901824" d="M424.5,144h1.716v4.291H424.5Zm0,0" transform="translate(-378.517 -128.553)"/>
      <path id="Path_901825" data-name="Path 901825" d="M424.5,200h1.716v1.716H424.5Zm0,0" transform="translate(-378.517 -178.546)"/>
      <path id="Path_901826" data-name="Path 901826" d="M328.5,40h1.716v4.291H328.5Zm0,0" transform="translate(-292.815 -35.709)"/>
      <path id="Path_901827" data-name="Path 901827" d="M328.5,96h1.716v1.716H328.5Zm0,0" transform="translate(-292.815 -85.702)"/>
    </g>
  </g>
</svg>
