<svg xmlns="http://www.w3.org/2000/svg" xmlns:xlink="http://www.w3.org/1999/xlink" width="113.15" height="113.15" viewBox="0 0 113.15 113.15">
  <defs>
    <filter id="Path_873828" x="0" y="0" width="113.15" height="113.15" filterUnits="userSpaceOnUse">
      <feOffset dy="3" input="SourceAlpha"/>
      <feGaussianBlur stdDeviation="3" result="blur"/>
      <feFlood flood-opacity="0.161"/>
      <feComposite operator="in" in2="blur"/>
    </filter>
    <filter id="Path_873828-2" x="0" y="0" width="113.15" height="113.15" filterUnits="userSpaceOnUse">
      <feOffset dy="3" input="SourceAlpha"/>
      <feGaussianBlur stdDeviation="3" result="blur-2"/>
      <feFlood flood-opacity="0.161" result="color"/>
      <feComposite operator="out" in="SourceGraphic" in2="blur-2"/>
      <feComposite operator="in" in="color"/>
      <feComposite operator="in" in2="SourceGraphic"/>
    </filter>
  </defs>
  <g id="Group_1111421" data-name="Group 1111421" transform="translate(8.949 6)">
    <g data-type="innerShadowGroup">
      <g transform="matrix(1, 0, 0, 1, -8.95, -6)" filter="url(#Path_873828)">
        <g id="Path_873828-3" data-name="Path 873828" transform="translate(9 6)" fill="#5ab4f9">
          <path d="M 47.57511901855469 93.15023040771484 C 41.42163467407227 93.15023040771484 35.45327758789062 91.94551849365234 29.8358325958252 89.56953430175781 C 24.40901947021484 87.27419281005859 19.53483390808105 83.98777770996094 15.34864711761475 79.80158996582031 C 11.16246223449707 75.61540222167969 7.876047611236572 70.74121856689453 5.580704689025879 65.31440734863281 C 3.204719066619873 59.69696044921875 2.000004768371582 53.72860336303711 2.000004768371582 47.57511901855469 C 2.000004768371582 41.42163467407227 3.204719066619873 35.45327758789062 5.580704689025879 29.8358325958252 C 7.876047611236572 24.40901947021484 11.16246223449707 19.53483390808105 15.34864711761475 15.34864711761475 C 19.53483390808105 11.16246223449707 24.40901947021484 7.876047611236572 29.8358325958252 5.580704689025879 C 35.45327758789062 3.204719066619873 41.42163467407227 2.000004768371582 47.57511901855469 2.000004768371582 C 53.72860336303711 2.000004768371582 59.69696044921875 3.204719066619873 65.31440734863281 5.580704689025879 C 70.74121856689453 7.876047611236572 75.61540222167969 11.16246223449707 79.80158996582031 15.34864711761475 C 83.98777770996094 19.53483390808105 87.27419281005859 24.40901947021484 89.56953430175781 29.8358325958252 C 91.94551849365234 35.45327758789062 93.15023040771484 41.42163467407227 93.15023040771484 47.57511901855469 C 93.15023040771484 53.72860336303711 91.94551849365234 59.69696044921875 89.56953430175781 65.31440734863281 C 87.27419281005859 70.74121856689453 83.98777770996094 75.61540222167969 79.80158996582031 79.80158996582031 C 75.61540222167969 83.98777770996094 70.74121856689453 87.27419281005859 65.31440734863281 89.56953430175781 C 59.69696044921875 91.94551849365234 53.72860336303711 93.15023040771484 47.57511901855469 93.15023040771484 Z" stroke="none"/>
          <path d="M 47.57511901855469 3.999992370605469 C 41.69075012207031 3.999992370605469 35.98451995849609 5.151565551757812 30.61493682861328 7.422706604003906 C 25.42652130126953 9.617210388183594 20.76601409912109 12.75970458984375 16.76285552978516 16.76285552978516 C 12.75970458984375 20.76601409912109 9.617210388183594 25.42652130126953 7.422706604003906 30.61493682861328 C 5.151565551757812 35.98451995849609 3.999992370605469 41.69075012207031 3.999992370605469 47.57511901855469 C 3.999992370605469 53.45948791503906 5.151565551757812 59.16571807861328 7.422706604003906 64.53530120849609 C 9.617210388183594 69.72371673583984 12.75970458984375 74.38422393798828 16.76285552978516 78.38738250732422 C 20.76601409912109 82.39053344726562 25.42652130126953 85.53302764892578 30.61493682861328 87.72753143310547 C 35.98451995849609 89.99867248535156 41.69075012207031 91.15024566650391 47.57511901855469 91.15024566650391 C 53.45948791503906 91.15024566650391 59.16571807861328 89.99867248535156 64.53530120849609 87.72753143310547 C 69.72371673583984 85.53302764892578 74.38422393798828 82.39053344726562 78.38738250732422 78.38738250732422 C 82.39053344726562 74.38422393798828 85.53302764892578 69.72371673583984 87.72753143310547 64.53530120849609 C 89.99867248535156 59.16571807861328 91.15024566650391 53.45948791503906 91.15024566650391 47.57511901855469 C 91.15024566650391 41.69075012207031 89.99867248535156 35.98451995849609 87.72753143310547 30.61493682861328 C 85.53302764892578 25.42652130126953 82.39053344726562 20.76601409912109 78.38738250732422 16.76285552978516 C 74.38422393798828 12.75970458984375 69.72371673583984 9.617210388183594 64.53530120849609 7.422706604003906 C 59.16571807861328 5.151565551757812 53.45948791503906 3.999992370605469 47.57511901855469 3.999992370605469 M 47.57511901855469 -7.62939453125e-06 C 73.85013580322266 -7.62939453125e-06 95.15024566650391 21.30010223388672 95.15024566650391 47.57511901855469 C 95.15024566650391 73.85013580322266 73.85013580322266 95.15024566650391 47.57511901855469 95.15024566650391 C 21.30010223388672 95.15024566650391 -7.62939453125e-06 73.85013580322266 -7.62939453125e-06 47.57511901855469 C -7.62939453125e-06 21.30010223388672 21.30010223388672 -7.62939453125e-06 47.57511901855469 -7.62939453125e-06 Z" stroke="none" fill="#fff"/>
        </g>
      </g>
      <g id="Path_873828-4" data-name="Path 873828" transform="translate(0.051)" fill="#5ab4f9">
        <path d="M 47.57511901855469 93.15023040771484 C 41.42163467407227 93.15023040771484 35.45327758789062 91.94551849365234 29.8358325958252 89.56953430175781 C 24.40901947021484 87.27419281005859 19.53483390808105 83.98777770996094 15.34864711761475 79.80158996582031 C 11.16246223449707 75.61540222167969 7.876047611236572 70.74121856689453 5.580704689025879 65.31440734863281 C 3.204719066619873 59.69696044921875 2.000004768371582 53.72860336303711 2.000004768371582 47.57511901855469 C 2.000004768371582 41.42163467407227 3.204719066619873 35.45327758789062 5.580704689025879 29.8358325958252 C 7.876047611236572 24.40901947021484 11.16246223449707 19.53483390808105 15.34864711761475 15.34864711761475 C 19.53483390808105 11.16246223449707 24.40901947021484 7.876047611236572 29.8358325958252 5.580704689025879 C 35.45327758789062 3.204719066619873 41.42163467407227 2.000004768371582 47.57511901855469 2.000004768371582 C 53.72860336303711 2.000004768371582 59.69696044921875 3.204719066619873 65.31440734863281 5.580704689025879 C 70.74121856689453 7.876047611236572 75.61540222167969 11.16246223449707 79.80158996582031 15.34864711761475 C 83.98777770996094 19.53483390808105 87.27419281005859 24.40901947021484 89.56953430175781 29.8358325958252 C 91.94551849365234 35.45327758789062 93.15023040771484 41.42163467407227 93.15023040771484 47.57511901855469 C 93.15023040771484 53.72860336303711 91.94551849365234 59.69696044921875 89.56953430175781 65.31440734863281 C 87.27419281005859 70.74121856689453 83.98777770996094 75.61540222167969 79.80158996582031 79.80158996582031 C 75.61540222167969 83.98777770996094 70.74121856689453 87.27419281005859 65.31440734863281 89.56953430175781 C 59.69696044921875 91.94551849365234 53.72860336303711 93.15023040771484 47.57511901855469 93.15023040771484 Z" stroke="none"/>
        <path d="M 47.57511901855469 3.999992370605469 C 41.69075012207031 3.999992370605469 35.98451995849609 5.151565551757812 30.61493682861328 7.422706604003906 C 25.42652130126953 9.617210388183594 20.76601409912109 12.75970458984375 16.76285552978516 16.76285552978516 C 12.75970458984375 20.76601409912109 9.617210388183594 25.42652130126953 7.422706604003906 30.61493682861328 C 5.151565551757812 35.98451995849609 3.999992370605469 41.69075012207031 3.999992370605469 47.57511901855469 C 3.999992370605469 53.45948791503906 5.151565551757812 59.16571807861328 7.422706604003906 64.53530120849609 C 9.617210388183594 69.72371673583984 12.75970458984375 74.38422393798828 16.76285552978516 78.38738250732422 C 20.76601409912109 82.39053344726562 25.42652130126953 85.53302764892578 30.61493682861328 87.72753143310547 C 35.98451995849609 89.99867248535156 41.69075012207031 91.15024566650391 47.57511901855469 91.15024566650391 C 53.45948791503906 91.15024566650391 59.16571807861328 89.99867248535156 64.53530120849609 87.72753143310547 C 69.72371673583984 85.53302764892578 74.38422393798828 82.39053344726562 78.38738250732422 78.38738250732422 C 82.39053344726562 74.38422393798828 85.53302764892578 69.72371673583984 87.72753143310547 64.53530120849609 C 89.99867248535156 59.16571807861328 91.15024566650391 53.45948791503906 91.15024566650391 47.57511901855469 C 91.15024566650391 41.69075012207031 89.99867248535156 35.98451995849609 87.72753143310547 30.61493682861328 C 85.53302764892578 25.42652130126953 82.39053344726562 20.76601409912109 78.38738250732422 16.76285552978516 C 74.38422393798828 12.75970458984375 69.72371673583984 9.617210388183594 64.53530120849609 7.422706604003906 C 59.16571807861328 5.151565551757812 53.45948791503906 3.999992370605469 47.57511901855469 3.999992370605469 M 47.57511901855469 -7.62939453125e-06 C 73.85013580322266 -7.62939453125e-06 95.15024566650391 21.30010223388672 95.15024566650391 47.57511901855469 C 95.15024566650391 73.85013580322266 73.85013580322266 95.15024566650391 47.57511901855469 95.15024566650391 C 21.30010223388672 95.15024566650391 -7.62939453125e-06 73.85013580322266 -7.62939453125e-06 47.57511901855469 C -7.62939453125e-06 21.30010223388672 21.30010223388672 -7.62939453125e-06 47.57511901855469 -7.62939453125e-06 Z" stroke="none"/>
      </g>
      <g transform="matrix(1, 0, 0, 1, -8.95, -6)" filter="url(#Path_873828-2)">
        <g id="Path_873828-5" data-name="Path 873828" transform="translate(9 6)" fill="#fff">
          <path d="M 47.57511901855469 93.15023040771484 C 41.42163467407227 93.15023040771484 35.45327758789062 91.94551849365234 29.8358325958252 89.56953430175781 C 24.40901947021484 87.27419281005859 19.53483390808105 83.98777770996094 15.34864711761475 79.80158996582031 C 11.16246223449707 75.61540222167969 7.876047611236572 70.74121856689453 5.580704689025879 65.31440734863281 C 3.204719066619873 59.69696044921875 2.000004768371582 53.72860336303711 2.000004768371582 47.57511901855469 C 2.000004768371582 41.42163467407227 3.204719066619873 35.45327758789062 5.580704689025879 29.8358325958252 C 7.876047611236572 24.40901947021484 11.16246223449707 19.53483390808105 15.34864711761475 15.34864711761475 C 19.53483390808105 11.16246223449707 24.40901947021484 7.876047611236572 29.8358325958252 5.580704689025879 C 35.45327758789062 3.204719066619873 41.42163467407227 2.000004768371582 47.57511901855469 2.000004768371582 C 53.72860336303711 2.000004768371582 59.69696044921875 3.204719066619873 65.31440734863281 5.580704689025879 C 70.74121856689453 7.876047611236572 75.61540222167969 11.16246223449707 79.80158996582031 15.34864711761475 C 83.98777770996094 19.53483390808105 87.27419281005859 24.40901947021484 89.56953430175781 29.8358325958252 C 91.94551849365234 35.45327758789062 93.15023040771484 41.42163467407227 93.15023040771484 47.57511901855469 C 93.15023040771484 53.72860336303711 91.94551849365234 59.69696044921875 89.56953430175781 65.31440734863281 C 87.27419281005859 70.74121856689453 83.98777770996094 75.61540222167969 79.80158996582031 79.80158996582031 C 75.61540222167969 83.98777770996094 70.74121856689453 87.27419281005859 65.31440734863281 89.56953430175781 C 59.69696044921875 91.94551849365234 53.72860336303711 93.15023040771484 47.57511901855469 93.15023040771484 Z" stroke="none"/>
          <path d="M 47.57511901855469 3.999992370605469 C 41.69075012207031 3.999992370605469 35.98451995849609 5.151565551757812 30.61493682861328 7.422706604003906 C 25.42652130126953 9.617210388183594 20.76601409912109 12.75970458984375 16.76285552978516 16.76285552978516 C 12.75970458984375 20.76601409912109 9.617210388183594 25.42652130126953 7.422706604003906 30.61493682861328 C 5.151565551757812 35.98451995849609 3.999992370605469 41.69075012207031 3.999992370605469 47.57511901855469 C 3.999992370605469 53.45948791503906 5.151565551757812 59.16571807861328 7.422706604003906 64.53530120849609 C 9.617210388183594 69.72371673583984 12.75970458984375 74.38422393798828 16.76285552978516 78.38738250732422 C 20.76601409912109 82.39053344726562 25.42652130126953 85.53302764892578 30.61493682861328 87.72753143310547 C 35.98451995849609 89.99867248535156 41.69075012207031 91.15024566650391 47.57511901855469 91.15024566650391 C 53.45948791503906 91.15024566650391 59.16571807861328 89.99867248535156 64.53530120849609 87.72753143310547 C 69.72371673583984 85.53302764892578 74.38422393798828 82.39053344726562 78.38738250732422 78.38738250732422 C 82.39053344726562 74.38422393798828 85.53302764892578 69.72371673583984 87.72753143310547 64.53530120849609 C 89.99867248535156 59.16571807861328 91.15024566650391 53.45948791503906 91.15024566650391 47.57511901855469 C 91.15024566650391 41.69075012207031 89.99867248535156 35.98451995849609 87.72753143310547 30.61493682861328 C 85.53302764892578 25.42652130126953 82.39053344726562 20.76601409912109 78.38738250732422 16.76285552978516 C 74.38422393798828 12.75970458984375 69.72371673583984 9.617210388183594 64.53530120849609 7.422706604003906 C 59.16571807861328 5.151565551757812 53.45948791503906 3.999992370605469 47.57511901855469 3.999992370605469 M 47.57511901855469 -7.62939453125e-06 C 73.85013580322266 -7.62939453125e-06 95.15024566650391 21.30010223388672 95.15024566650391 47.57511901855469 C 95.15024566650391 73.85013580322266 73.85013580322266 95.15024566650391 47.57511901855469 95.15024566650391 C 21.30010223388672 95.15024566650391 -7.62939453125e-06 73.85013580322266 -7.62939453125e-06 47.57511901855469 C -7.62939453125e-06 21.30010223388672 21.30010223388672 -7.62939453125e-06 47.57511901855469 -7.62939453125e-06 Z" stroke="none"/>
        </g>
      </g>
      <g id="Path_873828-6" data-name="Path 873828" transform="translate(0.051)" fill="none">
        <path d="M 47.57511901855469 93.15023040771484 C 41.42163467407227 93.15023040771484 35.45327758789062 91.94551849365234 29.8358325958252 89.56953430175781 C 24.40901947021484 87.27419281005859 19.53483390808105 83.98777770996094 15.34864711761475 79.80158996582031 C 11.16246223449707 75.61540222167969 7.876047611236572 70.74121856689453 5.580704689025879 65.31440734863281 C 3.204719066619873 59.69696044921875 2.000004768371582 53.72860336303711 2.000004768371582 47.57511901855469 C 2.000004768371582 41.42163467407227 3.204719066619873 35.45327758789062 5.580704689025879 29.8358325958252 C 7.876047611236572 24.40901947021484 11.16246223449707 19.53483390808105 15.34864711761475 15.34864711761475 C 19.53483390808105 11.16246223449707 24.40901947021484 7.876047611236572 29.8358325958252 5.580704689025879 C 35.45327758789062 3.204719066619873 41.42163467407227 2.000004768371582 47.57511901855469 2.000004768371582 C 53.72860336303711 2.000004768371582 59.69696044921875 3.204719066619873 65.31440734863281 5.580704689025879 C 70.74121856689453 7.876047611236572 75.61540222167969 11.16246223449707 79.80158996582031 15.34864711761475 C 83.98777770996094 19.53483390808105 87.27419281005859 24.40901947021484 89.56953430175781 29.8358325958252 C 91.94551849365234 35.45327758789062 93.15023040771484 41.42163467407227 93.15023040771484 47.57511901855469 C 93.15023040771484 53.72860336303711 91.94551849365234 59.69696044921875 89.56953430175781 65.31440734863281 C 87.27419281005859 70.74121856689453 83.98777770996094 75.61540222167969 79.80158996582031 79.80158996582031 C 75.61540222167969 83.98777770996094 70.74121856689453 87.27419281005859 65.31440734863281 89.56953430175781 C 59.69696044921875 91.94551849365234 53.72860336303711 93.15023040771484 47.57511901855469 93.15023040771484 Z" stroke="none"/>
        <path d="M 47.57511901855469 3.999992370605469 C 41.69075012207031 3.999992370605469 35.98451995849609 5.151565551757812 30.61493682861328 7.422706604003906 C 25.42652130126953 9.617210388183594 20.76601409912109 12.75970458984375 16.76285552978516 16.76285552978516 C 12.75970458984375 20.76601409912109 9.617210388183594 25.42652130126953 7.422706604003906 30.61493682861328 C 5.151565551757812 35.98451995849609 3.999992370605469 41.69075012207031 3.999992370605469 47.57511901855469 C 3.999992370605469 53.45948791503906 5.151565551757812 59.16571807861328 7.422706604003906 64.53530120849609 C 9.617210388183594 69.72371673583984 12.75970458984375 74.38422393798828 16.76285552978516 78.38738250732422 C 20.76601409912109 82.39053344726562 25.42652130126953 85.53302764892578 30.61493682861328 87.72753143310547 C 35.98451995849609 89.99867248535156 41.69075012207031 91.15024566650391 47.57511901855469 91.15024566650391 C 53.45948791503906 91.15024566650391 59.16571807861328 89.99867248535156 64.53530120849609 87.72753143310547 C 69.72371673583984 85.53302764892578 74.38422393798828 82.39053344726562 78.38738250732422 78.38738250732422 C 82.39053344726562 74.38422393798828 85.53302764892578 69.72371673583984 87.72753143310547 64.53530120849609 C 89.99867248535156 59.16571807861328 91.15024566650391 53.45948791503906 91.15024566650391 47.57511901855469 C 91.15024566650391 41.69075012207031 89.99867248535156 35.98451995849609 87.72753143310547 30.61493682861328 C 85.53302764892578 25.42652130126953 82.39053344726562 20.76601409912109 78.38738250732422 16.76285552978516 C 74.38422393798828 12.75970458984375 69.72371673583984 9.617210388183594 64.53530120849609 7.422706604003906 C 59.16571807861328 5.151565551757812 53.45948791503906 3.999992370605469 47.57511901855469 3.999992370605469 M 47.57511901855469 -7.62939453125e-06 C 73.85013580322266 -7.62939453125e-06 95.15024566650391 21.30010223388672 95.15024566650391 47.57511901855469 C 95.15024566650391 73.85013580322266 73.85013580322266 95.15024566650391 47.57511901855469 95.15024566650391 C 21.30010223388672 95.15024566650391 -7.62939453125e-06 73.85013580322266 -7.62939453125e-06 47.57511901855469 C -7.62939453125e-06 21.30010223388672 21.30010223388672 -7.62939453125e-06 47.57511901855469 -7.62939453125e-06 Z" stroke="none" fill="#fff"/>
      </g>
    </g>
    <g id="Group_1112029" data-name="Group 1112029" transform="translate(17.051 20.984)">
      <path id="Path_900922" data-name="Path 900922" d="M64,111.126a7.11,7.11,0,0,0,7.11-7.11h30.473a7.11,7.11,0,0,0,7.11,7.11v8.126a7.108,7.108,0,0,0-6.024,3.331,10.662,10.662,0,0,0-5.9,3.779H64Zm28.441,4.063a6.095,6.095,0,1,0-6.095,6.095A6.095,6.095,0,0,0,92.441,115.189Zm0,0" transform="translate(-55.874 -90.795)" fill="#2d8e43"/>
      <path id="Path_900923" data-name="Path 900923" d="M109.785,280.016h26.247a10.7,10.7,0,0,0-1.991,4.063h-25C108.343,281.762,113.472,280.016,109.785,280.016Zm0,0" transform="translate(-95.138 -244.449)" fill="#6fb944"/>
      <path id="Path_900924" data-name="Path 900924" d="M322.283,251.225A10.665,10.665,0,1,1,304,258.681a10.482,10.482,0,0,1,.3-2.539A10.719,10.719,0,0,1,312.2,248.3a10.942,10.942,0,0,1,2.468-.284A10.606,10.606,0,0,1,322.283,251.225Zm0,0" transform="translate(-265.401 -216.512)" fill="#dbd9da"/>
      <path id="Path_900925" data-name="Path 900925" d="M111.618,325.094c4.205,0,7.618-2.276,7.618-5.079v4.063c0,2.692-3.139,4.9-7.11,5.058a4.23,4.23,0,0,1-.508.02c-3.271,0-6.064-1.381-7.141-3.312a3.517,3.517,0,0,1-.478-1.767v-4.015S108.347,325.094,111.618,325.094Zm0,0" transform="translate(-90.795 -279.37)" fill="#f29a2b"/>
      <path id="Path_900926" data-name="Path 900926" d="M119.084,284.073a3.423,3.423,0,0,1,.152,1.016c0,2.8-3.413,5.079-7.618,5.079-3.271,0-6.064-1.381-7.131-3.312a3.432,3.432,0,0,1-.488-1.767,4.1,4.1,0,0,1,1.442-2.976,6.934,6.934,0,0,1,1.6-1.077,10.11,10.11,0,0,1,4.571-1.026C115.305,280.01,118.383,281.756,119.084,284.073Zm0,0" transform="translate(-90.795 -244.443)" fill="#de722a"/>
      <path id="Path_900927" data-name="Path 900927" d="M20.189,308.079v2.032a3.517,3.517,0,0,0,.478,1.767,10.019,10.019,0,0,1-5.049,1.28c-4.205,0-7.618-2.276-7.618-5.079v-4.063c0,2.8,3.413,5.079,7.618,5.079a4.23,4.23,0,0,0,.508-.02,10.235,10.235,0,0,0,3.779-.853A2.533,2.533,0,0,0,20.189,308.079Zm0,0" transform="translate(-6.984 -265.401)" fill="#de722a"/>
      <path id="Path_900928" data-name="Path 900928" d="M23.236,243.063v1.016a3.474,3.474,0,0,1-.152,1.016,4.47,4.47,0,0,1-1.453,2.1,9.149,9.149,0,0,1-5.505,1.94,4.233,4.233,0,0,1-.508.02c-4.205,0-7.618-2.276-7.618-5.079v-4.063c0,2.8,3.413,5.079,7.618,5.079s7.618-2.276,7.618-5.079Zm0,0" transform="translate(-6.984 -209.527)" fill="#de722a"/>
      <path id="Path_900929" data-name="Path 900929" d="M21.631,275.134a4.1,4.1,0,0,0-1.442,2.976v2.031a2.533,2.533,0,0,1-.284.142,10.235,10.235,0,0,1-3.779.853,4.236,4.236,0,0,1-.508.02c-4.205,0-7.618-2.276-7.618-5.079v-4.063c0,2.8,3.413,5.079,7.618,5.079a4.23,4.23,0,0,0,.508-.02A9.149,9.149,0,0,0,21.631,275.134Zm0,0" transform="translate(-6.984 -237.464)" fill="#f29a2b"/>
      <path id="Path_900930" data-name="Path 900930" d="M23.236,205.088c0,2.8-3.413,5.079-7.618,5.079S8,207.892,8,205.088c0-1.656,1.2-3.129,3.047-4.063a10.1,10.1,0,0,1,4.063-1,4.233,4.233,0,0,1,.508-.02C19.824,200.01,23.236,202.285,23.236,205.088Zm0,0" transform="translate(-6.984 -174.6)" fill="#f29a2b"/>
      <path id="Path_900931" data-name="Path 900931" d="M32,40.016H84.819v4.063H32Zm0,0" transform="translate(-27.937 -34.921)" fill="#2d8e43"/>
      <path id="Path_900932" data-name="Path 900932" d="M204.189,150.11a6.095,6.095,0,1,1-6.095-6.095A6.095,6.095,0,0,1,204.189,150.11Zm0,0" transform="translate(-167.622 -125.716)" fill="#2d8e43"/>
      <g id="Group_1112029-2" data-name="Group 1112029" transform="translate(4.063 1.031)">
        <path id="Path_900933" data-name="Path 900933" d="M84.819,72.016V97.572a10.606,10.606,0,0,0-7.618-3.21,10.943,10.943,0,0,0-2.468.284,7.108,7.108,0,0,1,6.024-3.331V83.189a7.11,7.11,0,0,1-7.11-7.11H43.173a7.11,7.11,0,0,1-7.11,7.11v5.1a10.1,10.1,0,0,0-4.063,1V72.016Zm0,0" transform="translate(-32 -63.89)" fill="#6fb944"/>
        <path id="Path_900934" data-name="Path 900934" d="M32,8.016H84.819v4.063H32Zm0,0" transform="translate(-32 -8.016)" fill="#6fb944"/>
        <path id="Path_900935" data-name="Path 900935" d="M204.189,150.11a6.095,6.095,0,1,1-6.095-6.095A6.095,6.095,0,0,1,204.189,150.11Zm0,0" transform="translate(-171.685 -126.748)" fill="#6fb944"/>
      </g>
      <path id="Path_900936" data-name="Path 900936" d="M58.032,100.079H56V97.031a1.016,1.016,0,0,1,1.016-1.016h3.047v2.032H58.032Zm0,0" transform="translate(-48.89 -83.811)" fill="#2d8e43"/>
      <path id="Path_900937" data-name="Path 900937" d="M396.063,100.079h-2.032V98.047H392V96.016h3.047a1.016,1.016,0,0,1,1.016,1.016Zm0,0" transform="translate(-342.228 -83.811)" fill="#2d8e43"/>
      <path id="Path_900938" data-name="Path 900938" d="M307.681,263.335A11.7,11.7,0,0,1,296,251.653a11.5,11.5,0,0,1,.335-2.786,11.685,11.685,0,1,1,11.346,14.468Zm0-21.331a9.944,9.944,0,0,0-2.235.259,9.7,9.7,0,0,0-7.137,7.1,9.484,9.484,0,0,0-.278,2.294,9.65,9.65,0,1,0,16.542-6.746A9.549,9.549,0,0,0,307.681,242Zm0,0" transform="translate(-258.417 -209.484)" fill="#4e4e4e"/>
      <path id="Path_900939" data-name="Path 900939" d="M342.109,300.219a1.016,1.016,0,0,1-.718-.3l-3.047-3.047,1.436-1.436,2.329,2.329,7.408-7.408,1.436,1.436-8.126,8.126A1.016,1.016,0,0,1,342.109,300.219Zm0,0" transform="translate(-295.384 -253.479)" fill="#4e4e4e"/>
      <path id="Path_900940" data-name="Path 900940" d="M191.11,136.016a7.11,7.11,0,1,0,7.11,7.11A7.11,7.11,0,0,0,191.11,136.016Zm0,12.189a5.079,5.079,0,1,1,5.079-5.079A5.079,5.079,0,0,1,191.11,148.2Zm0,0" transform="translate(-160.638 -118.732)"/>
      <path id="Path_900941" data-name="Path 900941" d="M58.032,98.047h2.032V96.016H57.016A1.016,1.016,0,0,0,56,97.031v3.047h2.032Zm0,0" transform="translate(-48.89 -83.811)"/>
      <path id="Path_900942" data-name="Path 900942" d="M57.9,9.157V1.031A1.016,1.016,0,0,0,56.882.016H4.063A1.016,1.016,0,0,0,3.047,1.031V25.81A5.559,5.559,0,0,0,0,30.488V42.677c0,3.417,3.792,6.095,8.634,6.095a11.407,11.407,0,0,0,4.7-1A9.622,9.622,0,0,0,20.823,50.8a4.517,4.517,0,0,0,.55-.021c4.609-.188,8.084-2.8,8.084-6.073V40.646h8.237A11.678,11.678,0,1,0,57.9,34.33ZM55.866,8.142H5.079V6.11H55.866Zm0-6.095V4.079H5.079V2.047ZM5.079,10.173H55.866v22.37A11.607,11.607,0,0,0,49.434,30.5a6.063,6.063,0,0,1,3.386-1.024,1.016,1.016,0,0,0,1.016-1.016V20.331a1.016,1.016,0,0,0-1.016-1.016,6.1,6.1,0,0,1-6.095-6.095A1.016,1.016,0,0,0,45.709,12.2H15.236a1.016,1.016,0,0,0-1.016,1.016,6.1,6.1,0,0,1-6.095,6.095A1.016,1.016,0,0,0,7.11,20.331V24.5a11.538,11.538,0,0,0-2.032.43ZM40.427,34.551H17.268V30.488c0-3.3-3.531-5.892-8.126-6.077V21.283a8.126,8.126,0,0,0,7.047-7.047H44.756A8.126,8.126,0,0,0,51.8,21.283V27.5a8.062,8.062,0,0,0-4.731,2.317,7.9,7.9,0,0,0-.9,1.1A11.689,11.689,0,0,0,40.427,34.551Zm-13,6.095c0,2.2-3.024,4.063-6.6,4.063s-6.6-1.861-6.6-4.063A3.032,3.032,0,0,1,15.3,38.462c.078-.067.156-.133.231-.2a8.473,8.473,0,0,1,5.3-1.676C24.4,36.583,27.425,38.444,27.425,40.646ZM8.634,26.425c3.578,0,6.6,1.861,6.6,4.063s-3.024,4.063-6.6,4.063-6.6-1.861-6.6-4.063S5.055,26.425,8.634,26.425Zm-6.6,8.024a10.367,10.367,0,0,0,6.6,2.133,10.367,10.367,0,0,0,6.6-2.133v.1a3.012,3.012,0,0,1-1.048,2.156l-.113.1A8.207,8.207,0,0,1,9.026,38.6a2.877,2.877,0,0,1-.392.01c-3.578,0-6.6-1.861-6.6-4.063Zm0,4.063a10.367,10.367,0,0,0,6.6,2.133,4.517,4.517,0,0,0,.55-.021,11.734,11.734,0,0,0,3.047-.52,4.5,4.5,0,0,0-.042.542v1.368a9.511,9.511,0,0,1-3.163.65,2.961,2.961,0,0,1-.392.013c-3.578,0-6.6-1.861-6.6-4.063Zm6.6,8.228c-3.578,0-6.6-1.861-6.6-4.063v-.1a10.367,10.367,0,0,0,6.6,2.133,4.456,4.456,0,0,0,.546-.021,11.6,11.6,0,0,0,3.01-.514v.535a4.523,4.523,0,0,0,.186,1.28A9.432,9.432,0,0,1,8.634,46.74Zm12.581,2.018a3.14,3.14,0,0,1-.392.013c-3.578,0-6.6-1.861-6.6-4.063v-.1a10.367,10.367,0,0,0,6.6,2.133,10.367,10.367,0,0,0,6.6-2.133v.1C27.425,46.8,24.673,48.614,21.215,48.758Zm7.758-10.144A5.964,5.964,0,0,0,27.3,36.583H39a11.577,11.577,0,0,0-.868,2.032Zm20.291,13.2a9.65,9.65,0,1,1,9.65-9.65A9.65,9.65,0,0,1,49.264,51.819Zm0,0"/>
      <path id="Path_900943" data-name="Path 900943" d="M394.031,100.079h2.032V97.031a1.016,1.016,0,0,0-1.016-1.016H392v2.032h2.031Zm0,0" transform="translate(-342.228 -83.811)"/>
      <path id="Path_900944" data-name="Path 900944" d="M342.109,297.767l-2.329-2.329-1.436,1.436,3.047,3.047a1.016,1.016,0,0,0,1.436,0l8.126-8.126-1.436-1.436Zm0,0" transform="translate(-295.384 -253.479)"/>
    </g>
  </g>
</svg>
